<?xml version="1.0" standalone="yes"?>
<svg xmlns="http://www.w3.org/2000/svg" width="1041" height="1094">
<path style="fill:#f9eeda; stroke:none;" d="M0 0L0 1094L1041 1094L1041 0L0 0z"/>
<path style="fill:#d3a670; stroke:none;" d="M657 374L707 373L707 374L661 383.714L632 386L632 387L657 387C657 395.344 654.195 409.966 659 417L660 416C658.491 413.989 655.871 406.968 660 408L661 399L658 401L659.603 388.603L676 387L721 387L721 396L722 396C722.053 381.07 740.877 386 752 386C744.643 374.081 736.712 366.269 722 369C713.496 333.198 659.913 337.401 657 374z"/>
<path style="fill:#377149; stroke:none;" d="M656 384L669 383L669 382L659 383C656.471 368.497 688.102 374 698 374L698 376L681 379L681 380L707 374L671 373L658.564 374.028L656 384z"/>
<path style="fill:#09779b; stroke:none;" d="M659 383L698 376L698 374C688.154 374 655.566 368.403 659 383z"/>
<path style="fill:#d3a670; stroke:none;" d="M654.667 378.333L655.333 378.667L654.667 378.333M651.667 379.333L652.333 379.667L651.667 379.333z"/>
<path style="fill:#ee737d; stroke:none;" d="M638 384L638 385L656 384L656 379L638 384z"/>
<path style="fill:#d3a670; stroke:none;" d="M648.667 380.333L649.333 380.667L648.667 380.333z"/>
<path style="fill:#377149; stroke:none;" d="M670 381L670 382L680 381L670 381z"/>
<path style="fill:#d3a670; stroke:none;" d="M645.667 381.333L646.333 381.667L645.667 381.333M642.667 382.333L643.333 382.667L642.667 382.333M639.667 383.333L640.333 383.667L639.667 383.333z"/>
<path style="fill:#ee737d; stroke:none;" d="M669 398L658 394L658 401C669.106 395.982 669.809 411.165 658 407L658 415L668 413L667 409L671 408L670 411C676.27 412.659 685.616 411.328 690.982 414.742C693.469 416.324 697.14 423.189 700.65 421.694C703.916 420.303 702.765 413.776 703.572 411C705.349 404.885 717.951 395.013 708.347 388.028C705.576 386.012 700.228 387 697 387L670 387C667.301 387 659.894 385.767 658.752 389.21C657.554 392.819 667.252 395.132 669 398z"/>
<path style="fill:#377149; stroke:none;" d="M709 387C710.002 390.789 712.698 396.794 710.802 400.625C708.973 404.323 704.828 405.645 703.573 410.001C702.805 412.661 704.277 421.793 699.906 421.793C696.406 421.794 694.005 415.748 690.982 414.179C685.742 411.461 675.98 412.012 670 411L671 408L667 409L668 413C647.525 414.121 670.967 435.661 671 445C689.973 448.522 713.953 440.215 719.956 420C723.132 409.305 721.029 397.918 721 387L709 387M658 392L669 398C667.71 393.587 662.108 392.906 658 392M684 397L696 393C691.725 392.621 686.686 393.424 684 397z"/>
<path style="fill:#d3a670; stroke:none;" d="M710 395L711 396L710 395z"/>
<path style="fill:#ee737d; stroke:none;" d="M722 396L721 414C732.308 412.476 732.146 399.481 722 396z"/>
<path style="fill:#d3a670; stroke:none;" d="M724 396L725 397L724 396M726 397L727 398L726 397M663 398L664 399L663 398M690 398L691 399L690 398M727 398L728 399L727 398z"/>
<path style="fill:#f9eeda; stroke:none;" d="M661.228 400.072C656.518 402.678 659.923 409.791 664.855 407.632C670.117 405.329 666.27 397.283 661.228 400.072z"/>
<path style="fill:#d3a670; stroke:none;" d="M665 399L666 400L665 399M688 399L687 401L688 399z"/>
<path style="fill:#f9eeda; stroke:none;" d="M689.239 400.072C684.705 402.621 687.993 409.769 692.856 407.632C698.115 405.321 694.251 397.254 689.239 400.072z"/>
<path style="fill:#d3a670; stroke:none;" d="M693 399L694 400L693 399M728 399L729 400L728 399M662.667 401.333L663.333 401.667L662.667 401.333M667 401L668 402L667 401M690.667 401.333L691.333 401.667L690.667 401.333M695 401L696 402L695 401M711 401L712 402L711 401M729 401L730 402L729 401z"/>
<path style="fill:#377149; stroke:none;" d="M661 402L665 406L665 402L661 402z"/>
<path style="fill:#d3a670; stroke:none;" d="M686 402L687 403L686 402z"/>
<path style="fill:#377149; stroke:none;" d="M689 402L693 406L693 402L689 402z"/>
<path style="fill:#d3a670; stroke:none;" d="M665.333 403.667L665.667 404.333L665.333 403.667M688 403L689 404L688 403M693.333 403.667L693.667 404.333L693.333 403.667M730 403L730 407L731 407L730 403M686.333 404.667L686.667 405.333L686.333 404.667M661 405L662 406L661 405M689 405L690 406L689 405M667 406L668 407L667 406M695 406L696 407L695 406M666 407L667 408L666 407z"/>
<path style="fill:#377149; stroke:none;" d="M671 407L672 408L671 407z"/>
<path style="fill:#d3a670; stroke:none;" d="M687 407L688 408L687 407M694 407L695 408L694 407M661.667 408.333L662.333 408.667L661.667 408.333M664.667 408.333L665.333 408.667L664.667 408.333M689.667 408.333L690.333 408.667L689.667 408.333M692.667 408.333L693.333 408.667L692.667 408.333M729 409L730 410L729 409M728 410L729 411L728 410M726 412L727 413L726 412M725 413L726 414L725 413M721.667 414.333L722.333 414.667L721.667 414.333M668 417L668 418L671 418L668 417z"/>
<path style="fill:#ee737d; stroke:none;" d="M666 418C666.084 420.354 663.682 421.543 664.167 424C665.733 431.943 677.736 428.22 683 429C687.755 415.785 675.751 417.432 666 418z"/>
<path style="fill:#d3a670; stroke:none;" d="M672 417L672 418L681 418L672 417M702.333 418.667L702.667 419.333L702.333 418.667M720 418L721 419L720 418M658 419L659 420L658 419M684 421L685 422L684 421M697 421L698 422L697 421M702 421L703 422L702 421M719 421L720 422L719 421M698 422L699 423L698 422M701 422L702 423L701 422M660 424L661 425L660 424M684 425L685 426L684 425M661 426L662 427L661 426M665 426L666 427L665 426M666 427L667 428L666 427M683 427L684 428L683 427M716 427L717 428L716 427M667 428L668 429L667 428M681 428L682 429L681 428M663 429L664 430L663 429M664 430L665 431L664 430M714 430L715 431L714 430M713 431L713 434L714 434L713 431z"/>
<path style="fill:#ee737d; stroke:none;" d="M713 433C704.634 437.167 697.514 443.737 688 445.532C684.283 446.234 674.574 444.005 672.029 446.832C666.89 452.539 682.018 470.097 687.039 472.107C706.082 479.725 717.041 446.67 713 433z"/>
<path style="fill:#d3a670; stroke:none;" d="M669 435L670 436L669 435M670 436L670 445L671 445L670 436M703 439L704 440L703 439M671.667 445.333L672.333 445.667L671.667 445.333M713 452L697 472L697 473L715 453L713 452z"/>
<path style="fill:#377149; stroke:none;" d="M657 453L656.945 541L653.043 555L652.671 592L644.985 604.146L636.318 610.144L635.996 634L636 685L604 693.333L549 713.29L494 733L495 750C520.454 732.612 546.92 725.84 576 717C576.233 720.237 576.383 724.501 580 725L578 729L628 715C626.07 710.862 617.375 704.894 619.176 700.093C623.266 689.193 641.741 692.104 648.7 684.891C661.728 671.389 672.083 653.991 683.374 639C693.927 624.99 706.941 611.263 715.61 596C720.242 587.844 721.472 569.407 720.927 560.039C720.771 557.35 718.465 554.684 718.897 552.065C719.356 549.288 722.299 547.789 722.867 544.896C728.761 514.858 727 483.43 727 453C710.569 453 698.968 467.41 694 483L714.972 500.09L716 525L714.397 541.397L704 543L679 543L669.028 540.682L668 528L668 498L691 483C685.115 467.701 673.595 453 657 453z"/>
<path style="fill:#d3a670; stroke:none;" d="M669 453L669 454L672 455L669 453z"/>
<path style="fill:#09779b; stroke:none;" d="M665.314 454.931C661.843 456.08 663.542 461.463 663.845 464C664.84 472.343 665.854 480.667 666.954 488.999C667.338 491.901 668.104 496.054 672.044 494.914C675.963 493.781 688.481 485.462 688.118 480.91C687.763 476.453 681.943 471.424 679.375 468C676.682 464.41 671.158 452.997 665.314 454.931M695 481L695 482L716 497L717 497L718 473C721.148 472.475 719.802 468.468 719 466L720 458L722 455C709.945 453.119 701.812 472.942 695 481z"/>
<path style="fill:#d3a670; stroke:none;" d="M672 455L673 456L672 455M673 456L674 457L673 456M674 458L675 459L674 458M675 459L676 460L675 459M676 460L678 463L676 460M678 463L679 464L678 463M679.333 464.667L679.667 465.333L679.333 464.667M680 466L681 467L680 466M681 467L683 470L681 467M683 470L688 473L688 472L683 470z"/>
<path style="fill:#f9eeda; stroke:none;" d="M699 472L700 473L699 472M685 473L691 483C684.67 486.152 672.199 493.319 669.349 500.039C664.511 511.448 670.949 528.615 668 541C681.872 545.1 700.529 542 715 542L716 499L693 483L699 473L685 473z"/>
<path style="fill:#d3a670; stroke:none;" d="M690 473L690 474L695 474L690 473M698 474L699 475L698 474M686 475L687 476L686 475M696 477L697 478L696 477M689 479L690 480L689 479M694 480L695 481L694 480M693.333 481.667L693.667 482.333L693.333 481.667M689 483L690 484L689 483M696 484L697 485L696 484M697 485L698 486L697 485M685 486L686 487L685 486M640 487L639 494L640 494L642 487L640 487M701 488L702 489L701 488M681 489L682 490L681 489M705 491L706 492L705 491M677 492L678 493L677 492M709 494L710 495L709 494M673 495L674 496L673 495M713 497L714 498L713 497M668 498L668 501L669 501L670 498L668 498M715 500L715 537L716 537C716 526.351 719.111 509.798 715 500M668 502L668 540L669 540C669 529.089 672.211 512.036 668 502M726 512L726 515L727 515L726 512M725 520L725 523L726 523L725 520M724.333 528.667L724.667 529.333L724.333 528.667M725 530L726 531L725 530z"/>
<path style="fill:#ee737d; stroke:none;" d="M770 530L737 530C733.742 530 727.377 528.865 725.027 531.742C722.283 535.102 723.097 543.614 722.543 547.834C720.729 561.657 721.996 580.177 716.606 593C712.688 602.32 703.92 610.938 697.873 619C684.34 637.045 670.659 654.957 657.127 673C653.534 677.79 650.071 683.934 644.985 687.283C639.486 690.904 612.454 692.854 619.747 705C638.723 736.605 670.129 694.403 683.714 679C696.117 664.938 709.677 651.291 723.289 638.385C731.914 630.208 742.633 621.844 749.366 611.996C754.584 604.362 755.672 593.809 757.873 585C762.246 567.507 769.224 548.023 770 530z"/>
<path style="fill:#d3a670; stroke:none;" d="M770 530L770 533L771 533L770 530M769 535L769 538L770 538L769 535M715 538L715 542L716 542L715 538M768.333 540.667L768.667 541.333L768.333 540.667M668 541L669 542L668 541M723 541L724 542L723 541M669 542L669 543L715 543C703.061 537.99 682.003 542 669 542M767.333 544.667L767.667 545.333L767.333 544.667M654 548L655 549L654 548M662 548L663 549L662 548M721 548L723 550L721 548M766.333 548.667L766.667 549.333L766.333 548.667M660 549L659 551L660 549z"/>
<path style="fill:#f9eeda; stroke:none;" d="M661.314 550.086C657.778 552.214 661.155 557.471 664.407 554.954C667.153 552.828 664.517 548.157 661.314 550.086M719 556L721 556L722 549C718.202 550.26 718.021 552.326 719 556z"/>
<path style="fill:#d3a670; stroke:none;" d="M653 550L654 551L653 550M666 551L666 554L667 554L666 551M765 552L765 555L766 555L765 552M659 554L660 555L659 554M721.333 554.667L721.667 555.333L721.333 554.667M662 556L663 557L662 556M764 556L764 559L765 559L764 556M291 559L292 560L291 559M721 559L722 560L721 559z"/>
<path style="fill:#377149; stroke:none;" d="M291 560C291 573.508 292.95 588.662 290.852 601.996C290.096 606.799 285.424 608.714 283.742 613.015C280.015 622.545 285.333 629.982 289 638C306.247 635.628 298.991 624.303 305.742 614.044C309.884 607.751 316.6 610.013 321.867 606.258C327.192 602.46 326 594.69 326 589L335 594C334.509 582.569 329.686 572.742 324 563L323 563L322 587L310.104 585.972L291 560z"/>
<path style="fill:#d3a670; stroke:none;" d="M322 561L322 564L324 563L324 562L322 561M763.333 561.667L763.667 562.333L763.333 561.667M293 562L294 563L293 562M295 565L296 566L295 565M762.333 565.667L762.667 566.333L762.333 565.667M322 567L323 568L322 567M297 568L298 569L297 568M327 569L328 570L327 569M761.333 569.667L761.667 570.333L761.333 569.667M328 571L329 572L328 571z"/>
<path style="fill:#f9eeda; stroke:none;" d="M295 573L295 596C305.465 589.072 302.313 581.817 295 573z"/>
<path style="fill:#d3a670; stroke:none;" d="M300 573L301 574L300 573M329 573L330 574L329 573M760 573L760 576L761 576L760 573M296 574L297 575L296 574M322 575L323 576L322 575M330 575L331 576L330 575M297 576L298 577L297 576M302 576L303 577L302 576M331 577L332 578L331 577M298 578L299 579L298 578M759.333 578.667L759.667 579.333L759.333 578.667M304 579L305 580L304 579M299 580L300 581L299 580M333 582L334 583L333 582M758.333 582.667L758.667 583.333L758.333 582.667M307 584L308 585L307 584M718 584L719 585L718 584M334 586L334 589L335 589L334 586M757.333 586.667L757.667 587.333L757.333 586.667M303 587L304 588L303 587M326 589L327 590L326 589M756.333 590.667L756.667 591.333L756.333 590.667M299 592L300 593L299 592M331 592L332 593L331 592M652.333 592.667L652.667 593.333L652.333 592.667M298 593L299 594L298 593M333 593L334 594L333 593M297 594L298 595L297 594M755.333 594.667L755.667 595.333L755.333 594.667M312 595L313 596L312 595z"/>
<path style="fill:#f9eeda; stroke:none;" d="M313.225 595.801C308.51 597.552 311.032 605.017 315.867 603.338C320.744 601.645 318.193 593.955 313.225 595.801z"/>
<path style="fill:#d3a670; stroke:none;" d="M360 596L361 597L360 596z"/>
<path style="fill:#377149; stroke:none;" d="M361.109 596.786C353.996 599.355 359.261 608.289 365.772 605.396C371.775 602.728 366.614 594.798 361.109 596.786z"/>
<path style="fill:#d3a670; stroke:none;" d="M365 596L366 597L365 596M651 596L652 597L651 596M310 597L311 598L310 597z"/>
<path style="fill:#377149; stroke:none;" d="M313 597L312 601L317 602L313 597z"/>
<path style="fill:#d3a670; stroke:none;" d="M367 597L368 598L367 597M312 598L313 599L312 598M319.333 598.667L319.667 599.333L319.333 598.667M650 598L651 599L650 598M754 598L754 601L755 601L754 598M317 599L318 600L317 599M357 599L358 600L357 599M649 600L650 601L649 600M310 601L311 602L310 601M325 601L326 602L325 601M648 601L649 602L648 601M318 602L319 603L318 602M317 603L318 604L317 603M357 603L358 604L357 603M368 603L369 604L368 603M646 603L647 604L646 603M753 603L754 604L753 603M314 604L315 605L314 604M290 605L291 606L290 605M643 605L644 606L643 605M752 605L753 606L752 605M361 606L362 607L361 606M363.667 606.333L364.333 606.667L363.667 606.333M640 606L641 607L640 606M320 607L321 608L320 607M636 607L637 608L636 607M752 607L752 608L760 608L752 607z"/>
<path style="fill:#377149; stroke:none;" d="M600 911L601 911C601.865 903.324 614.676 900.552 620.477 905.514C623.301 907.929 621.567 912.768 622.893 915.941C623.805 918.122 625.551 919.704 628.014 919.704C633.832 919.704 637.1 893.272 646 907L647 907L652 891L647 891C654.71 874.514 662.088 856.233 663.83 838C664.664 829.274 659.545 815.785 662.328 808C664.847 800.953 674.775 794.225 680 789C689.046 815.576 711.317 821.316 736 828.72C754.308 834.212 772.612 839.782 791 845L789 850L808 855L808 854C803.95 849.725 809.784 835.232 815.619 833.665C819.826 832.536 826.588 839.573 829.392 832.853C832.595 825.174 821.194 825.42 821.211 819.381C821.223 814.871 825.168 812.671 829 813L829 812L812 803L810 807C786.998 793.574 762.3 789 736 789C736.109 774.925 736.392 760.284 737.691 746.286C738.145 741.399 737.05 735.683 738.564 731C741.392 722.254 749.757 714.587 753.691 706C761.692 688.54 763 670.881 763 652L763 620C763 617.097 764.097 611.167 761.972 608.832C755.463 601.678 745.443 615.94 741.911 619.286C724.543 635.736 707.818 652.983 691.004 670C681.894 679.219 673.18 688.82 664 698C659.417 702.583 652.892 707.346 649.647 713C646.932 717.729 651.621 722.347 652.427 727C653.098 730.868 651.239 734.561 649.694 738C640.315 758.883 629.725 779.931 623.427 802C615.946 828.218 613.932 856.155 609.575 883C608.592 889.058 604.966 888.818 602.564 893.313C600.119 897.889 600.22 905.885 600 911z"/>
<path style="fill:#d3a670; stroke:none;" d="M761.667 607.333L762.333 607.667L761.667 607.333M313 608L313 609L319 609L313 608M635 608L635 625L636 625L635 608M285 609L286 610L285 609M284 610L285 611L284 610M283 612L284 613L283 612M305 613L306 614L305 613M282 615L282 627L283 627L282 615M304 615L305 616L304 615M318.333 618.667L318.667 619.333L318.333 618.667z"/>
<path style="fill:#ee737d; stroke:none;" d="M319 618C321.844 622.511 327.666 622.392 331.384 626.214C337.552 632.552 336.229 637.402 338.434 644.956C339.184 647.528 341.188 649.543 344 649.543C352.341 649.543 351.661 630.8 348.258 626.148C343.303 619.375 326.732 618 319 618z"/>
<path style="fill:#d3a670; stroke:none;" d="M331.667 618.333L332.333 618.667L331.667 618.333M333 619L334 620L333 619M320 620L321 621L320 620M335 620L336 621L335 620M321 621L322 622L321 621M336 621L337 622L336 621M324 622L324 623L327 623L324 622M339 622L339 623L345 623L339 622M346 623L347 624L346 623M330 624L331 625L330 624M347 624L348 625L347 624M348 625L349 626L348 625M349.333 626.667L349.667 627.333L349.333 626.667M634 626L632 631L634 626M303 627L304 628L303 627M332 627L333 628L332 627z"/>
<path style="fill:#ee737d; stroke:none;" d="M635 627L613.244 669L603.61 686.683L575 701C582.262 702.513 592.015 697.607 599 695.33C607.491 692.563 620.824 690.59 627.561 684.581C639.273 674.136 636 658.174 636 644C636 638.65 637.085 631.969 635 627z"/>
<path style="fill:#d3a670; stroke:none;" d="M333 628L334 629L333 628M283 629L284 630L283 629M334 629L335 630L334 629M284 631L285 632L284 631M335 631L336 632L335 631M336 632L337 633L336 632M631 632L632 633L631 632M337.333 634.667L337.667 635.333L337.333 634.667M630 634L631 635L630 634M288 635L289 636L288 635M297 635L298 636L297 635M629 636L630 637L629 636M292 637L293 638L292 637M628 638L629 639L628 638M722 638L723 639L722 638M337 639L338 640L337 639M627 640L628 641L627 640M626 642L627 643L626 642M718 642L719 643L718 642M625 644L626 645L625 644M338 646L339 647L338 646M349.333 646.667L349.667 647.333L349.333 646.667M624 646L625 647L624 646M348 648L349 649L348 648M623 648L624 649L623 648M341 649L342 650L341 649M346.667 649.333L347.333 649.667L346.667 649.333M622 650L623 651L622 650M710 650L711 651L710 650M621 652L622 653L621 652M673 652L674 653L673 652M620 654L621 655L620 654M619 656L620 657L619 656M618 658L619 659L618 658M617 660L618 661L617 660M616 662L617 663L616 662M615 664L616 665L615 664M614 666L615 667L614 666M613 668L614 669L613 668z"/>
<path style="fill:#377149; stroke:none;" d="M344 670C340.827 685.332 332.192 700.158 332.004 716C331.953 720.307 334.996 733.286 331.593 736.012C326.042 740.456 311.939 740.25 305 741.414C283.293 745.054 261.708 749.458 240 753.08C234.725 753.96 211.636 754.837 211.636 761.985C211.636 768.227 223.932 764.048 227 769L228 769L227 764C250.991 762.091 275.298 755.701 299 751.424C339.317 744.15 379.654 737.014 420 729.916C436.318 727.045 452.719 724.284 469 721.196C476.407 719.791 485.773 716.057 493 719C495.673 717.193 505.744 710.584 497.852 707.912C493.023 706.277 484.872 709.263 480 710.197C466.426 712.799 449.804 718.275 436 717.62C427.131 717.2 416.948 709.958 409 706.309C391.714 698.373 371.932 692.054 356.004 681.613C351.194 678.459 348.377 673.563 344 670z"/>
<path style="fill:#d3a670; stroke:none;" d="M345 670L346 671L345 670M612 670L613 671L612 670M611 672L612 673L611 672M762 672L763 673L762 672M347 673L348 674L347 673M610.333 673.667L610.667 674.333L610.333 673.667M635 674L635 684L636 684L635 674M762.333 674.667L762.667 675.333L762.333 674.667M609 675L610 676L609 675M342 676L343 677L342 676z"/>
<path style="fill:#f9eeda; stroke:none;" d="M634 676L628 685L636 685L634 676z"/>
<path style="fill:#d3a670; stroke:none;" d="M350 677L351 678L350 677M608.333 677.667L608.667 678.333L608.333 677.667M633 677L634 678L633 677M351 678L352 679L351 678M632 678L633 679L632 678M341 679L342 680L341 679M352 679L353 680L352 679M607.333 679.667L607.667 680.333L607.333 679.667M606.333 681.667L606.667 682.333L606.333 681.667M630 681L631 682L630 681M761 681L762 682L761 681M340 682L341 683L340 682M629 682L630 683L629 682M358 683L359 684L358 683M605.333 683.667L605.667 684.333L605.333 683.667M628 683L629 684L628 683M339 685L340 686L339 685M604.333 685.667L604.667 686.333L604.333 685.667M627.667 685.333L628.333 685.667L627.667 685.333M760.333 685.667L760.667 686.333L760.333 685.667M365 686L366 687L365 686M367 687L368 688L367 687M603 687L604 688L603 687M338 688L339 689L338 688M369 688L370 689L369 688M599 688L599 689L603 689L599 688M371 689L372 690L371 689M594 689L594 690L597 690L594 689M639.667 689.333L640.333 689.667L639.667 689.333M759 689L760 690L759 689M590.667 690.333L591.333 690.667L590.667 690.333M376 691L377 692L376 691M588 691L589 692L588 691M378 692L379 693L378 692M585.667 692.333L586.333 692.667L585.667 692.333M380 693L381 694L380 693M583.667 693.333L584.333 693.667L583.667 693.333M758 693L759 694L758 693M382 694L383 695L382 694M582 694L583 695L582 694M336 695L337 696L336 695M580 695L581 696L580 695M579 696L580 697L579 696M757 696L758 697L757 696M389 697L390 698L389 697M577 697L578 698L577 697M335 698L336 699L335 698M391 698L392 699L391 698M576 698L577 699L576 698M575 699L576 700L575 699M395 700L396 701L395 700M334 701L335 702L334 701M575 701L576 702L575 701M755 701L756 702L755 701M400 702L401 703L400 702M402 703L403 704L402 703M572 703L573 704L572 703M618 703L619 704L618 703M333 704L334 705L333 704M404 704L405 705L404 704M569 704L570 705L569 704M566 705L567 706L566 705M563 706L564 707L563 706M753 706L754 707L753 706M411 707L412 708L411 707M494.667 707.333L495.333 707.667L494.667 707.333M498 707L499 708L498 707M560 707L561 708L560 707M332.333 708.667L332.667 709.333L332.333 708.667M413 708L414 709L413 708M488.667 708.333L489.333 708.667L488.667 708.333M557 708L558 709L557 708M752 708L753 709L752 708M415 709L416 710L415 709M483 709L484 710L483 709M555 709L556 710L555 709M417 710L418 711L417 710M477.667 710.333L478.333 710.667L477.667 710.333M554 710L555 711L554 710M751 710L752 711L751 710M472 711L473 712L472 711M501.333 711.667L501.667 712.333L501.333 711.667M553 711L554 712L553 711M422 712L423 713L422 712M466 712L467 713L466 712M424 713L425 714L424 713M460.667 713.333L461.333 713.667L460.667 713.333M426 714L427 715L426 714M455 714L456 715L455 714M500 714L501 715L500 714M628 714L628 715L634 717L634 716L628 714M331 715L331 722L332 722L331 715M428 715L429 716L428 715M449.667 715.333L450.333 715.667L449.667 715.333M499 715L500 716L499 715M542 715L543 716L542 715M625 715L626 716L625 715z"/>
<path style="fill:#f9eeda; stroke:none;" d="M308 956L410 956L410 921L411 921L419 951L420 951L439 907L440 907L440 952L470 917L470 956L593 956L602 891C613.21 890.627 612.9 860.405 614.411 851C617.887 829.359 620.298 807.546 628.45 787C633.803 773.506 639.994 760.277 645.86 747C648.222 741.655 652.79 734.964 652.79 729C652.79 724.113 649.328 719.609 648 715C639.162 718.404 633.376 714.059 625 715.695C612.751 718.088 601.027 723.793 589 727.124C562.291 734.523 521.089 738.66 508.313 767C503.993 776.584 505.836 785.933 504.829 796C504.083 803.464 499.988 810.669 499.615 818C498.668 836.594 506.555 858.644 509.75 877C511.686 888.125 520.061 912.337 507.895 920.378C500.721 925.12 485.652 916.38 480 912.1C458.661 895.944 440.312 871.998 417 858.742C410.104 854.821 396.201 861.778 389 863.63C366.233 869.484 343.75 876.448 321 882.371C313.129 884.42 300.115 889.317 297.306 898.089C295.748 902.953 304.569 913.979 306.304 919C310.67 931.631 309.634 943.083 308 956z"/>
<path style="fill:#d3a670; stroke:none;" d="M646 715L647 716L646 715M748 715L749 716L748 715M443.667 716.333L444.333 716.667L443.667 716.333M496 716L497 717L496 716M539 716L540 717L539 716M644 716L645 717L644 716M438 717L439 718L438 717z"/>
<path style="fill:#09779b; stroke:none;" d="M227 764C228.654 774.6 237.515 784.975 243.039 794C254.61 812.902 265.457 832.274 277.319 851C281.462 857.539 285.883 864.279 291.174 869.961C293.088 872.017 297.818 874.766 297.369 878.039C296.996 880.753 293.847 883.2 291.999 884.957C286.51 890.178 275.451 901.945 268.536 904.422C264.973 905.698 260.258 901.712 257 900.547C250.676 898.287 243.674 897.338 237 898.3C205.631 902.822 189.934 941.209 210.265 965.985C225.373 984.398 253.577 986.399 271.13 970.331C280.661 961.607 285.98 947.901 284.245 935C283.592 930.137 277.721 919.909 279.955 915.718C282.474 910.993 288.227 907.645 291.886 903.829C297.875 897.586 302.265 889.964 310.039 885.518C326.587 876.052 350.653 873.675 369 868.576C382.597 864.796 397.898 858.023 412 857.036C418.638 856.572 426.169 865.898 431 869.803C447.363 883.03 462.482 897.874 479 910.88C484.776 915.428 501.169 925.105 508.606 919.254C518.877 911.172 510.548 885.358 508.611 875C505.344 857.526 498.329 836.756 498.966 819C499.231 811.626 503.085 804.446 503.829 797C504.84 786.898 503.164 777.672 507.338 768C516.212 747.436 535.701 742.433 555 736C562.326 733.558 576.14 732.177 580 725L576 717C545.534 724.338 508.257 730.523 496 764C492.308 754.141 494.832 740.6 494.09 730C493.853 726.618 495.248 720.171 491.682 718.117C487.164 715.516 476.79 719.442 472 720.4C455.072 723.785 437.929 726.172 421 729.551C357.068 742.311 291.615 755.655 227 764z"/>
<path style="fill:#d3a670; stroke:none;" d="M494 717L495 718L494 717M536 717L537 718L536 717M619 717L620 718L619 717M636 717L636 718L642 718L636 717M648 717L649 718L648 717M533 718L534 719L533 718M615 718L616 719L615 718M530 719L531 720L530 719M612 719L613 720L612 719M649 719L650 720L649 719M527 720L528 721L527 720M609 720L610 721L609 720M524 721L525 722L524 721M606 721L607 722L606 721M650 721L651 722L650 721M744 721L745 722L744 721M603 722L604 723L603 722M600 723L601 724L600 723M651 723L652 724L651 723M494 724L496 733L494 724M597 724L598 725L597 724M742 724L743 725L742 724M511 725L512 726L511 725M594 725L595 726L594 725M741 725L742 726L741 725M508 726L509 727L508 726M505 727L506 728L505 727M588 727L589 728L588 727M332.333 728.667L332.667 729.333L332.333 728.667M503 728L504 729L503 728M580 728L581 729L580 728M501 729L502 730L501 729z"/>
<path style="fill:#377149; stroke:none;" d="M575.667 729.333L576.333 729.667L575.667 729.333z"/>
<path style="fill:#d3a670; stroke:none;" d="M577 729L578 730L577 729z"/>
<path style="fill:#377149; stroke:none;" d="M572 730L573 731L572 730z"/>
<path style="fill:#d3a670; stroke:none;" d="M573.667 730.333L574.333 730.667L573.667 730.333z"/>
<path style="fill:#377149; stroke:none;" d="M569 731L570 732L569 731z"/>
<path style="fill:#d3a670; stroke:none;" d="M570.667 731.333L571.333 731.667L570.667 731.333z"/>
<path style="fill:#377149; stroke:none;" d="M565.667 732.333L566.333 732.667L565.667 732.333z"/>
<path style="fill:#d3a670; stroke:none;" d="M567.667 732.333L568.333 732.667L567.667 732.333M333 733L334 734L333 733z"/>
<path style="fill:#377149; stroke:none;" d="M562.667 733.333L563.333 733.667L562.667 733.333z"/>
<path style="fill:#d3a670; stroke:none;" d="M564 733L565 734L564 733z"/>
<path style="fill:#377149; stroke:none;" d="M559.667 734.333L560.333 734.667L559.667 734.333z"/>
<path style="fill:#d3a670; stroke:none;" d="M561 734L562 735L561 734z"/>
<path style="fill:#377149; stroke:none;" d="M556.667 735.333L557.333 735.667L556.667 735.333z"/>
<path style="fill:#d3a670; stroke:none;" d="M558 735L559 736L558 735M332 736L333 737L332 736z"/>
<path style="fill:#377149; stroke:none;" d="M553.667 736.333L554.333 736.667L553.667 736.333z"/>
<path style="fill:#d3a670; stroke:none;" d="M555 736L556 737L555 736M650 736L651 737L650 736M326.667 737.333L327.333 737.667L326.667 737.333z"/>
<path style="fill:#377149; stroke:none;" d="M550.667 737.333L551.333 737.667L550.667 737.333z"/>
<path style="fill:#d3a670; stroke:none;" d="M552 737L553 738L552 737M320.667 738.333L321.333 738.667L320.667 738.333z"/>
<path style="fill:#377149; stroke:none;" d="M547.667 738.333L548.333 738.667L547.667 738.333z"/>
<path style="fill:#d3a670; stroke:none;" d="M549 738L550 739L549 738M649 738L650 739L649 738M315.667 739.333L316.333 739.667L315.667 739.333M512 739L512 741L514 739L512 739z"/>
<path style="fill:#377149; stroke:none;" d="M544.667 739.333L545.333 739.667L544.667 739.333z"/>
<path style="fill:#d3a670; stroke:none;" d="M546 739L547 740L546 739M309.667 740.333L310.333 740.667L309.667 740.333M509 740L510 741L509 740z"/>
<path style="fill:#f9eeda; stroke:none;" d="M495 763L496 763L512 740C498.872 743.782 495 750.049 495 763z"/>
<path style="fill:#377149; stroke:none;" d="M541 740L542 741L541 740z"/>
<path style="fill:#d3a670; stroke:none;" d="M542.667 740.333L543.333 740.667L542.667 740.333M225 741L226 742L225 741M304 741L305 742L304 741M507 741L508 742L507 741z"/>
<path style="fill:#377149; stroke:none;" d="M511 741L512 742L511 741M538 741L539 742L538 741z"/>
<path style="fill:#d3a670; stroke:none;" d="M539.667 741.333L540.333 741.667L539.667 741.333M298 742L299 743L298 742M505 742L506 743L505 742z"/>
<path style="fill:#377149; stroke:none;" d="M510 742L511 743L510 742M535 742L536 743L535 742z"/>
<path style="fill:#d3a670; stroke:none;" d="M536.667 742.333L537.333 742.667L536.667 742.333M292.667 743.333L293.333 743.667L292.667 743.333M503 743L504 744L503 743z"/>
<path style="fill:#377149; stroke:none;" d="M509 743L510 744L509 743M532 743L533 744L532 743z"/>
<path style="fill:#d3a670; stroke:none;" d="M533 743L534 744L533 743M202 757L217 747C211.809 739.231 204.334 752.808 202 757M222 744C216.596 747.142 211.317 752.357 212 759L215 758L222 744M287 744L288 745L287 744z"/>
<path style="fill:#377149; stroke:none;" d="M508 744L509 745L508 744M529.667 744.333L530.333 744.667L529.667 744.333z"/>
<path style="fill:#d3a670; stroke:none;" d="M531 744L532 745L531 744M206 745L207 746L206 745M281.667 745.333L282.333 745.667L281.667 745.333M500 745L501 746L500 745z"/>
<path style="fill:#377149; stroke:none;" d="M507 745L508 746L507 745M527.667 745.333L528.333 745.667L527.667 745.333z"/>
<path style="fill:#d3a670; stroke:none;" d="M646 745L647 746L646 745M737 745L738 746L737 745M276 746L277 747L276 746z"/>
<path style="fill:#377149; stroke:none;" d="M506 746L507 747L506 746M526 746L527 747L526 746z"/>
<path style="fill:#d3a670; stroke:none;" d="M270.667 747.333L271.333 747.667L270.667 747.333z"/>
<path style="fill:#377149; stroke:none;" d="M505 747L506 748L505 747M524 747L525 748L524 747z"/>
<path style="fill:#d3a670; stroke:none;" d="M525 747L526 748L525 747M645 747L646 748L645 747M264.667 748.333L265.333 748.667L264.667 748.333M504 748L503 750L504 748z"/>
<path style="fill:#377149; stroke:none;" d="M522 748L523 749L522 748z"/>
<path style="fill:#d3a670; stroke:none;" d="M523 748L524 749L523 748M737 748L737 757L738 757L737 748M258.667 749.333L259.333 749.667L258.667 749.333z"/>
<path style="fill:#377149; stroke:none;" d="M504 749L505 750L504 749M521 749L522 750L521 749z"/>
<path style="fill:#d3a670; stroke:none;" d="M252.667 750.333L253.333 750.667L252.667 750.333z"/>
<path style="fill:#377149; stroke:none;" d="M503 750L504 751L503 750M520 750L521 751L520 750z"/>
<path style="fill:#d3a670; stroke:none;" d="M248 751L249 752L248 751z"/>
<path style="fill:#377149; stroke:none;" d="M502 751L503 752L502 751z"/>
<path style="fill:#d3a670; stroke:none;" d="M519 751L520 752L519 751M242.667 752.333L243.333 752.667L242.667 752.333z"/>
<path style="fill:#377149; stroke:none;" d="M494 752L494 760L495 760L494 752z"/>
<path style="fill:#d3a670; stroke:none;" d="M501 752L502 753L501 752M518 752L519 753L518 752M643 752L644 753L643 752M202 753L203 754L202 753M236.667 753.333L237.333 753.667L236.667 753.333z"/>
<path style="fill:#377149; stroke:none;" d="M501 753L502 754L501 753z"/>
<path style="fill:#d3a670; stroke:none;" d="M517 753L518 754L517 753M231 754L232 755L231 754z"/>
<path style="fill:#377149; stroke:none;" d="M500 754L499 757L500 754z"/>
<path style="fill:#d3a670; stroke:none;" d="M516 754L517 755L516 754M642 754L643 755L642 754M224.667 755.333L225.333 755.667L224.667 755.333M499 755L500 756L499 755M515 755L516 756L515 755M219.667 756.333L220.333 756.667L219.667 756.333z"/>
<path style="fill:#377149; stroke:none;" d="M514 756L515 757L514 756z"/>
<path style="fill:#f9eeda; stroke:none;" d="M213 757L214 758L213 757z"/>
<path style="fill:#d3a670; stroke:none;" d="M498 757L499 758L498 757z"/>
<path style="fill:#377149; stroke:none;" d="M513 757L514 758L513 757M498 758L499 759L498 758M512 758L513 759L512 758z"/>
<path style="fill:#d3a670; stroke:none;" d="M211 759L212 760L211 759M497 759L498 760L497 759M512 759L513 760L512 759z"/>
<path style="fill:#377149; stroke:none;" d="M497 760L498 761L497 760M511 760L512 761L511 760z"/>
<path style="fill:#d3a670; stroke:none;" d="M496 761L497 762L496 761z"/>
<path style="fill:#377149; stroke:none;" d="M510 761L511 762L510 761z"/>
<path style="fill:#d3a670; stroke:none;" d="M639 761L640 762L639 761M510 762L511 763L510 762M495 763L496 764L495 763z"/>
<path style="fill:#377149; stroke:none;" d="M509 763L510 764L509 763z"/>
<path style="fill:#d3a670; stroke:none;" d="M638 763L639 764L638 763M211 764L212 765L211 764M509 764L510 765L509 764M212 765L213 766L212 765M221.667 765.333L222.333 765.667L221.667 765.333M225 765L226 766L225 765z"/>
<path style="fill:#377149; stroke:none;" d="M508 765L509 766L508 765z"/>
<path style="fill:#d3a670; stroke:none;" d="M214 766L214 767L217 767L214 766M508 766L509 767L508 766M226 767L227 768L226 767z"/>
<path style="fill:#377149; stroke:none;" d="M507 767L508 768L507 767z"/>
<path style="fill:#d3a670; stroke:none;" d="M507 768L508 769L507 768z"/>
<path style="fill:#377149; stroke:none;" d="M506.333 769.667L506.667 770.333L506.333 769.667z"/>
<path style="fill:#d3a670; stroke:none;" d="M228 770L229 771L228 770M635 770L636 771L635 770z"/>
<path style="fill:#377149; stroke:none;" d="M229 771L230 772L229 771z"/>
<path style="fill:#d3a670; stroke:none;" d="M506 771L507 772L506 771M229 772L230 773L229 772M634 772L635 773L634 772z"/>
<path style="fill:#377149; stroke:none;" d="M230 773L231 774L230 773M505.333 773.667L505.667 774.333L505.333 773.667M231 774L232 775L231 774z"/>
<path style="fill:#d3a670; stroke:none;" d="M231 775L232 776L231 775M505 775L506 776L505 775M736 775L737 776L736 775z"/>
<path style="fill:#377149; stroke:none;" d="M232 776L233 777L232 776M504 776L504 796L505 796L504 776z"/>
<path style="fill:#d3a670; stroke:none;" d="M232 777L233 778L232 777M632 777L633 778L632 777M736 777L737 778L736 777z"/>
<path style="fill:#377149; stroke:none;" d="M233 778L234 779L233 778z"/>
<path style="fill:#d3a670; stroke:none;" d="M631 779L632 780L631 779M736 779L737 780L736 779M234 780L235 781L234 780z"/>
<path style="fill:#377149; stroke:none;" d="M235 781L236 782L235 781z"/>
<path style="fill:#d3a670; stroke:none;" d="M736 781L736 789L737 789L736 781M235 782L236 783L235 782z"/>
<path style="fill:#377149; stroke:none;" d="M236 783L237 784L236 783M237 784L238 785L237 784z"/>
<path style="fill:#d3a670; stroke:none;" d="M629 784L630 785L629 784M237 785L238 786L237 785z"/>
<path style="fill:#377149; stroke:none;" d="M238 786L239 787L238 786z"/>
<path style="fill:#d3a670; stroke:none;" d="M628 786L629 787L628 786M238 787L239 788L238 787z"/>
<path style="fill:#377149; stroke:none;" d="M239 788L240 789L239 788M240 789L241 790L240 789z"/>
<path style="fill:#d3a670; stroke:none;" d="M627 789L628 790L627 789M753 789L754 790L753 789M755 789L755 790L758 790L755 789M240 790L241 791L240 790M680 790L681 791L680 790M763.667 790.333L764.333 790.667L763.667 790.333z"/>
<path style="fill:#377149; stroke:none;" d="M241 791L242 792L241 791z"/>
<path style="fill:#d3a670; stroke:none;" d="M769 791L770 792L769 791M241 792L242 793L241 792M626 792L627 793L626 792M676 792L677 793L676 792M774 792L775 793L774 792z"/>
<path style="fill:#377149; stroke:none;" d="M242 793L243 794L242 793z"/>
<path style="fill:#d3a670; stroke:none;" d="M675 793L676 794L675 793M777.667 793.333L778.333 793.667L777.667 793.333z"/>
<path style="fill:#377149; stroke:none;" d="M243 794L244 795L243 794z"/>
<path style="fill:#d3a670; stroke:none;" d="M674 794L675 795L674 794M781 794L782 795L781 794M243 795L244 796L243 795M625 795L626 796L625 795M673 795L674 796L673 795M682 795L683 796L682 795M784 795L785 796L784 795z"/>
<path style="fill:#377149; stroke:none;" d="M244 796L245 799L246 799L244 796z"/>
<path style="fill:#d3a670; stroke:none;" d="M504 796L504 799L505 799L504 796M787 796L788 797L787 796M244 797L245 798L244 797M683 797L684 798L683 797M624 798L625 799L624 798M792 798L793 799L792 798z"/>
<path style="fill:#377149; stroke:none;" d="M503 799L503 803L504 803L503 799z"/>
<path style="fill:#d3a670; stroke:none;" d="M246 800L247 801L246 800M668 800L669 801L668 800M797 800L798 801L797 800z"/>
<path style="fill:#377149; stroke:none;" d="M247 801L248 802L247 801z"/>
<path style="fill:#d3a670; stroke:none;" d="M623 801L624 802L623 801M799 801L800 802L799 801M247 802L248 803L247 802M685 802L686 803L685 802M801 802L802 803L801 802z"/>
<path style="fill:#377149; stroke:none;" d="M248 803L249 804L248 803z"/>
<path style="fill:#d3a670; stroke:none;" d="M503 803L504 804L503 803M665 803L666 804L665 803M803 803L804 804L803 803M811 803L812 804L811 803z"/>
<path style="fill:#377149; stroke:none;" d="M249 804L250 805L249 804M502 804L502 807L503 807L502 804z"/>
<path style="fill:#d3a670; stroke:none;" d="M664 804L665 805L664 804M686 804L687 805L686 804M805 804L806 805L805 804M815 804L816 805L815 804M249 805L250 806L249 805M622 805L623 806L622 805M663 805L664 806L663 805M810 805L811 806L810 805z"/>
<path style="fill:#377149; stroke:none;" d="M250 806L251 807L250 806z"/>
<path style="fill:#d3a670; stroke:none;" d="M662 806L663 807L662 806M250 807L251 808L250 807M502 807L503 808L502 807M661 807L661 810L662 810L661 807z"/>
<path style="fill:#377149; stroke:none;" d="M251 808L252 809L251 808M252 809L253 810L252 809M501 809L502 810L501 809z"/>
<path style="fill:#d3a670; stroke:none;" d="M621 809L622 810L621 809M691 809L692 810L691 809M824 809L825 810L824 809M252 810L253 811L252 810M501.333 810.667L501.667 811.333L501.333 810.667z"/>
<path style="fill:#377149; stroke:none;" d="M253 811L254 812L253 811M500.333 811.667L500.667 812.333L500.333 811.667z"/>
<path style="fill:#d3a670; stroke:none;" d="M253 812L254 813L253 812M695 812L696 813L695 812z"/>
<path style="fill:#09779b; stroke:none;" d="M888 914C888.684 898.062 892.693 881.745 895.246 866C895.891 862.024 899.323 851.098 896.933 847.728C894.42 844.184 885.829 844.049 882 842.1C868.118 835.03 854.544 826.98 841 819.281C837.169 817.103 829.007 810.453 824.39 813.071C812.35 819.899 832.694 826.02 828.953 832.852C825.774 838.657 820.344 832.846 816.043 833.241C811.271 833.679 803.545 848.355 806.071 852.57C808.7 856.958 820.367 858.258 825 859.579C839.651 863.756 864.719 866.231 875.671 877.326C885.269 887.049 876.78 906.733 888 914z"/>
<path style="fill:#d3a670; stroke:none;" d="M829 812L830 813L829 812z"/>
<path style="fill:#377149; stroke:none;" d="M254 813L255 814L254 813z"/>
<path style="fill:#d3a670; stroke:none;" d="M500 813L501 814L500 813M620 813L621 814L620 813M662 813L663 814L662 813z"/>
<path style="fill:#377149; stroke:none;" d="M830 813L831 814L830 813z"/>
<path style="fill:#d3a670; stroke:none;" d="M831 813L832 814L831 813z"/>
<path style="fill:#377149; stroke:none;" d="M255 814L256 815L255 814z"/>
<path style="fill:#d3a670; stroke:none;" d="M698 814L699 815L698 814z"/>
<path style="fill:#377149; stroke:none;" d="M832 814L833 815L832 814z"/>
<path style="fill:#d3a670; stroke:none;" d="M255 815L256 816L255 815z"/>
<path style="fill:#377149; stroke:none;" d="M499 815L500 816L499 815z"/>
<path style="fill:#d3a670; stroke:none;" d="M700 815L701 816L700 815z"/>
<path style="fill:#377149; stroke:none;" d="M834 815L835 816L834 815M256 816L257 817L256 816z"/>
<path style="fill:#d3a670; stroke:none;" d="M499 816L500 817L499 816z"/>
<path style="fill:#377149; stroke:none;" d="M836 816L837 817L836 816z"/>
<path style="fill:#d3a670; stroke:none;" d="M256 817L257 818L256 817z"/>
<path style="fill:#377149; stroke:none;" d="M498.333 817.667L498.667 818.333L498.333 817.667M837 817L838 818L837 817z"/>
<path style="fill:#d3a670; stroke:none;" d="M838 817L839 818L838 817z"/>
<path style="fill:#377149; stroke:none;" d="M257 818L258 819L257 818z"/>
<path style="fill:#d3a670; stroke:none;" d="M619 818L620 819L619 818z"/>
<path style="fill:#377149; stroke:none;" d="M839 818L840 819L839 818z"/>
<path style="fill:#d3a670; stroke:none;" d="M840 818L841 819L840 818z"/>
<path style="fill:#377149; stroke:none;" d="M258 819L259 820L258 819z"/>
<path style="fill:#d3a670; stroke:none;" d="M499.333 819.667L499.667 820.333L499.333 819.667M663 819L663 822L664 822L663 819z"/>
<path style="fill:#377149; stroke:none;" d="M841 819L842 820L841 819z"/>
<path style="fill:#d3a670; stroke:none;" d="M258 820L259 821L258 820z"/>
<path style="fill:#377149; stroke:none;" d="M843 820L844 821L843 820M259 821L260 822L259 821M499 821L499 825L500 825L499 821z"/>
<path style="fill:#d3a670; stroke:none;" d="M712 821L713 822L712 821z"/>
<path style="fill:#377149; stroke:none;" d="M844.667 821.333L845.333 821.667L844.667 821.333z"/>
<path style="fill:#d3a670; stroke:none;" d="M259 822L260 823L259 822M715 822L716 823L715 822z"/>
<path style="fill:#377149; stroke:none;" d="M846 822L847 823L846 822z"/>
<path style="fill:#d3a670; stroke:none;" d="M847 822L848 823L847 822z"/>
<path style="fill:#377149; stroke:none;" d="M260 823L261 824L260 823z"/>
<path style="fill:#d3a670; stroke:none;" d="M718 823L719 824L718 823z"/>
<path style="fill:#377149; stroke:none;" d="M848 823L849 824L848 823z"/>
<path style="fill:#d3a670; stroke:none;" d="M849 823L850 824L849 823z"/>
<path style="fill:#377149; stroke:none;" d="M261 824L262 825L261 824z"/>
<path style="fill:#d3a670; stroke:none;" d="M618 824L619 825L618 824M721 824L722 825L721 824z"/>
<path style="fill:#377149; stroke:none;" d="M850 824L851 825L850 824z"/>
<path style="fill:#d3a670; stroke:none;" d="M261 825L262 826L261 825M500.333 825.667L500.667 826.333L500.333 825.667M724 825L725 826L724 825z"/>
<path style="fill:#377149; stroke:none;" d="M852 825L853 826L852 825M262 826L263 827L262 826z"/>
<path style="fill:#d3a670; stroke:none;" d="M728 826L729 827L728 826z"/>
<path style="fill:#377149; stroke:none;" d="M854 826L855 827L854 826z"/>
<path style="fill:#d3a670; stroke:none;" d="M262 827L263 828L262 827z"/>
<path style="fill:#377149; stroke:none;" d="M500 827L500 831L501 831L500 827z"/>
<path style="fill:#d3a670; stroke:none;" d="M731 827L732 828L731 827z"/>
<path style="fill:#377149; stroke:none;" d="M855 827L856 828L855 827z"/>
<path style="fill:#d3a670; stroke:none;" d="M856 827L857 828L856 827z"/>
<path style="fill:#377149; stroke:none;" d="M263 828L264 829L263 828z"/>
<path style="fill:#d3a670; stroke:none;" d="M734.667 828.333L735.333 828.667L734.667 828.333z"/>
<path style="fill:#377149; stroke:none;" d="M857 828L858 829L857 828z"/>
<path style="fill:#d3a670; stroke:none;" d="M858 828L859 829L858 828z"/>
<path style="fill:#377149; stroke:none;" d="M264 829L265 830L264 829z"/>
<path style="fill:#d3a670; stroke:none;" d="M738 829L739 830L738 829z"/>
<path style="fill:#377149; stroke:none;" d="M859 829L860 830L859 829z"/>
<path style="fill:#d3a670; stroke:none;" d="M264 830L265 831L264 830M501.333 830.667L501.667 831.333L501.333 830.667M617.333 830.667L617.667 831.333L617.333 830.667M741 830L742 831L741 830z"/>
<path style="fill:#377149; stroke:none;" d="M860.667 830.333L861.333 830.667L860.667 830.333M265 831L266 832L265 831z"/>
<path style="fill:#d3a670; stroke:none;" d="M745 831L746 832L745 831M863 831L864 832L863 831M265 832L266 833L265 832z"/>
<path style="fill:#377149; stroke:none;" d="M501 832L501 835L502 835L501 832z"/>
<path style="fill:#d3a670; stroke:none;" d="M748 832L749 833L748 832z"/>
<path style="fill:#377149; stroke:none;" d="M864 832L865 833L864 832z"/>
<path style="fill:#d3a670; stroke:none;" d="M865 832L866 833L865 832z"/>
<path style="fill:#377149; stroke:none;" d="M266 833L267 834L266 833M486 833L487 834L486 833z"/>
<path style="fill:#f9eeda; stroke:none;" d="M487 833C469.542 846.407 441.908 849.067 421 855C432.418 870.513 452.386 882.571 467 895.13C476.57 903.355 485.281 912.979 498 916C503.109 896.691 495.895 875.247 492.424 856C491.171 849.048 491.357 838.663 487 833z"/>
<path style="fill:#d3a670; stroke:none;" d="M488 833L489 834L488 833z"/>
<path style="fill:#377149; stroke:none;" d="M866 833L867 834L866 833z"/>
<path style="fill:#d3a670; stroke:none;" d="M867 833L868 834L867 833z"/>
<path style="fill:#377149; stroke:none;" d="M267 834L268 835L267 834M484 834L485 835L484 834z"/>
<path style="fill:#d3a670; stroke:none;" d="M485 834L486 835L485 834z"/>
<path style="fill:#377149; stroke:none;" d="M489 834L489 838L490 838L489 834z"/>
<path style="fill:#d3a670; stroke:none;" d="M755 834L756 835L755 834z"/>
<path style="fill:#377149; stroke:none;" d="M868 834L869 835L868 834z"/>
<path style="fill:#d3a670; stroke:none;" d="M267 835L268 836L267 835z"/>
<path style="fill:#377149; stroke:none;" d="M483 835L484 836L483 835z"/>
<path style="fill:#d3a670; stroke:none;" d="M758 835L759 836L758 835z"/>
<path style="fill:#377149; stroke:none;" d="M870 835L871 836L870 835M268 836L269 837L268 836M481 836L482 837L481 836z"/>
<path style="fill:#d3a670; stroke:none;" d="M482 836L483 837L482 836M502.333 836.667L502.667 837.333L502.333 836.667M762 836L763 837L762 836z"/>
<path style="fill:#377149; stroke:none;" d="M872 836L873 837L872 836z"/>
<path style="fill:#d3a670; stroke:none;" d="M268 837L269 838L268 837z"/>
<path style="fill:#377149; stroke:none;" d="M480 837L481 838L480 837z"/>
<path style="fill:#d3a670; stroke:none;" d="M616 837L617 838L616 837M765 837L766 838L765 837z"/>
<path style="fill:#377149; stroke:none;" d="M873 837L874 838L873 837z"/>
<path style="fill:#d3a670; stroke:none;" d="M874 837L875 838L874 837z"/>
<path style="fill:#377149; stroke:none;" d="M269 838L270 839L269 838M477.667 838.333L478.333 838.667L477.667 838.333z"/>
<path style="fill:#d3a670; stroke:none;" d="M479 838L480 839L479 838M489.333 838.667L489.667 839.333L489.333 838.667z"/>
<path style="fill:#377149; stroke:none;" d="M502 838L502 842L503 842L502 838z"/>
<path style="fill:#d3a670; stroke:none;" d="M768.667 838.333L769.333 838.667L768.667 838.333z"/>
<path style="fill:#377149; stroke:none;" d="M875 838L876 839L875 838z"/>
<path style="fill:#d3a670; stroke:none;" d="M876 838L877 839L876 838z"/>
<path style="fill:#377149; stroke:none;" d="M270 839L271 840L270 839M475 839L476 840L475 839z"/>
<path style="fill:#d3a670; stroke:none;" d="M476 839L477 840L476 839M772 839L773 840L772 839z"/>
<path style="fill:#377149; stroke:none;" d="M877 839L878 840L877 839z"/>
<path style="fill:#d3a670; stroke:none;" d="M270 840L271 841L270 840z"/>
<path style="fill:#377149; stroke:none;" d="M470 840L470 841L473 841L470 840z"/>
<path style="fill:#d3a670; stroke:none;" d="M473 840L474 841L473 840z"/>
<path style="fill:#377149; stroke:none;" d="M490 840L490 844L491 844L490 840z"/>
<path style="fill:#d3a670; stroke:none;" d="M663.333 840.667L663.667 841.333L663.333 840.667M775 840L776 841L775 840z"/>
<path style="fill:#377149; stroke:none;" d="M879 840L880 841L879 840M271 841L272 842L271 841M467.667 841.333L468.333 841.667L467.667 841.333z"/>
<path style="fill:#d3a670; stroke:none;" d="M469.667 841.333L470.333 841.667L469.667 841.333M779 841L780 842L779 841z"/>
<path style="fill:#377149; stroke:none;" d="M880 841L881 842L880 841z"/>
<path style="fill:#d3a670; stroke:none;" d="M881 841L882 842L881 841z"/>
<path style="fill:#377149; stroke:none;" d="M464.667 842.333L465.333 842.667L464.667 842.333z"/>
<path style="fill:#d3a670; stroke:none;" d="M466 842L467 843L466 842M503 842L504 843L503 842M782 842L783 843L782 842z"/>
<path style="fill:#377149; stroke:none;" d="M882 842L883 843L882 842z"/>
<path style="fill:#d3a670; stroke:none;" d="M883 842L884 843L883 842z"/>
<path style="fill:#377149; stroke:none;" d="M272 843L273 844L272 843M460.667 843.333L461.333 843.667L460.667 843.333z"/>
<path style="fill:#d3a670; stroke:none;" d="M462 843L463 844L462 843z"/>
<path style="fill:#377149; stroke:none;" d="M503 843L503 847L504 847L503 843z"/>
<path style="fill:#d3a670; stroke:none;" d="M615.333 843.667L615.667 844.333L615.333 843.667M785 843L786 844L785 843z"/>
<path style="fill:#377149; stroke:none;" d="M884.667 843.333L885.333 843.667L884.667 843.333z"/>
<path style="fill:#d3a670; stroke:none;" d="M886 843L887 844L886 843z"/>
<path style="fill:#377149; stroke:none;" d="M273 844L274 845L273 844M456.667 844.333L457.333 844.667L456.667 844.333z"/>
<path style="fill:#d3a670; stroke:none;" d="M458.667 844.333L459.333 844.667L458.667 844.333M490 844L491 845L490 844M789 844L790 845L789 844z"/>
<path style="fill:#377149; stroke:none;" d="M888.667 844.333L889.333 844.667L888.667 844.333z"/>
<path style="fill:#d3a670; stroke:none;" d="M890 844L891 845L890 844M273 845L274 846L273 845z"/>
<path style="fill:#377149; stroke:none;" d="M453.667 845.333L454.333 845.667L453.667 845.333z"/>
<path style="fill:#d3a670; stroke:none;" d="M455 845L456 846L455 845M790 845L791 846L790 845z"/>
<path style="fill:#377149; stroke:none;" d="M892.667 845.333L893.333 845.667L892.667 845.333z"/>
<path style="fill:#d3a670; stroke:none;" d="M894.667 845.333L895.333 845.667L894.667 845.333z"/>
<path style="fill:#377149; stroke:none;" d="M274 846L275 847L274 846M448 846L448 847L451 847L448 846z"/>
<path style="fill:#d3a670; stroke:none;" d="M451 846L452 847L451 846z"/>
<path style="fill:#377149; stroke:none;" d="M491 846L491 849L492 849L491 846M896 846L896 847L895.08 866L888 914L885 913L892 926L894 926C899.338 904.332 900.773 883.942 898 862L904 863L907 848L896 846z"/>
<path style="fill:#d3a670; stroke:none;" d="M900 846L901 847L900 846z"/>
<path style="fill:#377149; stroke:none;" d="M446 847L447 848L446 847z"/>
<path style="fill:#d3a670; stroke:none;" d="M447.667 847.333L448.333 847.667L447.667 847.333M504.333 847.667L504.667 848.333L504.333 847.667M662 847L663 848L662 847M789 847L790 848L789 847M905 847L906 848L905 847z"/>
<path style="fill:#377149; stroke:none;" d="M275 848L276 849L275 848M442.667 848.333L443.333 848.667L442.667 848.333z"/>
<path style="fill:#d3a670; stroke:none;" d="M444 848L445 849L444 848z"/>
<path style="fill:#377149; stroke:none;" d="M276 849L277 850L276 849M438.667 849.333L439.333 849.667L438.667 849.333z"/>
<path style="fill:#d3a670; stroke:none;" d="M440 849L441 850L440 849M491.333 849.667L491.667 850.333L491.333 849.667z"/>
<path style="fill:#377149; stroke:none;" d="M504 849L505 858L506 858L504 849z"/>
<path style="fill:#d3a670; stroke:none;" d="M906.333 849.667L906.667 850.333L906.333 849.667M276 850L277 851L276 850z"/>
<path style="fill:#377149; stroke:none;" d="M434.667 850.333L435.333 850.667L434.667 850.333z"/>
<path style="fill:#d3a670; stroke:none;" d="M436.667 850.333L437.333 850.667L436.667 850.333M614 850L615 851L614 850z"/>
<path style="fill:#377149; stroke:none;" d="M277 851L278 852L277 851M431.667 851.333L432.333 851.667L431.667 851.333z"/>
<path style="fill:#d3a670; stroke:none;" d="M433 851L434 852L433 851M794 851L795 852L794 851z"/>
<path style="fill:#377149; stroke:none;" d="M278 852L279 853L278 852M427.667 852.333L428.333 852.667L427.667 852.333z"/>
<path style="fill:#d3a670; stroke:none;" d="M429 852L430 853L429 852z"/>
<path style="fill:#377149; stroke:none;" d="M492 852L492 855L493 855L492 852z"/>
<path style="fill:#d3a670; stroke:none;" d="M661 852L662 853L661 852M278 853L279 854L278 853z"/>
<path style="fill:#377149; stroke:none;" d="M423.667 853.333L424.333 853.667L423.667 853.333z"/>
<path style="fill:#d3a670; stroke:none;" d="M425.667 853.333L426.333 853.667L425.667 853.333M505 853L506 854L505 853M801 853L802 854L801 853z"/>
<path style="fill:#377149; stroke:none;" d="M279 854L280 855L279 854M421 854L422 855L421 854z"/>
<path style="fill:#d3a670; stroke:none;" d="M422 854L423 855L422 854M805 854L806 855L805 854M420 855L421 856L420 855M492.333 855.667L492.667 856.333L492.333 855.667M660 855L661 856L660 855M809 855L810 856L809 855z"/>
<path style="fill:#377149; stroke:none;" d="M810.667 855.333L811.333 855.667L810.667 855.333z"/>
<path style="fill:#d3a670; stroke:none;" d="M280 856L281 857L280 856z"/>
<path style="fill:#377149; stroke:none;" d="M413 856L413 857L417 858L417 857L413 856z"/>
<path style="fill:#d3a670; stroke:none;" d="M421 856L422 857L421 856z"/>
<path style="fill:#377149; stroke:none;" d="M493 856L493 860L494 860L493 856z"/>
<path style="fill:#d3a670; stroke:none;" d="M613 856L613 859L614 859L613 856M812 856L813 857L812 856z"/>
<path style="fill:#377149; stroke:none;" d="M813.667 856.333L814.333 856.667L813.667 856.333z"/>
<path style="fill:#d3a670; stroke:none;" d="M905 856L906 857L905 856z"/>
<path style="fill:#377149; stroke:none;" d="M281 857L282 858L281 857M409.667 857.333L410.333 857.667L409.667 857.333z"/>
<path style="fill:#d3a670; stroke:none;" d="M411 857L412 858L411 857M415 857L416 858L415 857M422 857L423 858L422 857M815 857L816 858L815 857z"/>
<path style="fill:#377149; stroke:none;" d="M816.667 857.333L817.333 857.667L816.667 857.333M282 858L283 859L282 858M405.667 858.333L406.333 858.667L405.667 858.333z"/>
<path style="fill:#d3a670; stroke:none;" d="M407 858L408 859L407 858z"/>
<path style="fill:#377149; stroke:none;" d="M417 858L418 859L417 858M423 858L424 859L423 858z"/>
<path style="fill:#d3a670; stroke:none;" d="M506.333 858.667L506.667 859.333L506.333 858.667M819 858L820 859L819 858z"/>
<path style="fill:#377149; stroke:none;" d="M820.667 858.333L821.333 858.667L820.667 858.333z"/>
<path style="fill:#d3a670; stroke:none;" d="M282 859L283 860L282 859z"/>
<path style="fill:#377149; stroke:none;" d="M401.667 859.333L402.333 859.667L401.667 859.333z"/>
<path style="fill:#d3a670; stroke:none;" d="M403.667 859.333L404.333 859.667L403.667 859.333z"/>
<path style="fill:#377149; stroke:none;" d="M418 859L419 860L418 859M424 859L425 860L424 859z"/>
<path style="fill:#d3a670; stroke:none;" d="M659 859L660 860L659 859M822.667 859.333L823.333 859.667L822.667 859.333z"/>
<path style="fill:#377149; stroke:none;" d="M824 859L825 860L824 859M283 860L284 861L283 860M397 860L397 861L400 861L397 860z"/>
<path style="fill:#d3a670; stroke:none;" d="M400 860L401 861L400 860z"/>
<path style="fill:#377149; stroke:none;" d="M419 860L420 861L419 860M425 860L427 862L425 860z"/>
<path style="fill:#d3a670; stroke:none;" d="M426 860L427 861L426 860M493.333 860.667L493.667 861.333L493.333 860.667z"/>
<path style="fill:#377149; stroke:none;" d="M506 860L506 864L507 864L506 860z"/>
<path style="fill:#d3a670; stroke:none;" d="M826 860L827 861L826 860z"/>
<path style="fill:#377149; stroke:none;" d="M827.667 860.333L828.333 860.667L827.667 860.333M284 861L285 862L284 861M394.667 861.333L395.333 861.667L394.667 861.333z"/>
<path style="fill:#d3a670; stroke:none;" d="M396.667 861.333L397.333 861.667L396.667 861.333M420 861L421 862L420 861M427 861L428 862L427 861M829 861L830 862L829 861z"/>
<path style="fill:#377149; stroke:none;" d="M830.667 861.333L831.333 861.667L830.667 861.333M285 862L286 863L285 862M390.667 862.333L391.333 862.667L390.667 862.333z"/>
<path style="fill:#d3a670; stroke:none;" d="M392.667 862.333L393.333 862.667L392.667 862.333M421 862L422 863L421 862z"/>
<path style="fill:#377149; stroke:none;" d="M422 862L423 863L422 862z"/>
<path style="fill:#d3a670; stroke:none;" d="M428 862L429 863L428 862M833 862L834 863L833 862z"/>
<path style="fill:#377149; stroke:none;" d="M834.667 862.333L835.333 862.667L834.667 862.333z"/>
<path style="fill:#d3a670; stroke:none;" d="M902 862L903 863L902 862M904 862L905 863L904 862M285 863L286 864L285 863z"/>
<path style="fill:#377149; stroke:none;" d="M387.667 863.333L388.333 863.667L387.667 863.333z"/>
<path style="fill:#d3a670; stroke:none;" d="M389 863L390 864L389 863z"/>
<path style="fill:#377149; stroke:none;" d="M423 863L424 864L423 863M429 863L430 864L429 863M494 863L494 866L495 866L494 863z"/>
<path style="fill:#d3a670; stroke:none;" d="M612 863L613 864L612 863M836 863L837 864L836 863z"/>
<path style="fill:#377149; stroke:none;" d="M837.667 863.333L838.333 863.667L837.667 863.333M286 864L287 865L286 864M383.667 864.333L384.333 864.667L383.667 864.333z"/>
<path style="fill:#d3a670; stroke:none;" d="M385 864L386 865L385 864z"/>
<path style="fill:#377149; stroke:none;" d="M424 864L425 865L424 864M430 864L431 865L430 864z"/>
<path style="fill:#d3a670; stroke:none;" d="M507.333 864.667L507.667 865.333L507.333 864.667M657 864L658 865L657 864M840 864L841 865L840 864z"/>
<path style="fill:#377149; stroke:none;" d="M841 864L842 865L841 864M287 865L288 866L287 865M380.667 865.333L381.333 865.667L380.667 865.333z"/>
<path style="fill:#d3a670; stroke:none;" d="M382 865L383 866L382 865z"/>
<path style="fill:#377149; stroke:none;" d="M425 865L426 866L425 865M431 865L434 868L431 865z"/>
<path style="fill:#d3a670; stroke:none;" d="M432 865L433 866L432 865M843 865L844 866L843 865z"/>
<path style="fill:#377149; stroke:none;" d="M844.667 865.333L845.333 865.667L844.667 865.333z"/>
<path style="fill:#d3a670; stroke:none;" d="M898 865L899 866L898 865z"/>
<path style="fill:#377149; stroke:none;" d="M288 866L289 867L288 866M376.667 866.333L377.333 866.667L376.667 866.333z"/>
<path style="fill:#d3a670; stroke:none;" d="M378 866L379 867L378 866M426 866L427 867L426 866M433 866L434 867L433 866M494.333 866.667L494.667 867.333L494.333 866.667z"/>
<path style="fill:#377149; stroke:none;" d="M507 866L507 869L508 869L507 866z"/>
<path style="fill:#d3a670; stroke:none;" d="M847 866L848 867L847 866z"/>
<path style="fill:#377149; stroke:none;" d="M848 866L849 867L848 866z"/>
<path style="fill:#d3a670; stroke:none;" d="M288 867L289 868L288 867z"/>
<path style="fill:#377149; stroke:none;" d="M372.667 867.333L373.333 867.667L372.667 867.333z"/>
<path style="fill:#d3a670; stroke:none;" d="M374.667 867.333L375.333 867.667L374.667 867.333M427 867L429 869L427 867z"/>
<path style="fill:#377149; stroke:none;" d="M428 867L429 868L428 867z"/>
<path style="fill:#d3a670; stroke:none;" d="M434 867L435 868L434 867M850 867L851 868L850 867z"/>
<path style="fill:#377149; stroke:none;" d="M851.667 867.333L852.333 867.667L851.667 867.333z"/>
<path style="fill:#d3a670; stroke:none;" d="M289 868L290 869L289 868z"/>
<path style="fill:#377149; stroke:none;" d="M369.667 868.333L370.333 868.667L369.667 868.333z"/>
<path style="fill:#d3a670; stroke:none;" d="M371 868L372 869L371 868z"/>
<path style="fill:#377149; stroke:none;" d="M429 868L430 869L429 868M435 868L436 869L435 868M495 868L495 872L496 872L495 868z"/>
<path style="fill:#d3a670; stroke:none;" d="M854 868L855 869L854 868z"/>
<path style="fill:#377149; stroke:none;" d="M855 868L856 869L855 868M290 869L291 870L290 869M365.667 869.333L366.333 869.667L365.667 869.333z"/>
<path style="fill:#d3a670; stroke:none;" d="M367 869L368 870L367 869z"/>
<path style="fill:#377149; stroke:none;" d="M430 869L431 870L430 869M436 869L437 870L436 869z"/>
<path style="fill:#d3a670; stroke:none;" d="M611 869L611 872L612 872L611 869M655 869L656 870L655 869M857 869L858 870L857 869z"/>
<path style="fill:#377149; stroke:none;" d="M858.667 869.333L859.333 869.667L858.667 869.333M291 870L292 871L291 870M361.667 870.333L362.333 870.667L361.667 870.333z"/>
<path style="fill:#d3a670; stroke:none;" d="M363.667 870.333L364.333 870.667L363.667 870.333z"/>
<path style="fill:#377149; stroke:none;" d="M431 870L432 871L431 870M437 870L438 871L437 870z"/>
<path style="fill:#d3a670; stroke:none;" d="M508 870L509 871L508 870M861 870L862 871L861 870z"/>
<path style="fill:#377149; stroke:none;" d="M862.667 870.333L863.333 870.667L862.667 870.333M292 871L293 872L292 871M358.667 871.333L359.333 871.667L358.667 871.333z"/>
<path style="fill:#d3a670; stroke:none;" d="M360 871L361 872L360 871z"/>
<path style="fill:#377149; stroke:none;" d="M432 871L432 872L435 873L432 871M438 871L439 872L438 871z"/>
<path style="fill:#d3a670; stroke:none;" d="M439 871L440 872L439 871z"/>
<path style="fill:#377149; stroke:none;" d="M508 871L508 875L509 875L508 871z"/>
<path style="fill:#d3a670; stroke:none;" d="M864 871L865 872L864 871z"/>
<path style="fill:#377149; stroke:none;" d="M865.667 871.333L866.333 871.667L865.667 871.333M293 872L294 873L293 872M354.667 872.333L355.333 872.667L354.667 872.333z"/>
<path style="fill:#d3a670; stroke:none;" d="M356 872L357 873L356 872M433 872L434 873L433 872M440 872L441 873L440 872M495.333 872.667L495.667 873.333L495.333 872.667M654 872L655 873L654 872M867 872L868 873L867 872z"/>
<path style="fill:#377149; stroke:none;" d="M868.667 872.333L869.333 872.667L868.667 872.333z"/>
<path style="fill:#d3a670; stroke:none;" d="M899.333 872.667L899.667 873.333L899.333 872.667M233.667 873.333L234.333 873.667L233.667 873.333z"/>
<path style="fill:#377149; stroke:none;" d="M178 956C149.41 956 109.337 948.659 85 966.761C48.6968 993.764 60.6927 1051.49 104 1062.84C123.617 1067.99 148.747 1064 169 1064L302 1064L733 1064L878 1064C899.158 1064 926.353 1068.61 946 1059.69C986.268 1041.4 987.053 983.55 949 962.515C936.343 955.518 921.983 956 908 956L849 956L849 947L848 947L845 956L818 956L818 918L788 953L788 909L787 909L770 950L769 950L769 918L739 953L739 909L738 909L722 947L721 947L721 918L713 928L712 928L711 923L710 923C709.893 934.773 698.852 944.983 691 953L691 909L690 909L671 951L663 923L662 923L662 956L628 955L623 984C601.317 986.74 573.535 987.998 552 984L552 982C566.021 976.868 590.061 973.004 593 956L469 956L469 918L468 918L439 953L439 909L438 909L420 951L419 951L412 926L411 926L411 956L308 956C309.848 932.59 305.993 919.129 296 898L295 898C291.758 904.936 280.378 909.538 279.133 917.001C278.225 922.442 283.554 930.145 284.049 936C285.622 954.574 274.141 971.673 257 978.649C215.634 995.483 182.977 938.499 215.039 909.289C225.077 900.145 238.733 895.967 252 899.378C256.604 900.562 263.105 905.759 267.7 905.212C274.483 904.405 280.834 893.199 287 890C261.094 862.763 214.051 870.319 191.301 897C177.673 912.983 173.03 935.794 178 956z"/>
<path style="fill:#d3a670; stroke:none;" d="M250 873L250 874L253 874L250 873z"/>
<path style="fill:#377149; stroke:none;" d="M294 873L295 874L294 873M351 873L352 874L351 873z"/>
<path style="fill:#d3a670; stroke:none;" d="M352.667 873.333L353.333 873.667L352.667 873.333z"/>
<path style="fill:#377149; stroke:none;" d="M435 873L436 874L435 873z"/>
<path style="fill:#d3a670; stroke:none;" d="M441 873L442 874L441 873z"/>
<path style="fill:#377149; stroke:none;" d="M496 873L496 877L497 877L496 873z"/>
<path style="fill:#d3a670; stroke:none;" d="M870 873L871 874L870 873M228 874L229 875L228 874M257 874L258 875L257 874M295 874L296 875L295 874z"/>
<path style="fill:#377149; stroke:none;" d="M296 874L297 875L296 874M346 874L346 875L349 875L346 874z"/>
<path style="fill:#d3a670; stroke:none;" d="M349 874L350 875L349 874z"/>
<path style="fill:#377149; stroke:none;" d="M436 874L437 875L436 874M442 874L443 875L442 874z"/>
<path style="fill:#d3a670; stroke:none;" d="M653 874L654 875L653 874z"/>
<path style="fill:#377149; stroke:none;" d="M872 874L873 875L872 874z"/>
<path style="fill:#d3a670; stroke:none;" d="M224 875L225 876L224 875M261 875L262 876L261 875z"/>
<path style="fill:#377149; stroke:none;" d="M297 875L298 876L297 875M343.667 875.333L344.333 875.667L343.667 875.333z"/>
<path style="fill:#d3a670; stroke:none;" d="M345 875L346 876L345 875z"/>
<path style="fill:#377149; stroke:none;" d="M437 875L438 876L437 875M443 875L444 876L443 875z"/>
<path style="fill:#d3a670; stroke:none;" d="M509.333 875.667L509.667 876.333L509.333 875.667M610.333 875.667L610.667 876.333L610.333 875.667M873 875L874 876L873 875M221 876L222 877L221 876M264 876L265 877L264 876z"/>
<path style="fill:#377149; stroke:none;" d="M298 876L299 877L298 876M340.667 876.333L341.333 876.667L340.667 876.333z"/>
<path style="fill:#d3a670; stroke:none;" d="M342 876L343 877L342 876z"/>
<path style="fill:#377149; stroke:none;" d="M438 876L438 877L443 880L438 876M444 876L445 877L444 876M875 876L876 877L875 876z"/>
<path style="fill:#d3a670; stroke:none;" d="M218 877L219 878L218 877z"/>
<path style="fill:#377149; stroke:none;" d="M336.667 877.333L337.333 877.667L336.667 877.333z"/>
<path style="fill:#d3a670; stroke:none;" d="M338 877L339 878L338 877M439 877L440 878L439 877z"/>
<path style="fill:#377149; stroke:none;" d="M445 877L446 878L445 877z"/>
<path style="fill:#d3a670; stroke:none;" d="M446 877L447 878L446 877M496.333 877.667L496.667 878.333L496.333 877.667z"/>
<path style="fill:#377149; stroke:none;" d="M509 877L509 880L510 880L509 877z"/>
<path style="fill:#d3a670; stroke:none;" d="M652 877L653 878L652 877z"/>
<path style="fill:#377149; stroke:none;" d="M876 877L877 878L876 877z"/>
<path style="fill:#d3a670; stroke:none;" d="M269 878L270 879L269 878z"/>
<path style="fill:#377149; stroke:none;" d="M298 878L299 879L298 878M332.667 878.333L333.333 878.667L332.667 878.333z"/>
<path style="fill:#d3a670; stroke:none;" d="M334.667 878.333L335.333 878.667L334.667 878.333M440 878L441 879L440 878M447 878L448 879L447 878M876 878L877 879L876 878M271 879L272 880L271 879z"/>
<path style="fill:#377149; stroke:none;" d="M297 879L298 880L297 879M328 879L328 880L331 880L328 879z"/>
<path style="fill:#d3a670; stroke:none;" d="M331 879L332 880L331 879M441 879L442 880L441 879z"/>
<path style="fill:#377149; stroke:none;" d="M448 879L449 880L448 879M497 879L497 883L498 883L497 879z"/>
<path style="fill:#d3a670; stroke:none;" d="M651 879L652 880L651 879M877 879L878 880L877 879M900.333 879.667L900.667 880.333L900.333 879.667M273 880L274 881L273 880z"/>
<path style="fill:#377149; stroke:none;" d="M296 880L297 881L296 880M325.667 880.333L326.333 880.667L325.667 880.333z"/>
<path style="fill:#d3a670; stroke:none;" d="M327 880L328 881L327 880z"/>
<path style="fill:#377149; stroke:none;" d="M443 880L444 881L443 880M449 880L450 881L449 880M878 880L879 881L878 880z"/>
<path style="fill:#d3a670; stroke:none;" d="M275 881L276 882L275 881z"/>
<path style="fill:#377149; stroke:none;" d="M295 881L296 882L295 881M321.667 881.333L322.333 881.667L321.667 881.333z"/>
<path style="fill:#d3a670; stroke:none;" d="M323.667 881.333L324.333 881.667L323.667 881.333z"/>
<path style="fill:#377149; stroke:none;" d="M444 881L445 882L444 881M450 881L451 882L450 881z"/>
<path style="fill:#d3a670; stroke:none;" d="M510.333 881.667L510.667 882.333L510.333 881.667M878 881L879 882L878 881z"/>
<path style="fill:#377149; stroke:none;" d="M294 882L295 883L294 882M317 882L317 883L320 883L317 882z"/>
<path style="fill:#d3a670; stroke:none;" d="M320 882L321 883L320 882z"/>
<path style="fill:#377149; stroke:none;" d="M445 882L446 883L445 882M451 882L452 883L451 882z"/>
<path style="fill:#d3a670; stroke:none;" d="M609.333 882.667L609.667 883.333L609.333 882.667M650 882L651 883L650 882z"/>
<path style="fill:#377149; stroke:none;" d="M879 882L880 883L879 882z"/>
<path style="fill:#d3a670; stroke:none;" d="M206 883L207 884L206 883z"/>
<path style="fill:#377149; stroke:none;" d="M293 883L294 884L293 883M314.667 883.333L315.333 883.667L314.667 883.333z"/>
<path style="fill:#d3a670; stroke:none;" d="M316 883L317 884L316 883M446 883L448 885L446 883z"/>
<path style="fill:#377149; stroke:none;" d="M447 883L448 884L447 883z"/>
<path style="fill:#d3a670; stroke:none;" d="M453 883L454 884L453 883M497.333 883.667L497.667 884.333L497.333 883.667z"/>
<path style="fill:#377149; stroke:none;" d="M510 883L510 887L511 887L510 883z"/>
<path style="fill:#d3a670; stroke:none;" d="M879 883L880 884L879 883M280 884L281 885L280 884z"/>
<path style="fill:#377149; stroke:none;" d="M292 884L293 885L292 884M311 884L312 885L311 884z"/>
<path style="fill:#d3a670; stroke:none;" d="M312.667 884.333L313.333 884.667L312.667 884.333z"/>
<path style="fill:#377149; stroke:none;" d="M448 884L449 885L448 884z"/>
<path style="fill:#d3a670; stroke:none;" d="M454 884L455 885L454 884M203 885L204 886L203 885M290 885L287 889L290 885z"/>
<path style="fill:#377149; stroke:none;" d="M291 885L292 886L291 885M309 885L310 886L309 885M449 885L450 886L449 885M455 885L456 886L455 885M498 885L498 888L499 888L498 885M880 885L881 886L880 885z"/>
<path style="fill:#d3a670; stroke:none;" d="M202 886L203 887L202 886z"/>
<path style="fill:#377149; stroke:none;" d="M290 886L291 887L290 886M308 886L309 887L308 886M450 886L451 887L450 886M456 886L457 887L456 886z"/>
<path style="fill:#d3a670; stroke:none;" d="M511.333 886.667L511.667 887.333L511.333 886.667M880.333 886.667L880.667 887.333L880.333 886.667M284 887L285 888L284 887z"/>
<path style="fill:#377149; stroke:none;" d="M289 887L290 888L289 887M306 887L307 888L306 887z"/>
<path style="fill:#d3a670; stroke:none;" d="M307 887L308 888L307 887z"/>
<path style="fill:#377149; stroke:none;" d="M451 887L452 888L451 887M457 887L458 888L457 887z"/>
<path style="fill:#d3a670; stroke:none;" d="M648 887L649 888L648 887M900 887L901 888L900 887M285 888L286 889L285 888z"/>
<path style="fill:#377149; stroke:none;" d="M288 888L289 889L288 888z"/>
<path style="fill:#d3a670; stroke:none;" d="M306 888L307 889L306 888M452 888L455 891L452 888z"/>
<path style="fill:#377149; stroke:none;" d="M453 888L454 889L453 888M458 888L460 890L458 888z"/>
<path style="fill:#d3a670; stroke:none;" d="M459 888L460 889L459 888M498.333 888.667L498.667 889.333L498.333 888.667z"/>
<path style="fill:#377149; stroke:none;" d="M511 888L511 891L512 891L511 888z"/>
<path style="fill:#d3a670; stroke:none;" d="M198 889L199 890L198 889z"/>
<path style="fill:#377149; stroke:none;" d="M304 889L299 895L304 889z"/>
<path style="fill:#d3a670; stroke:none;" d="M305 889L306 890L305 889z"/>
<path style="fill:#377149; stroke:none;" d="M454 889L455 890L454 889z"/>
<path style="fill:#d3a670; stroke:none;" d="M460 889L461 890L460 889M608 889L609 890L608 889M197 890L198 891L197 890M304 890L305 891L304 890z"/>
<path style="fill:#377149; stroke:none;" d="M455 890L456 891L455 890M461 890L462 891L461 890M499 890L499 894L500 894L499 890z"/>
<path style="fill:#d3a670; stroke:none;" d="M196 891L197 892L196 891M303 891L304 892L303 891z"/>
<path style="fill:#377149; stroke:none;" d="M456 891L457 892L456 891M462 891L463 892L462 891z"/>
<path style="fill:#d3a670; stroke:none;" d="M602 891L603 892L602 891M652 891L653 892L652 891z"/>
<path style="fill:#377149; stroke:none;" d="M881 891L881 901L882 901L881 891z"/>
<path style="fill:#d3a670; stroke:none;" d="M195 892L196 893L195 892M302 892L303 893L302 892z"/>
<path style="fill:#377149; stroke:none;" d="M457 892L458 893L457 892M463 892L464 893L463 892z"/>
<path style="fill:#d3a670; stroke:none;" d="M512.333 892.667L512.667 893.333L512.333 892.667M194 893L195 894L194 893M301 893L302 894L301 893z"/>
<path style="fill:#377149; stroke:none;" d="M458 893L459 894L458 893M464 893L467 896L464 893z"/>
<path style="fill:#d3a670; stroke:none;" d="M465 893L466 894L465 893M899 893L900 894L899 893M300 894L301 895L300 894M459 894L461 896L459 894z"/>
<path style="fill:#377149; stroke:none;" d="M460 894L461 895L460 894z"/>
<path style="fill:#d3a670; stroke:none;" d="M466 894L467 895L466 894M499.333 894.667L499.667 895.333L499.333 894.667z"/>
<path style="fill:#377149; stroke:none;" d="M512 894L512 899L513 899L512 894M298 895L299 896L298 895M461 895L462 896L461 895z"/>
<path style="fill:#d3a670; stroke:none;" d="M467 895L468 896L467 895z"/>
<path style="fill:#377149; stroke:none;" d="M297 896L298 897L297 896M462 896L463 897L462 896M468 896L469 897L468 896M500 896L500 899L501 899L500 896z"/>
<path style="fill:#d3a670; stroke:none;" d="M650 896L651 897L650 896z"/>
<path style="fill:#377149; stroke:none;" d="M296 897L297 898L296 897M463 897L464 898L463 897M469 897L470 898L469 897z"/>
<path style="fill:#d3a670; stroke:none;" d="M601 897L602 898L601 897z"/>
<path style="fill:#377149; stroke:none;" d="M464 898L465 899L464 898M470 898L471 899L470 898z"/>
<path style="fill:#d3a670; stroke:none;" d="M513 898L513 901L514 901L513 898M189 899L190 900L189 899M465 899L466 900L465 899z"/>
<path style="fill:#377149; stroke:none;" d="M471 899L475 903L471 899z"/>
<path style="fill:#d3a670; stroke:none;" d="M472 899L473 900L472 899M500 899L500 908L501 908L500 899M649 899L650 900L649 899M898 899L899 900L898 899M466 900L468 902L466 900z"/>
<path style="fill:#377149; stroke:none;" d="M467 900L468 901L467 900z"/>
<path style="fill:#d3a670; stroke:none;" d="M473 900L474 901L473 900M297 901L298 902L297 901z"/>
<path style="fill:#377149; stroke:none;" d="M468 901L469 902L468 901z"/>
<path style="fill:#d3a670; stroke:none;" d="M474 901L475 902L474 901z"/>
<path style="fill:#377149; stroke:none;" d="M513 901L513 907L514 907L513 901z"/>
<path style="fill:#d3a670; stroke:none;" d="M881 901L881 904L882 904L881 901z"/>
<path style="fill:#377149; stroke:none;" d="M469 902L470 903L469 902z"/>
<path style="fill:#d3a670; stroke:none;" d="M475 902L476 903L475 902M648 902L649 903L648 902z"/>
<path style="fill:#377149; stroke:none;" d="M470 903L471 904L470 903z"/>
<path style="fill:#d3a670; stroke:none;" d="M476 903L477 904L476 903z"/>
<path style="fill:#377149; stroke:none;" d="M501.333 903.667L501.667 904.333L501.333 903.667z"/>
<path style="fill:#d3a670; stroke:none;" d="M600 903L600 906L601 906L600 903M299 904L300 905L299 904z"/>
<path style="fill:#377149; stroke:none;" d="M471 904L472 905L471 904z"/>
<path style="fill:#d3a670; stroke:none;" d="M477 904L478 905L477 904z"/>
<path style="fill:#09779b; stroke:none;" d="M552 982L552 984L582 985L623 984C623.079 955.42 643.574 931.615 646 904C643.008 904 637.291 902.937 635.179 905.603C632.179 909.391 635.905 919.364 628.014 919.364C620.755 919.364 623.689 910.075 621.651 906.318C619.692 902.706 605.714 902.666 602.738 905.028C599.438 907.648 599.546 916.126 598.803 920C596.322 932.943 597.053 949.017 591.277 961C584.785 974.468 564.26 975.482 552 982z"/>
<path style="fill:#d3a670; stroke:none;" d="M647 904L648 905L647 904z"/>
<path style="fill:#377149; stroke:none;" d="M882.333 904.667L882.667 905.333L882.333 904.667z"/>
<path style="fill:#d3a670; stroke:none;" d="M185 905L186 906L185 905z"/>
<path style="fill:#377149; stroke:none;" d="M472 905L473 906L472 905M478 905L479 906L478 905z"/>
<path style="fill:#d3a670; stroke:none;" d="M897.333 905.667L897.667 906.333L897.333 905.667z"/>
<path style="fill:#377149; stroke:none;" d="M473 906L474 907L473 906M479 906L480 907L479 906z"/>
<path style="fill:#d3a670; stroke:none;" d="M882 906L883 907L882 906M439 907L439 941L441 953L439 907z"/>
<path style="fill:#377149; stroke:none;" d="M474 907L475 908L474 907M480 907L481 908L480 907z"/>
<path style="fill:#d3a670; stroke:none;" d="M513 907L513 910L514 910L513 907M646 907L647 908L646 907M690.333 907.667L690.667 908.333L690.333 907.667M738.333 907.667L738.667 908.333L738.333 907.667M788 907L788 941L790 953L788 907z"/>
<path style="fill:#377149; stroke:none;" d="M883.333 907.667L883.667 908.333L883.333 907.667M475 908L475 909L479 911L475 908z"/>
<path style="fill:#d3a670; stroke:none;" d="M482 908L483 909L482 908z"/>
<path style="fill:#377149; stroke:none;" d="M500 908L500 911L501 911L500 908M645.333 908.667L645.667 909.333L645.333 908.667z"/>
<path style="fill:#d3a670; stroke:none;" d="M302 909L303 910L302 909M476 909L477 910L476 909z"/>
<path style="fill:#377149; stroke:none;" d="M483 909L484 910L483 909M512 909L512 914L513 914L512 909z"/>
<path style="fill:#d3a670; stroke:none;" d="M737.333 909.667L737.667 910.333L737.333 909.667M883 909L884 910L883 909M437 910L438 911L437 910M477 910L478 911L477 910z"/>
<path style="fill:#377149; stroke:none;" d="M484 910L485 911L484 910z"/>
<path style="fill:#d3a670; stroke:none;" d="M485 910L486 911L485 910M689 910L690 911L689 910M786 910L787 911L786 910z"/>
<path style="fill:#377149; stroke:none;" d="M256 911L257 912L256 911z"/>
<path style="fill:#d3a670; stroke:none;" d="M257 911L258 912L257 911z"/>
<path style="fill:#f9eeda; stroke:none;" d="M253 920L262 913C256.726 909.414 253.372 915.073 253 920z"/>
<path style="fill:#377149; stroke:none;" d="M261 911L262 912L261 911z"/>
<path style="fill:#d3a670; stroke:none;" d="M303 911L304 912L303 911z"/>
<path style="fill:#377149; stroke:none;" d="M479 911L480 912L479 911z"/>
<path style="fill:#d3a670; stroke:none;" d="M486 911L487 912L486 911M499 911L500 912L499 911M599.333 911.667L599.667 912.333L599.333 911.667z"/>
<path style="fill:#377149; stroke:none;" d="M644 911L645 912L644 911M884 911L885 912L884 911z"/>
<path style="fill:#d3a670; stroke:none;" d="M896.333 911.667L896.667 912.333L896.333 911.667M255 912L256 913L255 912M436.333 912.667L436.667 913.333L436.333 912.667z"/>
<path style="fill:#377149; stroke:none;" d="M480 912L481 913L480 912M487 912L488 913L487 912z"/>
<path style="fill:#d3a670; stroke:none;" d="M488 912L489 913L488 912z"/>
<path style="fill:#377149; stroke:none;" d="M499.333 912.667L499.667 913.333L499.333 912.667z"/>
<path style="fill:#d3a670; stroke:none;" d="M644 912L645 913L644 912M688 912L689 913L688 912M736 912L737 913L736 912M785 912L786 913L785 912M884 912L885 913L884 912M181 913L182 914L181 913M254 913L255 914L254 913z"/>
<path style="fill:#377149; stroke:none;" d="M261 913L262 914L261 913z"/>
<path style="fill:#d3a670; stroke:none;" d="M481 913L482 914L481 913z"/>
<path style="fill:#377149; stroke:none;" d="M482 913L483 914L482 913M489 913L490 914L489 913z"/>
<path style="fill:#d3a670; stroke:none;" d="M490 913L491 914L490 913M498.333 913.667L498.667 914.333L498.333 913.667z"/>
<path style="fill:#377149; stroke:none;" d="M599 913L599 917L600 917L599 913M643.333 913.667L643.667 914.333L643.333 913.667M253 914L254 915L253 914z"/>
<path style="fill:#d3a670; stroke:none;" d="M259 914L256 918L259 914z"/>
<path style="fill:#377149; stroke:none;" d="M260 914L261 915L260 914z"/>
<path style="fill:#d3a670; stroke:none;" d="M435.333 914.667L435.667 915.333L435.333 914.667z"/>
<path style="fill:#377149; stroke:none;" d="M483 914L483 915L486 916L483 914M491 914L492 915L491 914z"/>
<path style="fill:#d3a670; stroke:none;" d="M492 914L493 915L492 914M512 914L513 915L512 914M687 914L688 915L687 914M735 914L736 915L735 914M885 914L886 915L885 914M180 915L181 916L180 915z"/>
<path style="fill:#377149; stroke:none;" d="M259 915L260 916L259 915z"/>
<path style="fill:#d3a670; stroke:none;" d="M484 915L485 916L484 915z"/>
<path style="fill:#377149; stroke:none;" d="M493 915L494 916L493 915z"/>
<path style="fill:#d3a670; stroke:none;" d="M494.667 915.333L495.333 915.667L494.667 915.333z"/>
<path style="fill:#377149; stroke:none;" d="M498 915L499 916L498 915M511.333 915.667L511.667 916.333L511.333 915.667z"/>
<path style="fill:#d3a670; stroke:none;" d="M643 915L644 916L643 915M784 915L785 916L784 915z"/>
<path style="fill:#377149; stroke:none;" d="M252.333 916.667L252.667 917.333L252.333 916.667M258 916L259 917L258 916z"/>
<path style="fill:#d3a670; stroke:none;" d="M305 916L306 917L305 916M486 916L487 917L486 916z"/>
<path style="fill:#377149; stroke:none;" d="M487 916L488 917L487 916M642.333 916.667L642.667 917.333L642.333 916.667z"/>
<path style="fill:#d3a670; stroke:none;" d="M686.333 916.667L686.667 917.333L686.333 916.667M734.333 916.667L734.667 917.333L734.333 916.667M886 916L887 917L886 916z"/>
<path style="fill:#377149; stroke:none;" d="M257 917L258 918L257 917z"/>
<path style="fill:#d3a670; stroke:none;" d="M434 917L435 918L434 917M468 917L469 956L470 956L470 928L468 917z"/>
<path style="fill:#377149; stroke:none;" d="M488.667 917.333L489.333 917.667L488.667 917.333M510.333 917.667L510.667 918.333L510.333 917.667z"/>
<path style="fill:#d3a670; stroke:none;" d="M720 917L721 947L722 947C722.693 940.792 724.709 921.115 720 917M768 917L769 918L768 917M783 917L784 918L783 917M817 917L818 956L819 956L819 928L817 917M179 918L180 919L179 918M252.333 918.667L252.667 919.333L252.333 918.667M255 918L256 919L255 918M467 918L468 919L467 918M490 918L491 919L490 918z"/>
<path style="fill:#377149; stroke:none;" d="M491.667 918.333L492.333 918.667L491.667 918.333z"/>
<path style="fill:#d3a670; stroke:none;" d="M598 918L599 919L598 918M642 918L643 919L642 918M719 918L720 919L719 918M767 918L768 919L767 918M816 918L817 919L816 918M895 918L896 919L895 918M254 919L255 920L254 919M306 919L307 920L306 919M433 919L434 920L433 919M492.667 919.333L493.333 919.667L492.667 919.333z"/>
<path style="fill:#377149; stroke:none;" d="M494.667 919.333L495.333 919.667L494.667 919.333M498 919L499 920L498 919M509 919L510 920L509 919M598 919L598 922L599 922L598 919M641.333 919.667L641.667 920.333L641.333 919.667z"/>
<path style="fill:#d3a670; stroke:none;" d="M685 919L686 920L685 919M718 919L719 920L718 919M733 919L734 920L733 919M766 919L767 920L766 919M782 919L783 920L782 919M253 920L254 921L253 920M466 920L467 921L466 920z"/>
<path style="fill:#377149; stroke:none;" d="M501.667 920.333L502.333 920.667L501.667 920.333M507.667 920.333L508.333 920.667L507.667 920.333z"/>
<path style="fill:#d3a670; stroke:none;" d="M888 920L889 921L888 920M178 921L179 922L178 921z"/>
<path style="fill:#377149; stroke:none;" d="M214 921L213 923L214 921z"/>
<path style="fill:#d3a670; stroke:none;" d="M215 921L216 922L215 921z"/>
<path style="fill:#f9eeda; stroke:none;" d="M216.152 921.836C209.718 924.124 217.535 932.741 222.678 930.381C228.249 927.825 220.733 920.208 216.152 921.836z"/>
<path style="fill:#d3a670; stroke:none;" d="M219 921L220 922L219 921z"/>
<path style="fill:#377149; stroke:none;" d="M220 921L221 922L220 921z"/>
<path style="fill:#d3a670; stroke:none;" d="M410 921L410 956L411 956C411 946.758 414.501 928.9 410 921M432.333 921.667L432.667 922.333L432.333 921.667M465 921L466 922L465 921M502.667 921.333L503.333 921.667L502.667 921.333z"/>
<path style="fill:#377149; stroke:none;" d="M504.667 921.333L505.333 921.667L504.667 921.333z"/>
<path style="fill:#d3a670; stroke:none;" d="M506.667 921.333L507.333 921.667L506.667 921.333M662.333 921.667L662.667 922.333L662.333 921.667M684 921L685 922L684 921M710.333 921.667L710.667 922.333L710.333 921.667M732 921L733 922L732 921M759 921L759 928L760 928L759 921M781.333 921.667L781.667 922.333L781.333 921.667M814 921L815 922L814 921z"/>
<path style="fill:#377149; stroke:none;" d="M222 922L223 923L222 922z"/>
<path style="fill:#d3a670; stroke:none;" d="M307.333 922.667L307.667 923.333L307.333 922.667M464 922L465 923L464 922z"/>
<path style="fill:#377149; stroke:none;" d="M640 922L641 923L640 922z"/>
<path style="fill:#d3a670; stroke:none;" d="M716 922L717 923L716 922M764 922L765 923L764 922M813 922L814 923L813 922z"/>
<path style="fill:#377149; stroke:none;" d="M223 923L224 924L223 923z"/>
<path style="fill:#d3a670; stroke:none;" d="M463 923L464 924L463 923M640 923L641 924L640 923M683 923L684 924L683 923M715 923L716 924L715 923M731 923L732 924L731 923M763 923L764 924L763 923M812 923L813 924L812 923z"/>
<path style="fill:#377149; stroke:none;" d="M224 924L225 925L224 924z"/>
<path style="fill:#d3a670; stroke:none;" d="M431 924L432 925L431 924M597.333 924.667L597.667 925.333L597.333 924.667M663.333 924.667L663.667 925.333L663.333 924.667M714 924L715 925L714 924M780 924L781 925L780 924M891 924L892 925L891 924M894 924L895 925L894 924M177 925L178 926L177 925M224 925L225 926L224 925z"/>
<path style="fill:#377149; stroke:none;" d="M639 925L640 926L639 925z"/>
<path style="fill:#d3a670; stroke:none;" d="M682.333 925.667L682.667 926.333L682.333 925.667M711 925L712 926L711 925M730 925L731 926L730 925M213 926L214 927L213 926z"/>
<path style="fill:#377149; stroke:none;" d="M225 926L225 929L226 929L225 926M237 952L237 951C225.229 941.539 231.482 927.311 246 927C230.57 920.54 222.592 945.205 237 952z"/>
<path style="fill:#d3a670; stroke:none;" d="M430 926L431 927L430 926M461 926L462 927L461 926z"/>
<path style="fill:#377149; stroke:none;" d="M597.333 926.667L597.667 927.333L597.333 926.667z"/>
<path style="fill:#d3a670; stroke:none;" d="M639 926L640 927L639 926M779 926L780 927L779 926M810 926L811 927L810 926M893 926L894 927L893 926z"/>
<path style="fill:#377149; stroke:none;" d="M213 927L214 928L213 927z"/>
<path style="fill:#d3a670; stroke:none;" d="M255 937C251.64 939.364 248.133 944.2 244.001 945.029C239.691 945.895 235.918 941.037 237.566 937.089C239.171 933.244 243.584 930.405 246 927C242.973 927.025 239.799 926.921 237.015 928.318C215.589 939.072 246.959 966.35 254.721 944.001C255.56 941.587 255.384 939.454 255 937M308 927L309 928L308 927M412.333 927.667L412.667 928.333L412.333 927.667M460 927L461 928L460 927z"/>
<path style="fill:#377149; stroke:none;" d="M638.333 927.667L638.667 928.333L638.333 927.667z"/>
<path style="fill:#d3a670; stroke:none;" d="M712 927L713 928L712 927M809 927L810 928L809 927z"/>
<path style="fill:#377149; stroke:none;" d="M214 928L215 929L214 928M245 928L246 929L245 928z"/>
<path style="fill:#d3a670; stroke:none;" d="M429.333 928.667L429.667 929.333L429.333 928.667M459 928L460 929L459 928M664.333 928.667L664.667 929.333L664.333 928.667M681 928L682 929L681 928M729 928L730 929L729 928M778 928L779 929L778 928M808 928L809 929L808 928z"/>
<path style="fill:#377149; stroke:none;" d="M215 929L216 930L215 929M244 929L245 930L244 929z"/>
<path style="fill:#d3a670; stroke:none;" d="M638 929L639 930L638 929M758 929L759 930L758 929M176.333 930.667L176.667 931.333L176.333 930.667z"/>
<path style="fill:#377149; stroke:none;" d="M216.667 930.333L217.333 930.667L216.667 930.333M243 930L244 931L243 930z"/>
<path style="fill:#d3a670; stroke:none;" d="M428.333 930.667L428.667 931.333L428.333 930.667M596.333 930.667L596.667 931.333L596.333 930.667z"/>
<path style="fill:#377149; stroke:none;" d="M637 930L636 934L637 934L637 930z"/>
<path style="fill:#d3a670; stroke:none;" d="M680 930L681 931L680 930M728 930L729 931L728 930M777.333 930.667L777.667 931.333L777.333 930.667z"/>
<path style="fill:#377149; stroke:none;" d="M219 931L219 932L223 932L219 931M242 931L243 932L242 931z"/>
<path style="fill:#d3a670; stroke:none;" d="M413.333 931.667L413.667 932.333L413.333 931.667M457 931L458 932L457 931M806 931L807 932L806 931z"/>
<path style="fill:#377149; stroke:none;" d="M241 932L242 933L241 932z"/>
<path style="fill:#d3a670; stroke:none;" d="M456 932L457 933L456 932z"/>
<path style="fill:#377149; stroke:none;" d="M596 932L596 935L597 935L596 932z"/>
<path style="fill:#d3a670; stroke:none;" d="M637 932L638 933L637 932M665 932L666 933L665 932M679.333 932.667L679.667 933.333L679.333 932.667M708 932L709 933L708 932M727 932L728 933L727 932M756 932L757 933L756 932M805 932L806 933L805 932z"/>
<path style="fill:#377149; stroke:none;" d="M240 933L241 934L240 933z"/>
<path style="fill:#d3a670; stroke:none;" d="M309 933L309 937L310 937L309 933M427 933L428 934L427 933M455 933L456 934L455 933M707 933L708 934L707 933M755 933L756 934L755 933M776 933L777 934L776 933M804 933L805 934L804 933z"/>
<path style="fill:#377149; stroke:none;" d="M238 934L238 944L239 944L240 934L238 934z"/>
<path style="fill:#d3a670; stroke:none;" d="M414.333 934.667L414.667 935.333L414.333 934.667M636 934L637 935L636 934M706 934L707 935L706 934M754 934L755 935L754 934M426 935L427 936L426 935M666.333 935.667L666.667 936.333L666.333 935.667M678 935L679 936L678 935M726 935L727 936L726 935M775 935L776 936L775 935M453 936L454 937L453 936M595 936L595 939L596 939L595 936z"/>
<path style="fill:#377149; stroke:none;" d="M635 936L636 937L635 936z"/>
<path style="fill:#d3a670; stroke:none;" d="M802 936L803 937L802 936z"/>
<path style="fill:#377149; stroke:none;" d="M252 937L252 939L254 937L252 937M255.333 937.667L255.667 938.333L255.333 937.667z"/>
<path style="fill:#d3a670; stroke:none;" d="M425.333 937.667L425.667 938.333L425.333 937.667M452 937L453 938L452 937M635 937L636 938L635 937M677 937L678 938L677 937M704 937L705 938L704 937M725 937L726 938L725 937M752 937L753 938L752 937M774 937L775 938L774 937M801 937L802 938L801 937M309 938L310 939L309 938M415 938L416 939L415 938M451 938L452 939L451 938z"/>
<path style="fill:#377149; stroke:none;" d="M634.333 938.667L634.667 939.333L634.333 938.667z"/>
<path style="fill:#d3a670; stroke:none;" d="M667.333 938.667L667.667 939.333L667.333 938.667M703 938L704 939L703 938M751 938L752 939L751 938M800 938L801 939L800 938z"/>
<path style="fill:#377149; stroke:none;" d="M251 939L252 940L251 939M595 939L595 942L596 942L595 939z"/>
<path style="fill:#d3a670; stroke:none;" d="M676 939L677 940L676 939M702 939L703 940L702 939M724 939L725 940L724 939M750 939L751 940L750 939M773.333 939.667L773.667 940.333L773.333 939.667z"/>
<path style="fill:#377149; stroke:none;" d="M241 945L241 946L251 940L241 945z"/>
<path style="fill:#d3a670; stroke:none;" d="M424 940L425 941L424 940M634 940L635 941L634 940z"/>
<path style="fill:#377149; stroke:none;" d="M255 941L255 945L256 945L255 941z"/>
<path style="fill:#d3a670; stroke:none;" d="M309 941L310 942L309 941M416.333 941.667L416.667 942.333L416.333 941.667M449 941L450 942L449 941z"/>
<path style="fill:#377149; stroke:none;" d="M633.333 941.667L633.667 942.333L633.333 941.667z"/>
<path style="fill:#d3a670; stroke:none;" d="M675 941L676 942L675 941M723 941L724 942L723 941M798 941L799 942L798 941M423 942L424 943L423 942M448 942L449 943L448 942M668.333 942.667L668.667 943.333L668.333 942.667M700 942L701 943L700 942M748 942L749 943L748 942M772 942L773 943L772 942M797 942L798 943L797 942M309 943L309 946L310 946L309 943M447 943L448 944L447 943M594.333 943.667L594.667 944.333L594.333 943.667M633 943L634 944L633 943M699 943L700 944L699 943M747 943L748 944L747 943M796 943L797 944L796 943z"/>
<path style="fill:#377149; stroke:none;" d="M239.667 944.333L240.333 944.667L239.667 944.333z"/>
<path style="fill:#d3a670; stroke:none;" d="M422 944L423 945L422 944z"/>
<path style="fill:#377149; stroke:none;" d="M632 944L633 945L632 944z"/>
<path style="fill:#d3a670; stroke:none;" d="M674 944L675 945L674 944M698 944L699 945L698 944M746 944L747 945L746 944M771 944L772 945L771 944z"/>
<path style="fill:#377149; stroke:none;" d="M254.333 945.667L254.667 946.333L254.333 945.667z"/>
<path style="fill:#d3a670; stroke:none;" d="M417 945L418 946L417 945z"/>
<path style="fill:#377149; stroke:none;" d="M594 945L594 949L595 949L594 945z"/>
<path style="fill:#d3a670; stroke:none;" d="M632 945L633 946L632 945M669.333 945.667L669.667 946.333L669.333 945.667M745 945L746 946L745 945M176 946L177 947L176 946M421.333 946.667L421.667 947.333L421.333 946.667M445 946L446 947L445 946M673 946L674 947L673 946M770 946L771 947L770 946M794 946L795 947L794 946M848 946L849 947L848 946z"/>
<path style="fill:#377149; stroke:none;" d="M253 947L251 950L253 947z"/>
<path style="fill:#d3a670; stroke:none;" d="M444 947L445 948L444 947z"/>
<path style="fill:#377149; stroke:none;" d="M631 947L632 948L631 947z"/>
<path style="fill:#d3a670; stroke:none;" d="M696 947L697 948L696 947M744 947L745 948L744 947M793 947L794 948L793 947M176.333 948.667L176.667 949.333L176.333 948.667M418.333 948.667L418.667 949.333L418.333 948.667M443 948L444 949L443 948M631 948L632 949L631 948M672 948L673 949L672 948M695 948L696 949L695 948M743 948L744 949L743 948M769.333 948.667L769.667 949.333L769.333 948.667M792 948L793 949L792 948M847 948L848 949L847 948M420 949L421 950L420 949z"/>
<path style="fill:#377149; stroke:none;" d="M630.333 949.667L630.667 950.333L630.333 949.667z"/>
<path style="fill:#d3a670; stroke:none;" d="M670 949L671 950L670 949M694 949L695 950L694 949M742 949L743 950L742 949M791 949L792 950L791 949z"/>
<path style="fill:#377149; stroke:none;" d="M250 950L251 951L250 950M262 950L260 955L261 955L262 950z"/>
<path style="fill:#d3a670; stroke:none;" d="M263 950L264 951L263 950z"/>
<path style="fill:#f9eeda; stroke:none;" d="M264.149 950.931C257.697 952.811 264.816 960.941 269.768 959.663C275.858 958.09 268.925 949.54 264.149 950.931z"/>
<path style="fill:#d3a670; stroke:none;" d="M266 950L267 951L266 950z"/>
<path style="fill:#377149; stroke:none;" d="M267 950L268 951L267 950z"/>
<path style="fill:#d3a670; stroke:none;" d="M593.333 950.667L593.667 951.333L593.333 950.667M671 950L672 951L671 950M741 950L742 951L741 950M846 950L847 951L846 950z"/>
<path style="fill:#377149; stroke:none;" d="M244 952L244 953L250 952L244 952M269 951L270 952L269 951z"/>
<path style="fill:#d3a670; stroke:none;" d="M308.333 951.667L308.667 952.333L308.333 951.667M441 951L442 952L441 951M630 951L631 952L630 951z"/>
<path style="fill:#377149; stroke:none;" d="M238 952L238 953L243 954L238 952M270 952L271 953L270 952M593.333 952.667L593.667 953.333L593.333 952.667M271 953L272 954L271 953M629 953L630 954L629 953z"/>
<path style="fill:#d3a670; stroke:none;" d="M177 954L178 955L177 954z"/>
<path style="fill:#377149; stroke:none;" d="M272 954L273 955L272 954z"/>
<path style="fill:#d3a670; stroke:none;" d="M629 954L630 955L629 954z"/>
<path style="fill:#09779b; stroke:none;" d="M846 954L817 1019L816 1019C811.947 1009.05 810.596 986.455 802 980L802 1017L803.028 1031.4L823 1033L877 1033L895.821 1031.4L897 1014L897 967L881.565 983L849 1022L848 974L846 954z"/>
<path style="fill:#d3a670; stroke:none;" d="M272 955L273 956L272 955M844 955L845 956L844 955M109 956L109 957L113 957L109 956M261 956L263 958L261 956M928 956L928 957L932 957L928 956M104.667 957.333L105.333 957.667L104.667 957.333z"/>
<path style="fill:#377149; stroke:none;" d="M261 957L262 958L261 957z"/>
<path style="fill:#d3a670; stroke:none;" d="M935.667 957.333L936.333 957.667L935.667 957.333M101 958L102 959L101 958z"/>
<path style="fill:#377149; stroke:none;" d="M228 958L228 959L233 962C233.078 958.891 230.798 958.438 228 958z"/>
<path style="fill:#d3a670; stroke:none;" d="M263 958L264 959L263 958M272 958L273 959L272 958M939 958L940 959L939 958M97.6667 959.333L98.3333 959.667L97.6667 959.333z"/>
<path style="fill:#377149; stroke:none;" d="M226 959L224 962L226 959z"/>
<path style="fill:#f9eeda; stroke:none;" d="M227.129 960.047C221.815 962.903 223.273 972.861 229.775 968.968C234.239 966.295 233.272 956.745 227.129 960.047z"/>
<path style="fill:#377149; stroke:none;" d="M264 959L265 960L264 959M272 959L273 960L272 959z"/>
<path style="fill:#d3a670; stroke:none;" d="M942 959L943 960L942 959M95 960L96 961L95 960z"/>
<path style="fill:#377149; stroke:none;" d="M266 960L267 961L266 960z"/>
<path style="fill:#d3a670; stroke:none;" d="M267 960L267 961L270 961L267 960z"/>
<path style="fill:#377149; stroke:none;" d="M270 960L271 961L270 960z"/>
<path style="fill:#d3a670; stroke:none;" d="M944.667 960.333L945.333 960.667L944.667 960.333M93 961L94 962L93 961M947 961L948 962L947 961M91 962L92 963L91 962M233.333 962.667L233.667 963.333L233.333 962.667M949 962L950 963L949 962M89 963L90 964L89 963z"/>
<path style="fill:#377149; stroke:none;" d="M223 963L224 964L223 963z"/>
<path style="fill:#d3a670; stroke:none;" d="M950 963L951 964L950 963M88 964L89 965L88 964M223 964L224 965L223 964z"/>
<path style="fill:#377149; stroke:none;" d="M233 964L234 965L233 964z"/>
<path style="fill:#d3a670; stroke:none;" d="M952 964L953 965L952 964M86 965L87 966L86 965M953 965L954 966L953 965M85 966L86 967L85 966M232 966L233 967L232 966M955 966L956 967L955 966z"/>
<path style="fill:#377149; stroke:none;" d="M232 967L233 968L232 967z"/>
<path style="fill:#d3a670; stroke:none;" d="M956 967L957 968L956 967M82 968L83 969L82 968M223 968L224 969L223 968z"/>
<path style="fill:#377149; stroke:none;" d="M231 968L232 969L231 968z"/>
<path style="fill:#d3a670; stroke:none;" d="M81 969L82 970L81 969z"/>
<path style="fill:#377149; stroke:none;" d="M230 969L231 970L230 969z"/>
<path style="fill:#d3a670; stroke:none;" d="M80 970L81 971L80 970z"/>
<path style="fill:#377149; stroke:none;" d="M225 970L226 971L225 970z"/>
<path style="fill:#d3a670; stroke:none;" d="M226.667 970.333L227.333 970.667L226.667 970.333z"/>
<path style="fill:#377149; stroke:none;" d="M228 970L229 971L228 970z"/>
<path style="fill:#d3a670; stroke:none;" d="M960 970L961 971L960 970M79 971L80 972L79 971M961 971L962 972L961 971M78 972L79 973L78 972M962 972L963 973L962 972M77 973L78 974L77 973M963 973L964 974L963 973M76 974L77 975L76 974M75 975L76 976L75 975M966 977L967 978L966 977M73 978L74 979L73 978M967 978L968 979L967 978M72 979L73 980L72 979M968 980L969 981L968 980M71 981L72 982L71 981M969 981L970 982L969 981M70 982L71 983L70 982M970 983L971 984L970 983M69 984L70 985L69 984M971 985L972 986L971 985M68 986L69 987L68 986M972 987L973 988L972 987M67 988L68 989L67 988M973 989L974 990L973 989M66.3333 990.667L66.6667 991.333L66.3333 990.667M974.333 991.667L974.667 992.333L974.333 991.667M65.3333 993.667L65.6667 994.333L65.3333 993.667M975.333 994.667L975.667 995.333L975.333 994.667M64 996L64 999L65 999L64 996M976.333 998.667L976.667 999.333L976.333 998.667M63 1001L63 1004L64 1004L63 1001z"/>
<path style="fill:#09779b; stroke:none;" d="M131 1003C127.007 1012.73 121.5 1035.06 112 1040C111.505 1034.33 109.886 1024.35 105 1021L106.028 1047.49L118 1050L149 1050L161.972 1048.26L163 1038L163 1011L134 1042C131.417 1031.15 137.695 1011.84 131 1003z"/>
<path style="fill:#d3a670; stroke:none;" d="M977 1003L977 1018L978 1018L977 1003M63 1016L63 1020L64 1020L63 1016M976 1020L976 1023L977 1023L976 1020M64 1022L64 1025L65 1025L64 1022M975.333 1025.67L975.667 1026.33L975.333 1025.67M65.3333 1026.67L65.6667 1027.33L65.3333 1026.67M974.333 1028.67L974.667 1029.33L974.333 1028.67M66.3333 1029.67L66.6667 1030.33L66.3333 1029.67M973 1031L974 1032L973 1031M67 1032L68 1033L67 1032M972 1033L973 1034L972 1033M68 1034L69 1035L68 1034M971 1035L972 1036L971 1035M69 1036L70 1037L69 1036M970 1037L971 1038L970 1037M70 1038L71 1039L70 1038M71 1039L72 1040L71 1039M969 1039L970 1040L969 1039M968 1040L969 1041L968 1040M72 1041L73 1042L72 1041M73 1042L74 1043L73 1042M966 1043L967 1044L966 1043M965 1044L966 1045L965 1044M75 1045L76 1046L75 1045M76 1046L77 1047L76 1046M77 1047L78 1048L77 1047M78 1048L79 1049L78 1048M962 1048L963 1049L962 1048M79 1049L80 1050L79 1049M80 1050L81 1051L80 1050M81 1051L82 1052L81 1051M82 1052L83 1053L82 1052M957 1052L958 1053L957 1052M84 1053L85 1054L84 1053M956 1053L957 1054L956 1053M85 1054L86 1055L85 1054M955 1054L956 1055L955 1054M953 1055L954 1056L953 1055M88 1056L89 1057L88 1056M952 1056L953 1057L952 1056M90 1057L91 1058L90 1057M950 1057L951 1058L950 1057M91 1058L92 1059L91 1058M948 1058L949 1059L948 1058M93.6667 1059.33L94.3333 1059.67L93.6667 1059.33M946 1059L947 1060L946 1059M95.6667 1060.33L96.3333 1060.67L95.6667 1060.33M944 1060L945 1061L944 1060M98.6667 1061.33L99.3333 1061.67L98.6667 1061.33M941.667 1061.33L942.333 1061.67L941.667 1061.33M101.667 1062.33L102.333 1062.67L101.667 1062.33M938.667 1062.33L939.333 1062.67L938.667 1062.33M104 1063L104 1064L107 1064L104 1063M934.667 1063.33L935.333 1063.67L934.667 1063.33M109 1064L109 1065L931 1065L909 1064L860 1064L692 1064L109 1064z"/>
</svg>
