<?xml version="1.0" standalone="yes"?>
<svg xmlns="http://www.w3.org/2000/svg" width="480" height="480">
<path style="fill:#fdfcfb; stroke:none;" d="M0 0L0 480L480 480L480 0L0 0z"/>
<path style="fill:#dfab40; stroke:none;" d="M276 32L276 33C297.606 28.9889 311.615 45.3083 309 66C322.456 46.3038 294.24 25.3544 276 32z"/>
<path style="fill:#a34927; stroke:none;" d="M278 32.5324C248.096 39.6567 258.911 90.3501 290 82.8557C322.577 75.0027 310.371 24.8204 278 32.5324z"/>
<path style="fill:#dfab40; stroke:none;" d="M273.667 33.3333L274.333 33.6667L273.667 33.3333M271 34L270 36L271 34z"/>
<path style="fill:#5b6582; stroke:none;" d="M272 34L273 35L272 34M271 35L272 36L271 35z"/>
<path style="fill:#dfab40; stroke:none;" d="M269 36L270 37L269 36M285 36L286 40L280 43L292 45C291.828 41.4834 290.361 40.7161 287 40L287 36L285 36M268 37L269 38L268 37M267 38L268 39L267 38M265 39L265 41L267 39L265 39M264 41L262 45L264 41z"/>
<path style="fill:#5b6582; stroke:none;" d="M263 44L264 45L263 44M262.333 45.6667L262.667 46.3333L262.333 45.6667z"/>
<path style="fill:#dfab40; stroke:none;" d="M261 46L260 50L261 50L261 46z"/>
<path style="fill:#5b6582; stroke:none;" d="M261 48L262 49L261 48z"/>
<path style="fill:#dfab40; stroke:none;" d="M278 49L293 64L294 64C293 55.0264 285.093 54.9446 280 49L278 49M286 49L286 52L287 52L286 49z"/>
<path style="fill:#5b6582; stroke:none;" d="M260 50L260 54L261 54L260 50z"/>
<path style="fill:#dfab40; stroke:none;" d="M259 52L260 67L261 67L259 52M264 56C261.036 73.9719 284.978 89.1403 298 74L297 73C287.648 78.222 275.898 78.7772 269.133 68.8264C266.47 64.9081 266.184 60.0782 264 56M195 62L195 63L213 59L213 60L208 62L208 64L226 65L230 76L232 77C234.927 67.0999 221.046 56.5944 212 57.2284C205.911 57.6551 201.311 61.8481 195 62M282 57L283 58L282 57z"/>
<path style="fill:#5b6582; stroke:none;" d="M207 60L207 61L213 60L207 60M216 59L217 60L216 59z"/>
<path style="fill:#dfab40; stroke:none;" d="M286 59L287 60L286 59z"/>
<path style="fill:#5b6582; stroke:none;" d="M204 61C198.221 63.7815 191.062 62.6094 189 70L205 62L204 61z"/>
<path style="fill:#a34927; stroke:none;" d="M191 72L177 67C178.418 75.5066 190.667 79 198 79C199.633 79 200.28 80.8782 200 82L205 79L205 84L205 85L186 90L192 102L212 94L212 98C220.836 97.9942 229.066 98.6679 227 88C218.538 88 214.305 88.7899 207 93C205.416 89.06 202.986 89.0475 199 89L206 85L204 83L204 82L218 68L219 68L220 68L225 74L229 74C227.646 61.8816 216.508 65.6603 208 64L210 62C204.042 59.75 190.435 64.5352 191 72z"/>
<path style="fill:#dfab40; stroke:none;" d="M193 63L194 64L193 63z"/>
<path style="fill:#5b6582; stroke:none;" d="M260 63L261 64L260 63z"/>
<path style="fill:#dfab40; stroke:none;" d="M179 64L191 72L189 68L179 64M192 64L193 65L192 64M176.667 65.3333L177.333 65.6667L176.667 65.3333z"/>
<path style="fill:#5b6582; stroke:none;" d="M174 67L174 68L181 67L174 67M225 65L226 66L225 65M308.333 65.6667L308.667 66.3333L308.333 65.6667z"/>
<path style="fill:#dfab40; stroke:none;" d="M174 66L175 67L174 66M190 66L191 67L190 66z"/>
<path style="fill:#5b6582; stroke:none;" d="M226 66L227 67L226 66z"/>
<path style="fill:#dfab40; stroke:none;" d="M277 66C280.122 69.5383 284.981 71.6523 288 67L277 66z"/>
<path style="fill:#3b2f2c; stroke:none;" d="M175 67C172.593 75.7743 178.792 83.5343 184 90C174.632 93.3693 176.139 108.896 185 112L184 90L205 85L205 84L205 79L200 82L192 78.9583L175 67z"/>
<path style="fill:#fdfcfb; stroke:none;" d="M279 67L280 68L279 67z"/>
<path style="fill:#dfab40; stroke:none;" d="M308 67L305 73L308 67M173 68L174 69L173 68z"/>
<path style="fill:#3b2f2c; stroke:none;" d="M218.667 68.3333L219.333 68.6667L218.667 68.3333z"/>
<path style="fill:#dfab40; stroke:none;" d="M261.333 68.6667L261.667 69.3333L261.333 68.6667z"/>
<path style="fill:#5b6582; stroke:none;" d="M307 68L308 69L307 68M173.333 69.6667L173.667 70.3333L173.333 69.6667M184 69L185 70L184 69M218.667 69.3333L219.333 69.6667L218.667 69.3333M228 69L229 70L228 69z"/>
<path style="fill:#dfab40; stroke:none;" d="M213.667 70.3333L214.333 70.6667L213.667 70.3333M220 70L221 71L220 70z"/>
<path style="fill:#5b6582; stroke:none;" d="M221 70L222 71L221 70z"/>
<path style="fill:#3b2f2c; stroke:none;" d="M222 70L223 71L222 70z"/>
<path style="fill:#dfab40; stroke:none;" d="M262 70L263 71L262 70z"/>
<path style="fill:#5b6582; stroke:none;" d="M306 70L307 71L306 70z"/>
<path style="fill:#dfab40; stroke:none;" d="M173.333 71.6667L173.667 72.3333L173.333 71.6667M211 71L212 72L211 71M222 71L223 72L222 71M263.333 71.6667L263.667 72.3333L263.333 71.6667M278 71L278 72L281 72L278 71z"/>
<path style="fill:#5b6582; stroke:none;" d="M305 71L306 72L305 71z"/>
<path style="fill:#dfab40; stroke:none;" d="M191 72L192 73L191 72M210.333 72.6667L210.667 73.3333L210.333 72.6667M223 72L225 74L223 72z"/>
<path style="fill:#3b2f2c; stroke:none;" d="M224.667 72.3333L225.333 72.6667L224.667 72.3333z"/>
<path style="fill:#5b6582; stroke:none;" d="M229 72L229 78L231 77L231 83C233.696 81.0296 233.591 76.4965 230 76L229 72M174.333 73.6667L174.667 74.3333L174.333 73.6667z"/>
<path style="fill:#dfab40; stroke:none;" d="M264 73L265 74L264 73z"/>
<path style="fill:#5b6582; stroke:none;" d="M304 73L305 74L304 73z"/>
<path style="fill:#dfab40; stroke:none;" d="M209 74L210 75L209 74M225 74L229 78L225 74z"/>
<path style="fill:#3b2f2c; stroke:none;" d="M226 74L228 76L228 74L226 74z"/>
<path style="fill:#dfab40; stroke:none;" d="M265 74L270 80L265 74M304 74L305 75L304 74M174 75L175 76L174 75M208.333 75.6667L208.667 76.3333L208.333 75.6667z"/>
<path style="fill:#5b6582; stroke:none;" d="M302 75L299 79L302 75z"/>
<path style="fill:#dfab40; stroke:none;" d="M303 75L304 76L303 75z"/>
<path style="fill:#5b6582; stroke:none;" d="M175.333 76.6667L175.667 77.3333L175.333 76.6667z"/>
<path style="fill:#3b2f2c; stroke:none;" d="M204 76L205 77L204 76z"/>
<path style="fill:#a34927; stroke:none;" d="M228 76L229 77L228 76z"/>
<path style="fill:#dfab40; stroke:none;" d="M302 76L303 77L302 76M207 77L204 82L204 83L206 85L199 89C202.902 89.1269 204.915 89.5991 207 93L227 88L227 92L228 92L228 87L212 87L212 86L214 85L212 82L208 82L207 77z"/>
<path style="fill:#3b2f2c; stroke:none;" d="M230 77L231 78L230 77z"/>
<path style="fill:#dfab40; stroke:none;" d="M301 77L302 78L301 77M229 78L230 82L231 82L229 78z"/>
<path style="fill:#a34927; stroke:none;" d="M230 78L231 79L230 78z"/>
<path style="fill:#dfab40; stroke:none;" d="M300 78L301 79L300 78z"/>
<path style="fill:#5b6582; stroke:none;" d="M176 79L177 80L176 79z"/>
<path style="fill:#3b2f2c; stroke:none;" d="M231 79L232 80L231 79z"/>
<path style="fill:#5b6582; stroke:none;" d="M270 79L270 80L273 81L270 79M297 79L298 80L297 79z"/>
<path style="fill:#dfab40; stroke:none;" d="M298.667 79.3333L299.333 79.6667L298.667 79.3333M176 80L177 81L176 80M233 80L233 83L234 83L233 80M271 80L272 81L271 80z"/>
<path style="fill:#5b6582; stroke:none;" d="M295 80L294 82L295 80z"/>
<path style="fill:#dfab40; stroke:none;" d="M296.667 80.3333L297.333 80.6667L296.667 80.3333z"/>
<path style="fill:#5b6582; stroke:none;" d="M177 81L178 82L177 81z"/>
<path style="fill:#dfab40; stroke:none;" d="M273.667 81.3333L274.333 81.6667L273.667 81.3333M295 81L296 82L295 81M177 82L178 83L177 82M213 82L213 83L218 85L218 86L221 85L213 82M275 82L276 83L275 82z"/>
<path style="fill:#5b6582; stroke:none;" d="M276 82L277 83L276 82z"/>
<path style="fill:#dfab40; stroke:none;" d="M291 82L291 83L294 83L291 82z"/>
<path style="fill:#5b6582; stroke:none;" d="M178 83L179 84L178 83z"/>
<path style="fill:#fdfcfb; stroke:none;" d="M207 83L208 84L207 83z"/>
<path style="fill:#5b6582; stroke:none;" d="M212 83L214 85L212 83z"/>
<path style="fill:#3b2f2c; stroke:none;" d="M213 83L213 84L218 84L213 83z"/>
<path style="fill:#5b6582; stroke:none;" d="M218 83L215 84L215 85L219 84L218 83z"/>
<path style="fill:#dfab40; stroke:none;" d="M278 83L278 84L282 84L278 83z"/>
<path style="fill:#5b6582; stroke:none;" d="M282 83L282 84L287 84L282 83z"/>
<path style="fill:#dfab40; stroke:none;" d="M288.667 83.3333L289.333 83.6667L288.667 83.3333z"/>
<path style="fill:#5b6582; stroke:none;" d="M179 84L180 85L179 84z"/>
<path style="fill:#3b2f2c; stroke:none;" d="M212 84L213 85L212 84z"/>
<path style="fill:#a34927; stroke:none;" d="M214 84L215 85L214 84M218.667 84.3333L219.333 84.6667L218.667 84.3333z"/>
<path style="fill:#5b6582; stroke:none;" d="M180 85L182 87L180 85z"/>
<path style="fill:#fdfcfb; stroke:none;" d="M210 85L210 89L211 89L210 85z"/>
<path style="fill:#dfab40; stroke:none;" d="M222 85L223 86L222 85M180 86L181 87L180 86M237 86L237 95L238 95L241 87L245 92C243.303 87.9118 241.397 86.4953 237 86M181 87L182 88L181 87z"/>
<path style="fill:#5b6582; stroke:none;" d="M238 87L239 88L238 87M240 87L238 104L243 103C242.313 105.309 239.572 109.434 239 105L238 105L239 109C248.114 105.679 245.836 92.5424 240 87z"/>
<path style="fill:#dfab40; stroke:none;" d="M182.333 88.6667L182.667 89.3333L182.333 88.6667M282 88C282 94.3364 280.192 105.296 288 107C289.728 100.373 288.525 91.4788 282 88z"/>
<path style="fill:#5b6582; stroke:none;" d="M183 89L184 90L183 89z"/>
<path style="fill:#3b2f2c; stroke:none;" d="M212 89L213 90L212 89z"/>
<path style="fill:#dfab40; stroke:none;" d="M214 97L226 96L226 89C219.332 89 211.411 87.9102 214 97z"/>
<path style="fill:#5b6582; stroke:none;" d="M180.667 90.3333L181.333 90.6667L180.667 90.3333M184 90L184 96L185 96L185 93L188 94L186 90L184 90z"/>
<path style="fill:#dfab40; stroke:none;" d="M196 91C196.741 93.5594 199.346 95.5539 196 96C204.526 99.569 207.863 89.5415 196 91z"/>
<path style="fill:#fdfcfb; stroke:none;" d="M215 90L215 91L225 94L225 90L215 90z"/>
<path style="fill:#5b6582; stroke:none;" d="M179 91L180 92L179 91M178.333 92.6667L178.667 93.3333L178.333 92.6667M216 92L217 93L216 92z"/>
<path style="fill:#dfab40; stroke:none;" d="M228 92L222 99L212 98L212 94L192 102C190.759 97.5269 189.377 94.8395 185 93L185 113L190 115L197 113L207 104L218 107.372L229 115L231 109L234 114C228.218 115.179 231.7 125.146 229.902 130.015C227.091 137.625 218.684 143.912 211 146L211 147L214 147L214 148C206.103 151.608 204.098 153.849 199 145L207 145L207 144C202.684 143.764 200.062 142.929 198 139L178 142C183.641 152.143 176.276 170.424 176 182L171 183C166.83 180.872 161.168 181.215 158 185C163.872 183.306 167.683 181.871 171 188C166.849 190.289 167.016 193.579 167 198L163 198L162 195L151.285 199.708L132 198L135 196L135 195L123 197C123 208.838 129.809 208.841 136 214C146.27 222.558 153.417 233.174 165 238C169.311 239.796 185.623 239.507 185 242C192.625 240.534 199.233 246.208 206.981 244.771C216.952 242.922 207.335 237.048 202 237L202 238L206 238L206 239L190 235L190 234L194 234L194 233L187 231L187 229C194.003 227.701 211.487 233.164 216 228C227.511 232.878 237.089 229.685 244 221L252 201L260 207L260 206C243.739 194.505 262.454 167.468 254 150L268 159C264.673 152.863 248.945 140.789 243 149L242 149L240 144L238 156L236 156L230 149L235 157C223.212 159.029 218.48 157.046 207 155C213.764 148.46 220.206 150.111 229 149L229 148L232.027 130L238 98L237 98L237 105L236 105L228 92z"/>
<path style="fill:#a34927; stroke:none;" d="M200 96L201 96L203 96C204.622 92.8949 200.763 92.4387 200 96M215 93L216 94L215 93z"/>
<path style="fill:#3b2f2c; stroke:none;" d="M216 93L216 95L218 95L218 93L216 93z"/>
<path style="fill:#dfab40; stroke:none;" d="M244.333 93.6667L244.667 94.3333L244.333 93.6667M177.333 94.6667L177.667 95.3333L177.333 94.6667z"/>
<path style="fill:#3b2f2c; stroke:none;" d="M201 94L201 96L203 96L203 94L201 94z"/>
<path style="fill:#fdfcfb; stroke:none;" d="M218 95L219 96L218 95z"/>
<path style="fill:#5b6582; stroke:none;" d="M177 96L177 104L178 104L177 96M183 97L183 100L184 100L183 97z"/>
<path style="fill:#fdfcfb; stroke:none;" d="M228 97L224 100L228 103L229 109L230 109L228 97M220.667 98.3333L221.333 98.6667L220.667 98.3333M210 99L213 105L210 99z"/>
<path style="fill:#5b6582; stroke:none;" d="M184 100L184 108L185 108L184 100z"/>
<path style="fill:#3b2f2c; stroke:none;" d="M238 100L238 103L239 103L238 100M238 104L239 108L243 103L238 104z"/>
<path style="fill:#dfab40; stroke:none;" d="M177 104L178 105L177 104z"/>
<path style="fill:#a34927; stroke:none;" d="M206 104L197 113L191 112L196 116C200.809 108.794 205.839 105.2 212 113L217 112L217 113C213.543 113.437 205.234 112.302 202.604 114.117C194.192 119.926 211.737 123.364 215 123L215 122L206 122L209 120L209 119L204 119L204 117L212 117L212 116L204 116L204 115L214 115L213 117L217 117L217 118L211 118L211 119L219 118L214 124L214 125L229 125C227.853 136.201 218.511 141.542 208 142L208 145C230.029 149.985 228.794 121.558 233 109L229 115C224.983 112.174 215.013 100.952 212 110L211 110L206 104z"/>
<path style="fill:#dfab40; stroke:none;" d="M244.333 104.667L244.667 105.333L244.333 104.667z"/>
<path style="fill:#5b6582; stroke:none;" d="M178.333 106.667L178.667 107.333L178.333 106.667z"/>
<path style="fill:#3b2f2c; stroke:none;" d="M196 116L191 113C192.922 124.329 192.614 138.828 207 141L207 142L200 141L200 142L209 144L208 142C218.894 141.774 228.386 136.835 229 125L214 125L214 124L216 122C212.473 123.094 195.645 121.115 202.623 114.773C205.133 112.491 213.508 113.648 217 113L217 112L212 113C207.193 104.035 199.463 108.3 196 116M214 107L215 108L214 107M216 107L218 109L216 107z"/>
<path style="fill:#dfab40; stroke:none;" d="M243 107L244 108L243 107z"/>
<path style="fill:#3b2f2c; stroke:none;" d="M211.333 108.667L211.667 109.333L211.333 108.667z"/>
<path style="fill:#fdfcfb; stroke:none;" d="M223 108L225 111L223 108z"/>
<path style="fill:#dfab40; stroke:none;" d="M238 108L239 109L238 108M241 108L242 109L241 108z"/>
<path style="fill:#5b6582; stroke:none;" d="M179 109L180 110L179 109M180 110L183 112L183 111L180 110M185.333 110.667L185.667 111.333L185.333 110.667z"/>
<path style="fill:#3b2f2c; stroke:none;" d="M232.333 110.667L232.667 111.333L232.333 110.667z"/>
<path style="fill:#5b6582; stroke:none;" d="M233 110L233 114L234 114L233 110z"/>
<path style="fill:#dfab40; stroke:none;" d="M180 111L181 112L180 111z"/>
<path style="fill:#3b2f2c; stroke:none;" d="M220 111L221 115L222 115L220 111z"/>
<path style="fill:#fdfcfb; stroke:none;" d="M228 111L229 112L228 111z"/>
<path style="fill:#dfab40; stroke:none;" d="M182.667 112.333L183.333 112.667L182.667 112.333z"/>
<path style="fill:#5b6582; stroke:none;" d="M184 112L185 113L184 112M190 112L191 123L192 123L190 112z"/>
<path style="fill:#fdfcfb; stroke:none;" d="M226 112L227 113L226 112z"/>
<path style="fill:#dfab40; stroke:none;" d="M274 118L265 116C263.101 126.351 291.082 139.76 280 151L280 152L287 149L285 146L299 153L293 153L293 154L305 156L308 154L306 156L306 157L310 153L311 153L313 160L314 160L315 155L316 157L317 157C315.123 152.52 312.625 152.055 308 152C308 136.725 304.236 128.971 294.505 117.105C289.101 110.516 277.861 109.86 274 118z"/>
<path style="fill:#3b2f2c; stroke:none;" d="M224 113L225 114L224 113z"/>
<path style="fill:#5b6582; stroke:none;" d="M231 113L232 114L231 113z"/>
<path style="fill:#dfab40; stroke:none;" d="M214 114L214 115L218 115L214 114M204 115L204 116L214 116L204 115z"/>
<path style="fill:#3b2f2c; stroke:none;" d="M224 115L225 116L224 115M204 117L204 119L217 118L204 117M217 116L218 117L217 116z"/>
<path style="fill:#a34927; stroke:none;" d="M192 117L193 118L192 117z"/>
<path style="fill:#dfab40; stroke:none;" d="M219 117L220 118L219 117M190 118L190 122L191 122L190 118M206 122C211.003 121.999 216.051 122.673 219 118L206 122z"/>
<path style="fill:#a34927; stroke:none;" d="M283 119L284 120L283 119M286 119L286 126L287 126L286 119z"/>
<path style="fill:#3b2f2c; stroke:none;" d="M219 120L220 121L219 120M218 122L219 123L218 122z"/>
<path style="fill:#dfab40; stroke:none;" d="M191 123L191 126L192 126L191 123z"/>
<path style="fill:#5b6582; stroke:none;" d="M231 124L232 125L231 124M230 125L230 129L231 129L230 125M192.333 126.667L192.667 127.333L192.333 126.667z"/>
<path style="fill:#dfab40; stroke:none;" d="M192.333 128.667L192.667 129.333L192.333 128.667z"/>
<path style="fill:#a34927; stroke:none;" d="M193 129L194 130L193 129z"/>
<path style="fill:#5b6582; stroke:none;" d="M193 130L195 132L193 130M229.333 130.667L229.667 131.333L229.333 130.667z"/>
<path style="fill:#dfab40; stroke:none;" d="M193 131L194 132L193 131M194 132L196 135L194 132z"/>
<path style="fill:#5b6582; stroke:none;" d="M228.333 132.667L228.667 133.333L228.333 132.667M195 133L196 134L195 133z"/>
<path style="fill:#dfab40; stroke:none;" d="M196 135L197 136L196 135z"/>
<path style="fill:#5b6582; stroke:none;" d="M227 135L228 136L227 135M197 136L198 137L197 136z"/>
<path style="fill:#a34927; stroke:none;" d="M198 137C199.413 141.298 202.813 141.655 207 142L207 141L198 137z"/>
<path style="fill:#5b6582; stroke:none;" d="M198 140L201 143L198 140z"/>
<path style="fill:#fdfcfb; stroke:none;" d="M283 140L284 141L283 140z"/>
<path style="fill:#dfab40; stroke:none;" d="M144 152L144 153L177 143C168.412 139.928 152.18 148.844 144 152z"/>
<path style="fill:#a34927; stroke:none;" d="M138 158L139 156L138 156L137 160L135 158L127 168L130 168L131 176L138 173C138 175.405 140.188 178.311 140 180C139.314 186.171 129.729 185.082 131 180L125 182C126.995 185.192 124.888 190.215 129 192.5C131.569 193.927 145.466 192.609 145 190C148.201 190.378 154.404 190.775 155 187L158 188L158 183L171 183L176 182L180 143C167.093 143.108 147.374 149.139 138 158z"/>
<path style="fill:#5b6582; stroke:none;" d="M201 143L201 144L205 144L201 143z"/>
<path style="fill:#fdfcfb; stroke:none;" d="M227 143L228 144L227 143z"/>
<path style="fill:#5b6582; stroke:none;" d="M207 144L208 145L207 144z"/>
<path style="fill:#fdfcfb; stroke:none;" d="M199 145C202.602 154.29 207.003 152.754 214 148L199 145z"/>
<path style="fill:#dfab40; stroke:none;" d="M208.667 145.333L209.333 145.667L208.667 145.333z"/>
<path style="fill:#a34927; stroke:none;" d="M285 146L287 149L284 152L299 153C296.054 148.178 290.171 147.445 285 146z"/>
<path style="fill:#3b2f2c; stroke:none;" d="M178 148L178 152L179 152L178 148M210 153C217.897 152.978 225.412 151.529 232 157L233 157L235 156C231.47 149.359 214.032 145.76 210 153z"/>
<path style="fill:#a34927; stroke:none;" d="M215.667 149.333L216.333 149.667L215.667 149.333M225 149L226 150L225 149z"/>
<path style="fill:#5b6582; stroke:none;" d="M229 149L230 150L229 149z"/>
<path style="fill:#3b2f2c; stroke:none;" d="M157 150L153 154L157 150z"/>
<path style="fill:#a34927; stroke:none;" d="M218 150L218 151L223 151L218 150M254 150C258.05 161.092 256.462 170.677 255 182L256 182L256 179L259 185L254 184C253.202 194.032 249.697 202.817 262 207L262 206L260 202L268 199L269 199C273.556 202.295 277.68 198.809 279 194L274 192L275 188L279 191L272 181L271 181L273 185L266 186L270 182L268 180L271 180L275 173C270.934 163.565 264.972 151.987 254 150z"/>
<path style="fill:#5b6582; stroke:none;" d="M283 150L281 151L279 156L281 153L282 153L286 155L283 150z"/>
<path style="fill:#fdfcfb; stroke:none;" d="M241 151L242 152L241 151z"/>
<path style="fill:#3b2f2c; stroke:none;" d="M282 151L283 152L282 151M168 157L172 152L168 157z"/>
<path style="fill:#a34927; stroke:none;" d="M207 155C213.55 156.886 228.448 165.207 232 155C224.613 153.729 213.434 149.15 207 155z"/>
<path style="fill:#3b2f2c; stroke:none;" d="M286 152L285 157L309 163L309 171C314.276 168.195 315.549 164.533 317 159L313 164L312 164L312 159L286 152z"/>
<path style="fill:#dfab40; stroke:none;" d="M142 153L143 154L142 153M279 153L280 154L279 153z"/>
<path style="fill:#3b2f2c; stroke:none;" d="M281 153L284 156L284 155L281 153z"/>
<path style="fill:#fdfcfb; stroke:none;" d="M303 153L304 154L303 153z"/>
<path style="fill:#5b6582; stroke:none;" d="M310 153L307 158L312 159L311 162L314 161L310 153z"/>
<path style="fill:#fdfcfb; stroke:none;" d="M313 153L313 156L314 156L313 153z"/>
<path style="fill:#dfab40; stroke:none;" d="M140 154L141 155L140 154z"/>
<path style="fill:#a34927; stroke:none;" d="M234 154L235 155L234 154z"/>
<path style="fill:#dfab40; stroke:none;" d="M278 154L279 155L278 154z"/>
<path style="fill:#a34927; stroke:none;" d="M294 154L295 155L294 154z"/>
<path style="fill:#5b6582; stroke:none;" d="M295 154L296 155L295 154z"/>
<path style="fill:#fdfcfb; stroke:none;" d="M304 154L304 155L308 156L304 154z"/>
<path style="fill:#dfab40; stroke:none;" d="M139 155L140 156L139 155z"/>
<path style="fill:#a34927; stroke:none;" d="M281 155L308 166L309 163L286 155L281 155z"/>
<path style="fill:#5b6582; stroke:none;" d="M298 155L298 156L302 156L298 155M315 155L314 160L317 159L315 155z"/>
<path style="fill:#dfab40; stroke:none;" d="M137 156L138 157L137 156z"/>
<path style="fill:#3b2f2c; stroke:none;" d="M139 156L138 158L140 158L139 156z"/>
<path style="fill:#a34927; stroke:none;" d="M233.667 156.333L234.333 156.667L233.667 156.333z"/>
<path style="fill:#3b2f2c; stroke:none;" d="M262.667 156.333L263.333 156.667L262.667 156.333z"/>
<path style="fill:#dfab40; stroke:none;" d="M280 156L274 170C276.663 179.956 295.706 186.077 305 188C302.644 180.879 309.177 173.76 307.268 167.108C305.494 160.929 285.73 157.868 280 156z"/>
<path style="fill:#5b6582; stroke:none;" d="M293 156L293 157L296 157L293 156M304.667 156.333L305.333 156.667L304.667 156.333z"/>
<path style="fill:#dfab40; stroke:none;" d="M136 157L137 158L136 157z"/>
<path style="fill:#3b2f2c; stroke:none;" d="M144 157C140.751 160.527 137.763 164.071 143 167C145.549 163.269 147.498 160.584 144 157M156 164C160.786 163.628 162.386 161.81 162 157C157.669 157.903 156.338 159.625 156 164z"/>
<path style="fill:#fdfcfb; stroke:none;" d="M239 157L236 159L236 160L239 157z"/>
<path style="fill:#3b2f2c; stroke:none;" d="M136 158L136 160L138 158L136 158M264 158L266 161L264 158z"/>
<path style="fill:#dfab40; stroke:none;" d="M317 158L317 161L318 161L317 158M133 159L134 160L133 159z"/>
<path style="fill:#3b2f2c; stroke:none;" d="M169 168C173.126 166.496 174.318 164.252 175 160C169.494 159.527 168.086 163.019 169 168M258 159C258.375 163.746 260.333 165.889 265 164L258 159z"/>
<path style="fill:#dfab40; stroke:none;" d="M132 160L133 161L132 160M268 160L272 168L273 168L268 160z"/>
<path style="fill:#5b6582; stroke:none;" d="M316 160L316 164L317 164L316 160z"/>
<path style="fill:#dfab40; stroke:none;" d="M131 161L132 162L131 161M312.333 161.667L312.667 162.333L312.333 161.667M130 162L131 163L130 162M129 163L130 164L129 163z"/>
<path style="fill:#5b6582; stroke:none;" d="M312 163L313 164L312 163z"/>
<path style="fill:#dfab40; stroke:none;" d="M128.333 164.667L128.667 165.333L128.333 164.667z"/>
<path style="fill:#3b2f2c; stroke:none;" d="M149 165C146.367 169.406 146.02 172.53 151 175L151 165L149 165z"/>
<path style="fill:#5b6582; stroke:none;" d="M315 165L316 166L315 165z"/>
<path style="fill:#dfab40; stroke:none;" d="M127 166L128 167L127 166z"/>
<path style="fill:#3b2f2c; stroke:none;" d="M129 166L130 167L129 166M161 181C166.602 178.141 164.537 172.421 166 167C156.145 165.591 161.422 175.621 161 181z"/>
<path style="fill:#dfab40; stroke:none;" d="M315 166L316 167L315 166z"/>
<path style="fill:#3b2f2c; stroke:none;" d="M128 167C122.327 175.335 122.036 187.57 125 197L141 193L141 192C129.673 191.142 130.202 191.52 125 182L131 180C131.469 183.991 136.186 186.384 138.45 181.851C139.839 179.07 138.62 175.821 138 173L131 176L128 167z"/>
<path style="fill:#5b6582; stroke:none;" d="M314 167L315 168L314 167z"/>
<path style="fill:#dfab40; stroke:none;" d="M126 168L127 169L126 168z"/>
<path style="fill:#3b2f2c; stroke:none;" d="M172 168L169 175C171.94 173.284 173.147 171.334 172 168M258 168L259 169L258 168z"/>
<path style="fill:#dfab40; stroke:none;" d="M273.333 168.667L273.667 169.333L273.333 168.667z"/>
<path style="fill:#5b6582; stroke:none;" d="M313 168L312 170L313 168z"/>
<path style="fill:#dfab40; stroke:none;" d="M125 169L126 170L125 169z"/>
<path style="fill:#5b6582; stroke:none;" d="M308.333 169.667L308.667 170.333L308.333 169.667z"/>
<path style="fill:#dfab40; stroke:none;" d="M313 169L314 170L313 169z"/>
<path style="fill:#5b6582; stroke:none;" d="M125 170L126 171L125 170z"/>
<path style="fill:#3b2f2c; stroke:none;" d="M267 171L269 175L273 172L267 171z"/>
<path style="fill:#5b6582; stroke:none;" d="M310 170L311 171L310 170z"/>
<path style="fill:#dfab40; stroke:none;" d="M311 170L312 171L311 170M124.333 171.667L124.667 172.333L124.333 171.667z"/>
<path style="fill:#5b6582; stroke:none;" d="M124 173L125 174L124 173z"/>
<path style="fill:#dfab40; stroke:none;" d="M273 173L274 174L273 173M123.333 174.667L123.667 175.333L123.333 174.667z"/>
<path style="fill:#3b2f2c; stroke:none;" d="M155 174C154.363 177.332 154.706 178.842 158 180L155 174M167 174L168 175L167 174z"/>
<path style="fill:#dfab40; stroke:none;" d="M174.333 174.667L174.667 175.333L174.333 174.667z"/>
<path style="fill:#3b2f2c; stroke:none;" d="M260 175C261.915 178.435 263.509 178.622 267 177L260 175z"/>
<path style="fill:#a34927; stroke:none;" d="M123 176L123 182L124 182L123 176z"/>
<path style="fill:#dfab40; stroke:none;" d="M270.333 176.667L270.667 177.333L270.333 176.667M122 178L122 184L123 184L122 178z"/>
<path style="fill:#3b2f2c; stroke:none;" d="M144 178C141.383 190.682 155.993 180.501 144 178z"/>
<path style="fill:#dfab40; stroke:none;" d="M271 178C273.41 188.255 283.601 197.872 293 202L289 207L289 208L293 211L290 208L290 207L296 203L293 202L293 201L300 199L297 202L297 203C302.504 200.37 304.481 195.897 305 190C291.414 189.324 280.799 187.947 271 178z"/>
<path style="fill:#3b2f2c; stroke:none;" d="M256 179L255 185L259 185L256 179M268 180L270 181L270 182L266 186L273 185L270 179L268 180M267 181L268 182L267 181M154 185L157 182L154 185z"/>
<path style="fill:#fdfcfb; stroke:none;" d="M158 185L159 188C151.764 190.354 136.603 191.871 132 198L151 200.017L162 195L163 198L167 198L171 188C168.552 181.037 163.742 182.732 158 185z"/>
<path style="fill:#a34927; stroke:none;" d="M122 184L123 185L122 184M171 184L172 185L171 184z"/>
<path style="fill:#dfab40; stroke:none;" d="M122 185L122 190L123 190L122 185z"/>
<path style="fill:#3b2f2c; stroke:none;" d="M260 188L264 185L260 188z"/>
<path style="fill:#a34927; stroke:none;" d="M123 186L123 189L124 189L123 186z"/>
<path style="fill:#dfab40; stroke:none;" d="M158.333 186.667L158.667 187.333L158.333 186.667z"/>
<path style="fill:#3b2f2c; stroke:none;" d="M155.667 187.333L156.333 187.667L155.667 187.333z"/>
<path style="fill:#dfab40; stroke:none;" d="M156.667 188.333L157.333 188.667L156.667 188.333z"/>
<path style="fill:#a34927; stroke:none;" d="M171 188L177 197C177.133 192.741 175.063 189.279 171 188z"/>
<path style="fill:#3b2f2c; stroke:none;" d="M275 188L274 192L279 194C276.912 198.621 273.95 201.094 269 199L268 199L260 202L260 206C264.201 205.57 267.864 203.022 272 202.789C278.345 202.433 288.124 208.858 292 202L275 188M148 189L149 190L148 189z"/>
<path style="fill:#dfab40; stroke:none;" d="M152 189L152 190L155 190L152 189z"/>
<path style="fill:#3b2f2c; stroke:none;" d="M145 190L145 191L148 191L145 190z"/>
<path style="fill:#dfab40; stroke:none;" d="M149 190L149 191L152 191L149 190z"/>
<path style="fill:#3b2f2c; stroke:none;" d="M267 190C261.476 203.289 279.768 192.835 267 190z"/>
<path style="fill:#dfab40; stroke:none;" d="M146.667 191.333L147.333 191.667L146.667 191.333z"/>
<path style="fill:#3b2f2c; stroke:none;" d="M254 191C253.382 195.917 252.225 199.74 258 201C260.903 195.116 262.312 191.272 254 191z"/>
<path style="fill:#5b6582; stroke:none;" d="M123 192L124 193L123 192z"/>
<path style="fill:#dfab40; stroke:none;" d="M143.667 192.333L144.333 192.667L143.667 192.333z"/>
<path style="fill:#a34927; stroke:none;" d="M279 192L280 193L279 192z"/>
<path style="fill:#dfab40; stroke:none;" d="M123 193L124 194L123 193z"/>
<path style="fill:#a34927; stroke:none;" d="M138.667 193.333L139.333 193.667L138.667 193.333z"/>
<path style="fill:#dfab40; stroke:none;" d="M140.667 193.333L141.333 193.667L140.667 193.333z"/>
<path style="fill:#a34927; stroke:none;" d="M280 193L281 194L280 193z"/>
<path style="fill:#5b6582; stroke:none;" d="M135 194L136 195L135 194z"/>
<path style="fill:#dfab40; stroke:none;" d="M136.667 194.333L137.333 194.667L136.667 194.333z"/>
<path style="fill:#a34927; stroke:none;" d="M281 194L282 195L281 194z"/>
<path style="fill:#5b6582; stroke:none;" d="M124.333 195.667L124.667 196.333L124.333 195.667z"/>
<path style="fill:#a34927; stroke:none;" d="M131 195L132 196L131 195z"/>
<path style="fill:#5b6582; stroke:none;" d="M127 196L128 197L127 196M284 196L285 197L284 196M285 197L286 198L285 197z"/>
<path style="fill:#a34927; stroke:none;" d="M286 198L287 199L286 198z"/>
<path style="fill:#fdfcfb; stroke:none;" d="M164 199L165 200L164 199z"/>
<path style="fill:#a34927; stroke:none;" d="M287 199L288 200L287 199z"/>
<path style="fill:#5b6582; stroke:none;" d="M293 201L293 202L300 199L293 201z"/>
<path style="fill:#fdfcfb; stroke:none;" d="M161 200L162 201L161 200z"/>
<path style="fill:#a34927; stroke:none;" d="M179 200C179.877 205.822 181.869 209.311 188 210L188 209L179 200z"/>
<path style="fill:#5b6582; stroke:none;" d="M289 200L290 201L289 200z"/>
<path style="fill:#fdfcfb; stroke:none;" d="M252 201L243 220L260 208L252 201z"/>
<path style="fill:#5b6582; stroke:none;" d="M290.667 201.333L291.333 201.667L290.667 201.333z"/>
<path style="fill:#a34927; stroke:none;" d="M270 202L271 203L270 202M272 202L273 203L272 202z"/>
<path style="fill:#5b6582; stroke:none;" d="M292.333 202.667L292.667 203.333L292.333 202.667z"/>
<path style="fill:#fdfcfb; stroke:none;" d="M176 203C175.275 210.019 176.587 213.386 184 215L185 211L176 203z"/>
<path style="fill:#a34927; stroke:none;" d="M268 203L269 204L268 203z"/>
<path style="fill:#5b6582; stroke:none;" d="M242 226L243 230L244 230L247 229L248 224C254.437 225.006 261.746 221.746 265 216C269.834 216.744 274.287 214.263 279.004 215.053C295.295 217.784 297.799 231.627 296 245L297 245C298.923 235.677 300.106 227.127 296.394 218C294.673 213.768 291.174 210.368 290 206C273.146 201.638 247.455 205.535 242 226M291 204L292 205L291 204M290 205L291 206L290 205z"/>
<path style="fill:#dfab40; stroke:none;" d="M269 206L269 207L276 208L269 206M279.667 208.333L280.333 208.667L279.667 208.333M257 209L258 210L257 209z"/>
<path style="fill:#fdfcfb; stroke:none;" d="M188 210L188 211L218 214C211.177 207.606 196.735 210 188 210z"/>
<path style="fill:#dfab40; stroke:none;" d="M256 210L257 211L256 210M255 211L256 212L255 211M258 211L259 212L258 211M253 212L254 213L253 212M293 212L294 213L293 212M252 213L253 214L252 213M294.333 213.667L294.667 214.333L294.333 213.667M251 214L252 215L251 214z"/>
<path style="fill:#3b2f2c; stroke:none;" d="M265 216C260.624 221.129 254.792 224.341 248 224L247 229L244 230L243 230L244 225L243 225C230.756 239.282 206.227 226.153 191 230L191 232C196.456 234.268 205.065 235.126 209.752 238.178C214.297 241.138 209.655 245.36 205.999 245.837C198.899 246.764 192.966 240.984 186 242C189.948 256.083 186.675 273.493 186.039 288C185.128 308.81 185.716 331.376 188.424 352C190.109 364.828 186.586 379.009 204 376.711C206.787 376.343 210.343 375.872 212.254 373.567C216.797 368.085 211.972 348.826 211.155 342C208.934 323.439 207.993 305.743 208 287C208.003 279.59 207.416 267.962 210.589 261.148C213.061 255.838 230.287 257.017 236 253L235 256L276 226C278.46 243.254 247.245 270.811 276 276L273 284L276 285L276 278C287.334 270.887 305.373 237.76 294.971 224.843C285.737 213.376 277.305 216.501 265 216z"/>
<path style="fill:#dfab40; stroke:none;" d="M249 215L250 216L249 215M295 215L296 216L295 215z"/>
<path style="fill:#a34927; stroke:none;" d="M140 216L141 217L140 216z"/>
<path style="fill:#dfab40; stroke:none;" d="M248 216L249 217L248 216M247 217L248 218L247 217M296 217L297 218L296 217z"/>
<path style="fill:#a34927; stroke:none;" d="M186 218L186 219C192.015 220.778 214.413 223.955 218 219L186 218z"/>
<path style="fill:#dfab40; stroke:none;" d="M246 218L247 219L246 218z"/>
<path style="fill:#a34927; stroke:none;" d="M143 219L144 220L143 219z"/>
<path style="fill:#fdfcfb; stroke:none;" d="M184 219L188 222L184 219z"/>
<path style="fill:#dfab40; stroke:none;" d="M245 219L246 220L245 219M297 219L297 222L298 222L297 219z"/>
<path style="fill:#fdfcfb; stroke:none;" d="M189 220L189 221L210 223L189 220z"/>
<path style="fill:#dfab40; stroke:none;" d="M196 220L196 221L206 221L196 220z"/>
<path style="fill:#a34927; stroke:none;" d="M242 221L242 224L243 224L242 221z"/>
<path style="fill:#dfab40; stroke:none;" d="M298 222L298 225L299 225L298 222z"/>
<path style="fill:#3b2f2c; stroke:none;" d="M244.667 224.333L245.333 224.667L244.667 224.333z"/>
<path style="fill:#dfab40; stroke:none;" d="M299 225L299 235L300 235L299 225z"/>
<path style="fill:#a34927; stroke:none;" d="M241 226L242 227L241 226z"/>
<path style="fill:#5b6582; stroke:none;" d="M273 226L274 227L273 226M275 226L276 232L277 232L275 226M241 227L242 228L241 227z"/>
<path style="fill:#dfab40; stroke:none;" d="M272 227L273 228L272 227z"/>
<path style="fill:#a34927; stroke:none;" d="M187 229L187 231L191 232C195.185 227.981 200.72 230.729 206 230.961C217.521 231.466 229.795 231.899 241 229L241 228L216 228L187 229z"/>
<path style="fill:#dfab40; stroke:none;" d="M271 228L272 229L271 228M275 228L276 229L275 228M270 229L271 230L270 229z"/>
<path style="fill:#5b6582; stroke:none;" d="M268 230L269 231L268 230z"/>
<path style="fill:#dfab40; stroke:none;" d="M269 230L270 231L269 230z"/>
<path style="fill:#fdfcfb; stroke:none;" d="M185 231L189 234L185 231z"/>
<path style="fill:#dfab40; stroke:none;" d="M268 231L269 232L268 231z"/>
<path style="fill:#a34927; stroke:none;" d="M191.667 232.333L192.333 232.667L191.667 232.333z"/>
<path style="fill:#5b6582; stroke:none;" d="M266 232L264 235L266 232z"/>
<path style="fill:#dfab40; stroke:none;" d="M267 232L268 233L267 232M275.333 232.667L275.667 233.333L275.333 232.667z"/>
<path style="fill:#5b6582; stroke:none;" d="M194 233L195 234L194 233z"/>
<path style="fill:#dfab40; stroke:none;" d="M266 233L267 234L266 233z"/>
<path style="fill:#fdfcfb; stroke:none;" d="M190 234L190 235L206 239L190 234z"/>
<path style="fill:#dfab40; stroke:none;" d="M195 234L196 235L195 234z"/>
<path style="fill:#5b6582; stroke:none;" d="M196 234L197 235L196 234z"/>
<path style="fill:#dfab40; stroke:none;" d="M265 234L266 235L265 234z"/>
<path style="fill:#5b6582; stroke:none;" d="M275 234L262 262L263 262C267.285 255.504 277.408 242.166 275 234z"/>
<path style="fill:#dfab40; stroke:none;" d="M197 235L198 236L197 235z"/>
<path style="fill:#5b6582; stroke:none;" d="M198 235L199 236L198 235M263 235L264 236L263 235z"/>
<path style="fill:#dfab40; stroke:none;" d="M199.667 236.333L200.333 236.667L199.667 236.333z"/>
<path style="fill:#5b6582; stroke:none;" d="M201.667 236.333L202.333 236.667L201.667 236.333M262 236L263 237L262 236z"/>
<path style="fill:#dfab40; stroke:none;" d="M274 236L275 237L274 236z"/>
<path style="fill:#a34927; stroke:none;" d="M167 237L168 238L167 237z"/>
<path style="fill:#5b6582; stroke:none;" d="M209 237L210 238L209 237M261 237L262 238L261 237M211 238L212 239L211 238M259 238L257 241L259 238z"/>
<path style="fill:#dfab40; stroke:none;" d="M260 238L261 239L260 238M298 238L298 241L299 241L298 238M259 239L260 240L259 239M273 239L274 240L273 239z"/>
<path style="fill:#5b6582; stroke:none;" d="M212 240L212 243L213 243L212 240M215 240L216 241L215 240z"/>
<path style="fill:#dfab40; stroke:none;" d="M258 240L259 241L258 240z"/>
<path style="fill:#a34927; stroke:none;" d="M186 241L187 242L186 241M189 241L190 242L189 241z"/>
<path style="fill:#5b6582; stroke:none;" d="M190 241L191 242L190 241M256 241L257 242L256 241z"/>
<path style="fill:#dfab40; stroke:none;" d="M272 241L273 242L272 241z"/>
<path style="fill:#5b6582; stroke:none;" d="M192.667 242.333L193.333 242.667L192.667 242.333M254 242L253 244L254 242z"/>
<path style="fill:#dfab40; stroke:none;" d="M255 242L256 243L255 242M297.333 242.667L297.667 243.333L297.333 242.667z"/>
<path style="fill:#5b6582; stroke:none;" d="M186.333 243.667L186.667 244.333L186.333 243.667M194.667 243.333L195.333 243.667L194.667 243.333M211 243L212 244L211 243z"/>
<path style="fill:#dfab40; stroke:none;" d="M254 243L255 244L254 243M271 243L272 244L271 243z"/>
<path style="fill:#a34927; stroke:none;" d="M197 244L197 245L200 245L197 244M200 245L200 246L211 245L200 245z"/>
<path style="fill:#5b6582; stroke:none;" d="M252 244L253 245L252 244z"/>
<path style="fill:#dfab40; stroke:none;" d="M186.333 245.667L186.667 246.333L186.333 245.667z"/>
<path style="fill:#5b6582; stroke:none;" d="M250 245L249 247L250 245z"/>
<path style="fill:#dfab40; stroke:none;" d="M251 245L252 246L251 245M270 245L271 246L270 245M296 245L297 246L296 245M250 246L251 247L250 246z"/>
<path style="fill:#5b6582; stroke:none;" d="M295.333 246.667L295.667 247.333L295.333 246.667M187 247L187 252L188 252L187 247M248 247L249 248L248 247z"/>
<path style="fill:#dfab40; stroke:none;" d="M269 247L270 248L269 247z"/>
<path style="fill:#5b6582; stroke:none;" d="M246 248L247 249L246 248z"/>
<path style="fill:#dfab40; stroke:none;" d="M247 248L248 249L247 248M295 248L296 249L295 248z"/>
<path style="fill:#5b6582; stroke:none;" d="M245 249L246 250L245 249z"/>
<path style="fill:#dfab40; stroke:none;" d="M268 249L269 250L268 249z"/>
<path style="fill:#5b6582; stroke:none;" d="M294 249L292 255L293 255L294 249M243 250L244 251L243 250z"/>
<path style="fill:#dfab40; stroke:none;" d="M244 250L245 251L244 250z"/>
<path style="fill:#5b6582; stroke:none;" d="M242 251L243 252L242 251z"/>
<path style="fill:#dfab40; stroke:none;" d="M267 251L268 252L267 251M294 251L295 252L294 251z"/>
<path style="fill:#5b6582; stroke:none;" d="M240 252L241 253L240 252z"/>
<path style="fill:#dfab40; stroke:none;" d="M241 252L242 253L241 252z"/>
<path style="fill:#5b6582; stroke:none;" d="M235 253L230 256L230 257C232.798 256.562 235.078 256.109 235 253z"/>
<path style="fill:#dfab40; stroke:none;" d="M239 253L240 254L239 253M266 253L267 254L266 253M293 253L294 254L293 253z"/>
<path style="fill:#5b6582; stroke:none;" d="M237 254L238 255L237 254z"/>
<path style="fill:#dfab40; stroke:none;" d="M238 254L239 255L238 254M265 254L266 255L265 254z"/>
<path style="fill:#5b6582; stroke:none;" d="M236 255L237 256L236 255z"/>
<path style="fill:#dfab40; stroke:none;" d="M292 255L293 256L292 255M186 256L186 268L187 268L186 256M234 256L235 257L234 256M264 256L265 257L264 256z"/>
<path style="fill:#5b6582; stroke:none;" d="M267 256L268 257L267 256M291 256L288 263L289 263L291 256M225 257L225 258L228 258L225 257z"/>
<path style="fill:#dfab40; stroke:none;" d="M228 257L228 258L233 258L228 257M291 257L292 258L291 257z"/>
<path style="fill:#5b6582; stroke:none;" d="M210 337L211 337L211 259L223 259C208.993 253.122 209.827 266.476 208.576 276C205.904 296.339 209.429 316.854 210 337z"/>
<path style="fill:#dfab40; stroke:none;" d="M223 258L223 259L226 259L223 258M263 258L264 259L263 258M211 259L212 260L211 259M290 259L291 260L290 259M262 260L263 261L262 260M289 261L290 262L289 261M261 262L258 264L258 265L262 263L261 262z"/>
<path style="fill:#5b6582; stroke:none;" d="M261 263C256.445 267.487 253.56 273.634 253 280L254 280L254 278L255 278L257 284L256 282L257 282L272 288L264 288L264 289C275.523 291.106 278.77 282.512 282 273L281 273L276 277L276 278L278 279L276 285L273 284L276 276C268.812 273.885 264.087 269.721 261 263M263 263L264 264L263 263z"/>
<path style="fill:#dfab40; stroke:none;" d="M288 263L289 264L288 263M287 264L288 265L287 264z"/>
<path style="fill:#5b6582; stroke:none;" d="M263 265L264 266L263 265M286 265L283 271L284 271L286 265z"/>
<path style="fill:#dfab40; stroke:none;" d="M210 266L210 276L211 276L210 266M257.333 266.667L257.667 267.333L257.333 266.667M286 266L287 267L286 266z"/>
<path style="fill:#5b6582; stroke:none;" d="M186 268L186 284L187 284L186 268z"/>
<path style="fill:#3b2f2c; stroke:none;" d="M258 268L259 269L258 268z"/>
<path style="fill:#dfab40; stroke:none;" d="M285 268L286 269L285 268M256 269L257 270L256 269M255 270L256 271L255 270z"/>
<path style="fill:#3b2f2c; stroke:none;" d="M257.333 270.667L257.667 271.333L257.333 270.667z"/>
<path style="fill:#dfab40; stroke:none;" d="M284 270L285 271L284 270z"/>
<path style="fill:#3b2f2c; stroke:none;" d="M259 271L260 272L259 271z"/>
<path style="fill:#dfab40; stroke:none;" d="M283 271L284 272L283 271M254 272L255 273L254 272z"/>
<path style="fill:#5b6582; stroke:none;" d="M282 272L283 273L282 272z"/>
<path style="fill:#dfab40; stroke:none;" d="M253.333 274.667L253.667 275.333L253.333 274.667M281 274L282 275L281 274z"/>
<path style="fill:#3b2f2c; stroke:none;" d="M254 276L255 277L254 276z"/>
<path style="fill:#dfab40; stroke:none;" d="M280 276L282 278L282 276L280 276z"/>
<path style="fill:#3b2f2c; stroke:none;" d="M254 278L254 281L255 281L254 278z"/>
<path style="fill:#dfab40; stroke:none;" d="M253 280L254 281L253 280z"/>
<path style="fill:#3b2f2c; stroke:none;" d="M258.667 280.333L259.333 280.667L258.667 280.333M266 281L266 282L272 285L273 280L266 281z"/>
<path style="fill:#dfab40; stroke:none;" d="M279 280L280 281L279 280z"/>
<path style="fill:#3b2f2c; stroke:none;" d="M255 281L256 282L255 281M256 282L256 287L256 288L272 288C268.286 282.295 262.088 283.594 256 282z"/>
<path style="fill:#dfab40; stroke:none;" d="M255 283L256 286L257 286L255 283M277 283L278 284L277 283M251.667 284.333L252.333 284.667L251.667 284.333z"/>
<path style="fill:#a34927; stroke:none;" d="M251 285L252 291L251 291L251 288L250 288L248.573 315.097L252 318C262.866 330.916 279.873 317.121 284 306L273 304L270 297L264 299L264 288L256 288L256 287L259 287C258.421 285.09 258.015 283.666 257 286L251 285z"/>
<path style="fill:#dfab40; stroke:none;" d="M276 285L277 286L276 285M250.333 286.667L250.667 287.333L250.333 286.667z"/>
<path style="fill:#3b2f2c; stroke:none;" d="M273 286L274 287L273 286z"/>
<path style="fill:#dfab40; stroke:none;" d="M275 286L276 287L275 286z"/>
<path style="fill:#3b2f2c; stroke:none;" d="M251 287L251 291L252 291L251 287z"/>
<path style="fill:#dfab40; stroke:none;" d="M185 288L185 314L186 314L185 288M274 288L275 289L274 288M264 289L264 299C266.938 298.768 269.545 296.476 270 300L271 300L274 289L264 289z"/>
<path style="fill:#3b2f2c; stroke:none;" d="M251 293L252 294L251 293z"/>
<path style="fill:#dfab40; stroke:none;" d="M209 295L209 308L210 308L209 295M250 296L250 305L251 305L250 296M272 300L275 304L272 300M277 303L278 306L279 306L280 303L277 303z"/>
<path style="fill:#5b6582; stroke:none;" d="M197 304L198 305L197 304z"/>
<path style="fill:#dfab40; stroke:none;" d="M283 310L284 310L290 306C286.01 304.372 283.878 305.975 283 310M279 306L279 307L283 307L279 306M300 308L301 309L300 308z"/>
<path style="fill:#5b6582; stroke:none;" d="M301 308L301 309L311 316L311 324L328 325L328 324L320 321C316.652 314.881 307.576 309.935 301 308z"/>
<path style="fill:#dfab40; stroke:none;" d="M303 308L304 309L303 308z"/>
<path style="fill:#3b2f2c; stroke:none;" d="M251 309L252 310L251 309z"/>
<path style="fill:#dfab40; stroke:none;" d="M302 309L303 310L302 309M305 309L306 310L305 309M249 310L248 313L249 310M282 310L283 311L282 310M304 310L305 311L304 310M281 311L282 312L281 311M305 311L306 312L305 311M308 311L309 312L308 311M306 312L307 313L306 312M238 313L238 314L242 314L238 313z"/>
<path style="fill:#5b6582; stroke:none;" d="M242 313L242 314L248 314L242 313z"/>
<path style="fill:#dfab40; stroke:none;" d="M280 313L281 314L280 313M307 313L308 314L307 313M311 313L312 314L311 313M228 314L228 315L231 315L228 314z"/>
<path style="fill:#5b6582; stroke:none;" d="M231 314L231 315L238 315L231 314z"/>
<path style="fill:#3b2f2c; stroke:none;" d="M241 422L242 422L241 420L243 422L244 422C245.186 417.065 246.831 413.347 252 412L252 405L253 405C253 413.02 255.779 426.879 250 433L243 424L256.093 440.937L271 440.12L306 434L307 435L306 445L310 442L309 447L306 446L306 468C317.352 469.99 324.091 449.54 329 441C332.496 434.918 340.882 430.449 343.258 424.892C345.694 419.194 344.998 409.189 345 403C345.005 390.388 345.487 377.615 346.039 365C346.325 358.488 350.518 341.725 345.397 336.603C340.178 331.385 319.868 337.408 313 337.911C299.622 338.892 286.356 340.833 273 342.075C268.66 342.478 262.497 344.496 258.289 342.893C252.225 340.582 246.49 332.49 242 328L261 328L261 327C254.37 323.858 248.268 322.247 248 314C242.386 314.001 229.581 312.856 225.603 317.434C221.008 322.722 224 339.251 224 346C224 361.13 219.472 384.863 224.843 399C227.99 407.281 235.761 414.927 241 422z"/>
<path style="fill:#dfab40; stroke:none;" d="M279.333 314.667L279.667 315.333L279.333 314.667z"/>
<path style="fill:#3b2f2c; stroke:none;" d="M309 314L310 315L309 314z"/>
<path style="fill:#dfab40; stroke:none;" d="M226 315L227 316L226 315z"/>
<path style="fill:#5b6582; stroke:none;" d="M227 315L228 316L227 315z"/>
<path style="fill:#dfab40; stroke:none;" d="M314 315L315 316L314 315z"/>
<path style="fill:#5b6582; stroke:none;" d="M186 316L186 329L187 329L186 316M225 316L226 317L225 316z"/>
<path style="fill:#3b2f2c; stroke:none;" d="M250 316L251 317L250 316z"/>
<path style="fill:#dfab40; stroke:none;" d="M278 316L279 317L278 316M309.333 316.667L309.667 317.333L309.333 316.667z"/>
<path style="fill:#3b2f2c; stroke:none;" d="M310 316L311 317L310 316z"/>
<path style="fill:#5b6582; stroke:none;" d="M224 317L225 318L224 317M248 317L249 318L248 317z"/>
<path style="fill:#dfab40; stroke:none;" d="M277 317L278 318L277 317M317 317L318 318L317 317M248 318C250.788 323.363 256.722 324.609 262 326.85C274.939 332.346 298.466 338.487 311 329L311 328L309 326C299.854 328.57 274.12 333.711 268 324L262 325L262 324L264 324L264 323L254 322L254 321L257 321L257 320L248 318z"/>
<path style="fill:#3b2f2c; stroke:none;" d="M251 318L252 319L251 318z"/>
<path style="fill:#dfab40; stroke:none;" d="M319 318L320 319L319 318z"/>
<path style="fill:#5b6582; stroke:none;" d="M223 319L223 398L224 398L224 344L223 319z"/>
<path style="fill:#fdfcfb; stroke:none;" d="M249 319L250 320L249 319z"/>
<path style="fill:#dfab40; stroke:none;" d="M276 319L277 320L276 319M310 319L310 322L311 322L310 319z"/>
<path style="fill:#3b2f2c; stroke:none;" d="M318 319L319 320L318 319z"/>
<path style="fill:#dfab40; stroke:none;" d="M320 319L321 320L320 319z"/>
<path style="fill:#5b6582; stroke:none;" d="M197 320L197 329C200.403 328.271 199.987 326.194 200 323L202 324L202 320L197 320z"/>
<path style="fill:#dfab40; stroke:none;" d="M210 320L210 325L211 325L210 320z"/>
<path style="fill:#5b6582; stroke:none;" d="M248 320L249 321L248 320z"/>
<path style="fill:#dfab40; stroke:none;" d="M275 320L276 321L275 320z"/>
<path style="fill:#3b2f2c; stroke:none;" d="M320 320L321 321L320 320z"/>
<path style="fill:#dfab40; stroke:none;" d="M322 320L323 321L322 320z"/>
<path style="fill:#5b6582; stroke:none;" d="M249 321L250 322L249 321z"/>
<path style="fill:#dfab40; stroke:none;" d="M259 321L259 322L264 322L259 321M273.667 321.333L274.333 321.667L273.667 321.333z"/>
<path style="fill:#5b6582; stroke:none;" d="M251 322L252 323L251 322z"/>
<path style="fill:#dfab40; stroke:none;" d="M265 322L265 323L273 323L265 322z"/>
<path style="fill:#3b2f2c; stroke:none;" d="M321 322L322 323L321 322z"/>
<path style="fill:#dfab40; stroke:none;" d="M325 322L326 323L325 322z"/>
<path style="fill:#5b6582; stroke:none;" d="M253 323L254 324L253 323M255.667 324.333L256.333 324.667L255.667 324.333z"/>
<path style="fill:#dfab40; stroke:none;" d="M312 324L312 325L317 325L312 324M326 324L327 325L326 324M328.333 324.667L328.667 325.333L328.333 324.667z"/>
<path style="fill:#5b6582; stroke:none;" d="M257.667 325.333L258.333 325.667L257.667 325.333M329 325L330 326L329 325M260 326L258 328C259.859 333.038 264.201 336.765 269 339L264 342L264 343L270 343L270 342L268 341C278.223 338.323 307.31 346.223 309 331L301 332L301 333L308 332C299.772 339.806 285.874 334.786 276 334L276 333L280 333L280 332L270 332L270 331L272 331L272 330L269 331L266 330L260 326M330 326L331 327L330 326z"/>
<path style="fill:#dfab40; stroke:none;" d="M331.333 326.667L331.667 327.333L331.333 326.667z"/>
<path style="fill:#5b6582; stroke:none;" d="M332 327L334 329L332 327z"/>
<path style="fill:#dfab40; stroke:none;" d="M333 327L334 328L333 327z"/>
<path style="fill:#5b6582; stroke:none;" d="M242 328L242 329L250 329L242 328z"/>
<path style="fill:#dfab40; stroke:none;" d="M250 328L250 329L254 329L259 342C263.2 343.05 266.057 342.198 269 339C262.104 334.161 258.924 328.032 250 328M334.333 328.667L334.667 329.333L334.333 328.667M186 329L186 335L187 335L186 329M243 329L244 330L243 329z"/>
<path style="fill:#fdfcfb; stroke:none;" d="M244 329L260 343L254 329L244 329z"/>
<path style="fill:#3b2f2c; stroke:none;" d="M266 329L267 330L266 329z"/>
<path style="fill:#5b6582; stroke:none;" d="M335 329L335 330L339 332L339 331L335 329z"/>
<path style="fill:#dfab40; stroke:none;" d="M336 329L337 330L336 329z"/>
<path style="fill:#5b6582; stroke:none;" d="M244 330L245 331L244 330z"/>
<path style="fill:#3b2f2c; stroke:none;" d="M269 330L270 331L269 330z"/>
<path style="fill:#5b6582; stroke:none;" d="M245 331L246 332L245 331z"/>
<path style="fill:#3b2f2c; stroke:none;" d="M270 331L270 332L273 332L270 331z"/>
<path style="fill:#dfab40; stroke:none;" d="M337 331L338 332L337 331M339 331L339 333L341 333L339 331z"/>
<path style="fill:#5b6582; stroke:none;" d="M246 332L247 333L246 332z"/>
<path style="fill:#3b2f2c; stroke:none;" d="M274.667 332.333L275.333 332.667L274.667 332.333M276 333L276 334C284.283 335.07 302.193 340.323 308 332L276 333z"/>
<path style="fill:#5b6582; stroke:none;" d="M247 333L248 334L247 333M283 333L283 334L300 334L283 333z"/>
<path style="fill:#dfab40; stroke:none;" d="M309 333L306 337L306 338L311 338L309 333M339 334L339 335L343 334L339 334M211 334L211 338L212 338L211 334z"/>
<path style="fill:#5b6582; stroke:none;" d="M248 334L249 335L248 334M341 334L341 335L344 335L341 334M187 335L187 345L188 345L187 335M249 335L252 338L249 335z"/>
<path style="fill:#dfab40; stroke:none;" d="M250 335L251 336L250 335M329 335L329 336L332 336L329 335z"/>
<path style="fill:#5b6582; stroke:none;" d="M332 335L332 336L336 336L332 335M345 335L346 336L345 335z"/>
<path style="fill:#fdfcfb; stroke:none;" d="M238 336L239 355L240 355C240.568 351.418 241.508 350.057 245 349C245.293 342.702 243.125 339.625 238 336z"/>
<path style="fill:#5b6582; stroke:none;" d="M239 336L240 337L239 336z"/>
<path style="fill:#dfab40; stroke:none;" d="M251 336L252 337L251 336M320 336L320 337L324 337L320 336z"/>
<path style="fill:#5b6582; stroke:none;" d="M324 336L324 337L327 337L324 336z"/>
<path style="fill:#dfab40; stroke:none;" d="M346 336L347 337L346 336z"/>
<path style="fill:#5b6582; stroke:none;" d="M240 337L241 338L240 337z"/>
<path style="fill:#dfab40; stroke:none;" d="M252 337L253 338L252 337M312 337L313 338L312 337z"/>
<path style="fill:#5b6582; stroke:none;" d="M313 337L313 338L317 338L313 337z"/>
<path style="fill:#dfab40; stroke:none;" d="M347.333 337.667L347.667 338.333L347.333 337.667z"/>
<path style="fill:#5b6582; stroke:none;" d="M211 338L211 345L212 345L211 338M241 338L242 339L241 338z"/>
<path style="fill:#dfab40; stroke:none;" d="M253 338L256 341L253 338M239 339L240 340L239 339z"/>
<path style="fill:#5b6582; stroke:none;" d="M242 339L243 340L242 339M253 339L254 340L253 339z"/>
<path style="fill:#dfab40; stroke:none;" d="M268 341L268 342L280 341C275.862 338.525 272.338 339.422 268 341z"/>
<path style="fill:#5b6582; stroke:none;" d="M347 339L347 344L348 344L347 339z"/>
<path style="fill:#dfab40; stroke:none;" d="M238 340L239 376L240 376C245.061 368.211 253.936 349.629 245 342L245 349C241.089 349.652 240.3 351.136 240 355L239 355L238 340M243 340L244 341L243 340z"/>
<path style="fill:#5b6582; stroke:none;" d="M254 340L255 341L254 340z"/>
<path style="fill:#dfab40; stroke:none;" d="M244 341L245 342L244 341M256 341L257 342L256 341z"/>
<path style="fill:#5b6582; stroke:none;" d="M272 341L272 342L279 342L272 341z"/>
<path style="fill:#dfab40; stroke:none;" d="M240 342L241 343L240 342z"/>
<path style="fill:#5b6582; stroke:none;" d="M246 342L247 343L246 342M255 342L256 343L255 342M257 342L261 344L261 343L257 342M247 343L248 344L247 343M248 344L249 345L248 344M335 344L326 351L335 344z"/>
<path style="fill:#dfab40; stroke:none;" d="M347 344L347 354L348 354L347 344M187 345L187 349L188 349L187 345z"/>
<path style="fill:#5b6582; stroke:none;" d="M249 345L245.076 366L239.228 378L240 417L241 417C243.382 412.937 243.36 410.447 242 406L246 392L249.772 379L254 348L249 345z"/>
<path style="fill:#dfab40; stroke:none;" d="M336 345L327 350L327 351L335 347L336 350L337 350L336 345z"/>
<path style="fill:#5b6582; stroke:none;" d="M337 345L338 346L337 345z"/>
<path style="fill:#fdfcfb; stroke:none;" d="M322 358L329 356C329 362.845 327.026 373.183 331 379C334.036 369.643 337.464 356.753 335 347C329.052 349.477 324.689 351.94 322 358z"/>
<path style="fill:#dfab40; stroke:none;" d="M212.333 348.667L212.667 349.333L212.333 348.667z"/>
<path style="fill:#3b2f2c; stroke:none;" d="M251 349L251 351L253 351L251 349z"/>
<path style="fill:#5b6582; stroke:none;" d="M212 350L212 357L213 357L212 350M336 350L336 357L337 357L336 350z"/>
<path style="fill:#dfab40; stroke:none;" d="M325 351L326 352L325 351z"/>
<path style="fill:#5b6582; stroke:none;" d="M188 352L188 357L189 357L188 352z"/>
<path style="fill:#dfab40; stroke:none;" d="M324 352L325 353L324 352M335 352L335 360L336 360L335 352z"/>
<path style="fill:#5b6582; stroke:none;" d="M323 353C314.684 362.473 309 369.294 309 382C309 384.915 307.722 391.454 311 392L309 396C315.477 389.663 308.609 373.696 319 372L324 385L327 380L328 380L330 382L326 390C337.871 390.86 330.784 376.177 340 377L340 373L339 373L336 375L335 370L334 370L330 381L329 381L326 358L311 372L321 360L323 353z"/>
<path style="fill:#dfab40; stroke:none;" d="M323 354L324 355L323 354M322 355L321 360L311 372L326 358C321.873 365.246 327.379 369.477 328 377L329 377L329 356L322 358L322 355z"/>
<path style="fill:#5b6582; stroke:none;" d="M238 356L238 372L239 372L238 356z"/>
<path style="fill:#dfab40; stroke:none;" d="M188 357L188 360L189 360L188 357M213 359L213 362L214 362L213 359z"/>
<path style="fill:#5b6582; stroke:none;" d="M335 360L335 365L336 365L335 360M346 360L346 372L347 372L346 360M213 362L213 368L214 368L213 362z"/>
<path style="fill:#fdfcfb; stroke:none;" d="M320 362L317 366L320 362z"/>
<path style="fill:#5b6582; stroke:none;" d="M189 363L190 364L189 363z"/>
<path style="fill:#dfab40; stroke:none;" d="M334 363L335 364L334 363z"/>
<path style="fill:#5b6582; stroke:none;" d="M189 365L189 369L190 369L189 365z"/>
<path style="fill:#dfab40; stroke:none;" d="M334 366L334 370L335 370L334 366z"/>
<path style="fill:#fdfcfb; stroke:none;" d="M316 367L317 368L316 367z"/>
<path style="fill:#dfab40; stroke:none;" d="M189 369L189 372L190 372L189 369M333 371L334 372L333 371z"/>
<path style="fill:#5b6582; stroke:none;" d="M213 372L189 379L195 379L195 385L192 386L192 388L195 391C199.314 390.158 204.011 391.674 208.154 390.101C215.412 387.346 218.966 377.675 213 372z"/>
<path style="fill:#dfab40; stroke:none;" d="M214 372L214 374L216 374L214 372M332 372L333 373L332 372M334 372L335 373L334 372M346 372L346 378L347 378L346 372z"/>
<path style="fill:#5b6582; stroke:none;" d="M190.333 373.667L190.667 374.333L190.333 373.667M239 373L240 374L239 373z"/>
<path style="fill:#a34927; stroke:none;" d="M286 375L292 383L276.499 385.028L269 395L259 385C258.751 390.795 256.44 396.411 264 397L264 400L268 400L268 401C261.294 402.095 261.978 407.477 263 413L262 413L259 410L259 432L301 425.667L307 422L307 421L305 420C308.21 415.739 304.24 405.287 303 400L309 396C308.428 385.883 297.717 369.383 286 375z"/>
<path style="fill:#3b2f2c; stroke:none;" d="M333 373L333 378L334 378L333 373M320 374L321 375L320 374z"/>
<path style="fill:#dfab40; stroke:none;" d="M189.667 375.333L190.333 375.667L189.667 375.333z"/>
<path style="fill:#3b2f2c; stroke:none;" d="M214 375L211 378L214 383L215 383L214 375z"/>
<path style="fill:#dfab40; stroke:none;" d="M335 376L334 384L335 384L335 376z"/>
<path style="fill:#fdfcfb; stroke:none;" d="M336 376L336 380L340 379L336 376z"/>
<path style="fill:#dfab40; stroke:none;" d="M338 376L339 377L338 376M329 377L329 381L330 381L329 377M339 377L340 378L339 377z"/>
<path style="fill:#3b2f2c; stroke:none;" d="M190 378L192 381C190.584 387.033 191.75 392.638 198 395L199 392L214 393L216 384L195 391L192 388L192 386L195 385L195 379L190 378z"/>
<path style="fill:#dfab40; stroke:none;" d="M189.333 379.667L189.667 380.333L189.333 379.667M337 379L338 380L337 379z"/>
<path style="fill:#5b6582; stroke:none;" d="M338 379L340 383L341 383L341 379L338 379z"/>
<path style="fill:#dfab40; stroke:none;" d="M339 379L340 380L339 379z"/>
<path style="fill:#5b6582; stroke:none;" d="M336 380L337 381L336 380M191 381L190 388L191 388L191 381z"/>
<path style="fill:#dfab40; stroke:none;" d="M332 381L330 389L331 389L332 381z"/>
<path style="fill:#5b6582; stroke:none;" d="M335 382L336 383L335 382z"/>
<path style="fill:#dfab40; stroke:none;" d="M216.333 383.667L216.667 384.333L216.333 383.667z"/>
<path style="fill:#5b6582; stroke:none;" d="M259 384L260 385L259 384z"/>
<path style="fill:#3b2f2c; stroke:none;" d="M276 391L294 389C290.936 381.785 277.294 383.074 276 391z"/>
<path style="fill:#fdfcfb; stroke:none;" d="M331 384L332 385L331 384z"/>
<path style="fill:#5b6582; stroke:none;" d="M337 384C335.388 389.122 333.482 393.035 338 397L336 395L337 384M215.333 386.667L215.667 387.333L215.333 386.667z"/>
<path style="fill:#fdfcfb; stroke:none;" d="M330 386L331 387L330 386z"/>
<path style="fill:#dfab40; stroke:none;" d="M190 388L191 389L190 388M215 388L216 389L215 388z"/>
<path style="fill:#5b6582; stroke:none;" d="M252 388L252 395L253 395L252 388M345 388L345 396L346 396L345 388M191 389L192 392L193 392L191 389z"/>
<path style="fill:#dfab40; stroke:none;" d="M214 389L214 392L215 392L214 389M191 390L192 391L191 390z"/>
<path style="fill:#5b6582; stroke:none;" d="M213.333 390.667L213.667 391.333L213.333 390.667z"/>
<path style="fill:#dfab40; stroke:none;" d="M260 391L261 392L260 391z"/>
<path style="fill:#3b2f2c; stroke:none;" d="M308.333 391.667L308.667 392.333L308.333 391.667z"/>
<path style="fill:#5b6582; stroke:none;" d="M331.333 391.667L331.667 392.333L331.333 391.667z"/>
<path style="fill:#dfab40; stroke:none;" d="M192 392L191 397L192 397L192 392z"/>
<path style="fill:#a34927; stroke:none;" d="M193 392C190.243 401.329 188.386 424.753 193 433C199.917 427.828 207.819 420.572 217 421L215 405L210 406L214 420L206 422L200 424L201 418L198 419L199 413C196.823 409.278 197.138 397.504 201 395L201 394L193 392z"/>
<path style="fill:#5b6582; stroke:none;" d="M199 392C201.818 395.988 208.074 395.844 211 392L199 392z"/>
<path style="fill:#a34927; stroke:none;" d="M211 392L212 393L211 392z"/>
<path style="fill:#5b6582; stroke:none;" d="M214 392L215 393L214 392z"/>
<path style="fill:#dfab40; stroke:none;" d="M310 392L309 395L310 392M211.667 393.333L212.333 393.667L211.667 393.333z"/>
<path style="fill:#a34927; stroke:none;" d="M213 393L213 401L214 401L215 393L213 393z"/>
<path style="fill:#dfab40; stroke:none;" d="M208.667 394.333L209.333 394.667L208.667 394.333z"/>
<path style="fill:#fdfcfb; stroke:none;" d="M199 396C199 401.65 197.203 408.475 201 413L199 418L204 416L202 422L213 419L210 416L211 412L208 406L213 405L211 397L213 394L199 396z"/>
<path style="fill:#3b2f2c; stroke:none;" d="M214 394L214 405L215 405L214 394z"/>
<path style="fill:#dfab40; stroke:none;" d="M198 395L198 404L199 404L199 396L203 396L198 395M335 395L337 399L335 395z"/>
<path style="fill:#5b6582; stroke:none;" d="M334 396C333.324 400.014 333.557 403.527 337 406L338 399L334 396z"/>
<path style="fill:#fdfcfb; stroke:none;" d="M336.333 396.667L336.667 397.333L336.333 396.667z"/>
<path style="fill:#dfab40; stroke:none;" d="M345 396L345 404L346 404L345 396M211 397L212 406C214.887 403.375 213.195 399.681 211 397M223 398L224 399L223 398z"/>
<path style="fill:#3b2f2c; stroke:none;" d="M296 398L297 399L296 398z"/>
<path style="fill:#dfab40; stroke:none;" d="M215 399L215 407L216 407L215 399z"/>
<path style="fill:#5b6582; stroke:none;" d="M224 399L225 400L224 399M225 400L226 401L225 400z"/>
<path style="fill:#dfab40; stroke:none;" d="M272 400L273 401L272 400z"/>
<path style="fill:#5b6582; stroke:none;" d="M308 400L309 412L310 412L311 400L308 400M213 401L214 402L213 401z"/>
<path style="fill:#3b2f2c; stroke:none;" d="M297 401L297 404L302 404L302 401L297 401M335.333 401.667L335.667 402.333L335.333 401.667z"/>
<path style="fill:#dfab40; stroke:none;" d="M226 402L227 403L226 402z"/>
<path style="fill:#5b6582; stroke:none;" d="M227 403L228 404L227 403M331 403L330 407L331 407L331 403z"/>
<path style="fill:#dfab40; stroke:none;" d="M211 404L212 405L211 404M263 404L263 408L264 408L263 404M228 405L229 406L228 405z"/>
<path style="fill:#5b6582; stroke:none;" d="M252 405L252 412C246.389 412.822 244.79 416.764 244 422L243 422L241 420L241 423L250 433C255.275 429.196 254.4 410.72 252 405z"/>
<path style="fill:#dfab40; stroke:none;" d="M334 405L335 408L336 408L336 405L334 405M208 406L208 411L209 411L208 406z"/>
<path style="fill:#5b6582; stroke:none;" d="M209 406L210 407L209 406z"/>
<path style="fill:#dfab40; stroke:none;" d="M229 406L230 407L229 406z"/>
<path style="fill:#3b2f2c; stroke:none;" d="M298 408L302 407L298 408z"/>
<path style="fill:#5b6582; stroke:none;" d="M334.333 406.667L334.667 407.333L334.333 406.667z"/>
<path style="fill:#3b2f2c; stroke:none;" d="M197 407L198 408L197 407M214 407L215 408L214 407z"/>
<path style="fill:#5b6582; stroke:none;" d="M230 407L231 408L230 407z"/>
<path style="fill:#fdfcfb; stroke:none;" d="M209 408L210 409L209 408z"/>
<path style="fill:#dfab40; stroke:none;" d="M197 409C197.506 411.974 197.961 412.856 201 413L197 409M231 409L232 410L231 409z"/>
<path style="fill:#5b6582; stroke:none;" d="M232 410L233 411L232 410M250 410L251 411L250 410z"/>
<path style="fill:#dfab40; stroke:none;" d="M209 411L210 412L209 411z"/>
<path style="fill:#5b6582; stroke:none;" d="M233 411L234 412L233 411M258 411L258 414L259 414L258 411M325 411L325 413L327 413L327 411L325 411z"/>
<path style="fill:#dfab40; stroke:none;" d="M216 412L216 416L217 416L216 412z"/>
<path style="fill:#3b2f2c; stroke:none;" d="M287 412L288 413L287 412M295.667 412.333L296.333 412.667L295.667 412.333z"/>
<path style="fill:#5b6582; stroke:none;" d="M336 412L332 421L332 422L335 421L334 425L335 425C336.772 420.828 338.538 416.08 336 412M344 412L344 421L345 421L344 412z"/>
<path style="fill:#dfab40; stroke:none;" d="M211 413L213 417L211 413M234 413L235 414L234 413M264 413L265 420L266 420L264 413z"/>
<path style="fill:#5b6582; stroke:none;" d="M235 414L236 415L235 414z"/>
<path style="fill:#dfab40; stroke:none;" d="M198 415L200 419L198 415M202 416L201 418L200 417L200 418L202 419L204 416L202 416M217 416L216 422C219.505 421.233 218.68 418.563 217 416z"/>
<path style="fill:#3b2f2c; stroke:none;" d="M304 416L305 417L304 416z"/>
<path style="fill:#dfab40; stroke:none;" d="M191 417L191 420L192 420L191 417z"/>
<path style="fill:#5b6582; stroke:none;" d="M201 417L202 418L201 417z"/>
<path style="fill:#dfab40; stroke:none;" d="M213 417L208 419L208 420C210.499 419.959 214.235 420.275 213 417M237 417L238 418L237 417z"/>
<path style="fill:#5b6582; stroke:none;" d="M238 418L239 419L238 418M309 418L307 422L311 418L309 418M239 419L240 420L239 419z"/>
<path style="fill:#dfab40; stroke:none;" d="M200 420L200 424L203 423L200 420M205 420L206 421L205 420M214 420L215 421L214 420M239 420L240 421L239 420M203 421L204 422L203 421z"/>
<path style="fill:#3b2f2c; stroke:none;" d="M205 421L206 422L205 421z"/>
<path style="fill:#dfab40; stroke:none;" d="M211 421L211 422L214 422L211 421M240 421L241 422L240 421z"/>
<path style="fill:#5b6582; stroke:none;" d="M330 421L330 424L331 424L330 421z"/>
<path style="fill:#dfab40; stroke:none;" d="M334 421L334 424L335 424L334 421M344 421L344 424L345 424L344 421M190.333 422.667L190.667 423.333L190.333 422.667M208 422L209 423L208 422M331 422L332 423L331 422z"/>
<path style="fill:#fdfcfb; stroke:none;" d="M332 422L332 426L333 426L334 422L332 422z"/>
<path style="fill:#dfab40; stroke:none;" d="M206 423L207 424L206 423M205 424L206 425L205 424M242 424L243 425L242 424z"/>
<path style="fill:#3b2f2c; stroke:none;" d="M300 424L301 425L300 424z"/>
<path style="fill:#dfab40; stroke:none;" d="M203 425L204 426L203 425M243 425L244 426L243 425z"/>
<path style="fill:#5b6582; stroke:none;" d="M331 425L332 426L331 425z"/>
<path style="fill:#dfab40; stroke:none;" d="M333 425L334 426L333 425z"/>
<path style="fill:#5b6582; stroke:none;" d="M343 425L344 426L343 425z"/>
<path style="fill:#dfab40; stroke:none;" d="M193 433L192 430L191 430L192 436L203 426L193 433z"/>
<path style="fill:#5b6582; stroke:none;" d="M244 426L245 427L244 426M332.667 426.333L333.333 426.667L332.667 426.333z"/>
<path style="fill:#dfab40; stroke:none;" d="M189 427L190 428L189 427M342 427L343 428L342 427M190.333 428.667L190.667 429.333L190.333 428.667M245 428L246 429L245 428z"/>
<path style="fill:#5b6582; stroke:none;" d="M340 428L341 429L340 428M246 429L247 430L246 429M337.667 429.333L338.333 429.667L337.667 429.333z"/>
<path style="fill:#dfab40; stroke:none;" d="M339 429L340 430L339 429z"/>
<path style="fill:#5b6582; stroke:none;" d="M247 430L248 431L247 430M265 432L268 430L265 432z"/>
<path style="fill:#dfab40; stroke:none;" d="M335 430L336 431L335 430M247 431L248 432L247 431z"/>
<path style="fill:#5b6582; stroke:none;" d="M334 431L335 432L334 431M248 432L249 433L248 432M284 432L285 433L284 432M249 433L250 434L249 433z"/>
<path style="fill:#dfab40; stroke:none;" d="M333 433L334 434L333 433z"/>
<path style="fill:#5b6582; stroke:none;" d="M250 434L251 435L250 434M305 434L306 435L305 434M332 434L333 435L332 434z"/>
<path style="fill:#dfab40; stroke:none;" d="M250 435L251 436L250 435z"/>
<path style="fill:#5b6582; stroke:none;" d="M299.667 435.333L300.333 435.667L299.667 435.333z"/>
<path style="fill:#dfab40; stroke:none;" d="M301.667 435.333L302.333 435.667L301.667 435.333z"/>
<path style="fill:#5b6582; stroke:none;" d="M306 435L307 436L306 435z"/>
<path style="fill:#dfab40; stroke:none;" d="M332 435L333 436L332 435M251 436L252 437L251 436z"/>
<path style="fill:#5b6582; stroke:none;" d="M292.667 436.333L293.333 436.667L292.667 436.333z"/>
<path style="fill:#dfab40; stroke:none;" d="M294.667 436.333L295.333 436.667L294.667 436.333z"/>
<path style="fill:#5b6582; stroke:none;" d="M331 436L332 437L331 436M252 437L253 438L252 437M286 437L286 438L289 438L286 437z"/>
<path style="fill:#dfab40; stroke:none;" d="M289 437L290 438L289 437M252 438L253 439L252 438z"/>
<path style="fill:#5b6582; stroke:none;" d="M280.667 438.333L281.333 438.667L280.667 438.333z"/>
<path style="fill:#dfab40; stroke:none;" d="M282.667 438.333L283.333 438.667L282.667 438.333M330 438L331 439L330 438M253 439L254 440L253 439z"/>
<path style="fill:#5b6582; stroke:none;" d="M274.667 439.333L275.333 439.667L274.667 439.333z"/>
<path style="fill:#dfab40; stroke:none;" d="M276.667 439.333L277.333 439.667L276.667 439.333M193 440C192.204 454.417 210.045 454 220 454L220 453L216 453L216 452C223.105 451.435 230.093 451.3 233 444L231 441L230 441C226.984 446.162 207.681 449.355 202.004 447.382C198.373 446.12 195.914 442.347 193 440z"/>
<path style="fill:#5b6582; stroke:none;" d="M254 440L255 441L254 440M268.667 440.333L269.333 440.667L268.667 440.333z"/>
<path style="fill:#dfab40; stroke:none;" d="M270.667 440.333L271.333 440.667L270.667 440.333M329 440L330 441L329 440M255 441L256 442L255 441z"/>
<path style="fill:#5b6582; stroke:none;" d="M260 441L260 442L263 442L260 441M266.667 441.333L267.333 441.667L266.667 441.333M328 441L329 442L328 441M309 442L306 446L309 447L309 442M327 443L328 444L327 443z"/>
<path style="fill:#dfab40; stroke:none;" d="M326 445L327 446L326 445M305 446L306 447L305 446M325 447L326 448L325 447z"/>
<path style="fill:#fdfcfb; stroke:none;" d="M208 448L209 449L208 448z"/>
<path style="fill:#5b6582; stroke:none;" d="M229 448L228 450L229 448z"/>
<path style="fill:#dfab40; stroke:none;" d="M304.333 448.667L304.667 449.333L304.333 448.667z"/>
<path style="fill:#5b6582; stroke:none;" d="M324 448L325 449L324 448M216 452L216 453L228 451L216 452M305 450L306 451L305 450M323 450L324 451L323 450z"/>
<path style="fill:#dfab40; stroke:none;" d="M226 451L227 452L226 451M305 451L305 460L306 460L305 451M221 452L221 453L224 453L221 452M322 452L323 453L322 452z"/>
<path style="fill:#5b6582; stroke:none;" d="M321 453L322 454L321 453z"/>
<path style="fill:#dfab40; stroke:none;" d="M321 454L322 455L321 454z"/>
<path style="fill:#5b6582; stroke:none;" d="M320 455L321 456L320 455z"/>
<path style="fill:#dfab40; stroke:none;" d="M319 457L320 458L319 457z"/>
<path style="fill:#5b6582; stroke:none;" d="M318 458L319 459L318 458z"/>
<path style="fill:#dfab40; stroke:none;" d="M318 459L319 460L318 459z"/>
<path style="fill:#5b6582; stroke:none;" d="M305 460L305 468L306 468L305 460M317 460L318 461L317 460z"/>
<path style="fill:#dfab40; stroke:none;" d="M317 461L318 462L317 461z"/>
<path style="fill:#5b6582; stroke:none;" d="M316 462L317 463L316 462M315 464L316 465L315 464z"/>
<path style="fill:#dfab40; stroke:none;" d="M314 466L315 467L314 466z"/>
<path style="fill:#5b6582; stroke:none;" d="M313 467L314 468L313 467z"/>
<path style="fill:#dfab40; stroke:none;" d="M306 468L307 469L306 468z"/>
<path style="fill:#5b6582; stroke:none;" d="M307.667 468.333L308.333 468.667L307.667 468.333M311 469L312 470L311 469z"/>
<path style="fill:#dfab40; stroke:none;" d="M312 469L313 470L312 469z"/>
</svg>
