<?xml version="1.0" standalone="yes"?>
<svg xmlns="http://www.w3.org/2000/svg" width="512" height="512">
<path style="fill:#f6fdff; stroke:none;" d="M0 0L0 512L512 512L512 481C500.235 488.393 486.443 477.416 475 472.424C452.238 462.495 429.796 451.849 407 442C399.356 438.698 388.456 430.777 380 430.919C370.983 431.071 359.172 439.499 351 443.139C329.985 452.498 308.971 461.852 288 471.306C278.772 475.466 267.124 483.45 257 484.517C248.681 485.394 237.454 477.22 230 474C206.544 463.866 183.293 453.195 160 442.694C153.297 439.673 134.562 434.912 131.603 427.867C127.899 419.045 132.925 400.502 133.83 391C136.574 362.183 134.303 330.13 141 302C100.158 321.068 58.9331 343.276 20 366C21.0938 340.589 29.0586 314.044 33.5756 289C35.5371 278.125 35.4698 261.658 41.1397 252.093C45.6551 244.476 59.4572 239.837 67 235.694C85.7126 225.418 104.413 215.077 123 204.576C130.111 200.558 139.818 192.471 148 191.495C155.257 190.63 163.616 198.249 170 201C164.28 187.261 157.64 174.66 154.235 160C146.034 124.687 154.42 89.4241 178.289 62C233.077 -0.946655 343.02 27.8614 359.551 110C363.751 130.868 361.981 151.797 355.329 172C352.183 181.557 346.759 190.424 344 200L363 191.542L381 200.14L420 221.769L454 240.694L470.272 251.185L474.803 269L482.611 312L500.611 411L511 471L512 471L512 0L0 0z"/>
<path style="fill:#fa4749; stroke:none;" d="M246 27.4252C231.814 29.3562 217.524 32.7917 205 40.0146C194.896 45.8415 184.992 53.052 177.439 62C131.802 116.064 153.039 185.576 193.003 236C206.688 253.267 221.322 270.094 238 284.576C242.775 288.722 249.932 298.053 257 297.417C263.458 296.835 269.422 289.546 274 285.576C288.35 273.133 301.928 258.811 313.8 244C337.917 213.913 359.21 179.431 361.91 140C366.214 77.157 310.433 18.6545 246 27.4252z"/>
<path style="fill:#f6fdff; stroke:none;" d="M253 94.429C234.119 97.049 220.007 110.719 218.171 130C216.077 151.99 236.828 173.171 259 170.71C278.729 168.52 294.362 153.364 294.871 133C295.414 111.29 274.942 91.3843 253 94.429z"/>
<path style="fill:#4bd868; stroke:none;" d="M28 321L115 275.753L145 260.923L169 263.729L224 271C214.05 256.875 200.365 244.982 189.895 231C178.633 215.959 171.895 197.018 152 191.641C146.078 190.041 140.891 193.939 136 196.719C125.715 202.566 115.285 208.155 105 214C90.082 222.478 74.918 230.522 60 239C54.3511 242.21 45.7948 245.109 41.7276 250.329C37.9047 255.235 37.9395 264.072 36.8032 270C33.6348 286.53 28.7235 304.193 28 321M305 254C316.857 251.886 328.953 244.216 340 239.424C362.272 229.764 386.479 220.003 411 218C407.063 211.867 397.251 208.627 391 205.14C383.467 200.937 371.853 191.054 363 191.29C345.031 191.768 337.485 210.647 328.975 223C321.549 233.779 312.48 243.339 305 254z"/>
<path style="fill:#fdc738; stroke:none;" d="M176 211L177 212L176 211M179 216L180 217L179 216M20 366C47.9017 354.384 75.7034 337.927 102 323C110.808 318 119.947 313.294 129 308.753C131.972 307.262 136.311 303.811 139.674 303.677C143.314 303.533 146.306 310.458 148 313C154.852 323.283 161.477 333.716 168.333 344C190.214 376.821 212.491 409.569 233.424 443C241.293 455.566 255.956 469.649 256 485L304 465C294.535 444.337 269.4 429.919 255.529 412C230.101 379.153 211.229 340.461 188 306C203.848 306.131 220.283 309.234 236 311.282C242.769 312.163 251.271 314.57 258 312.806C274.604 308.453 291.224 298.526 307 291.719C312.244 289.457 321.202 283.216 327 283.978C332.716 284.73 339.572 292.52 344 296C359.264 307.996 372.952 319.027 385.414 334C426.683 383.584 468.347 432.91 509 483L510 483C512.939 477.494 511.782 471.944 510.75 466C508.381 452.361 508.422 429.145 500.022 418C480.821 392.525 458.015 369.237 437.271 345C414.467 318.358 392.534 290.052 368 265L460 244C450.906 236.458 438.386 231.417 428 225.769C423.098 223.104 417.616 218.791 412 217.927C403.749 216.657 392.047 221.65 384 223.626C365.577 228.15 349.391 235.032 332 242.576C322.955 246.499 311.998 249.664 304 255.498C291.849 264.362 282.371 277.388 271 287.282C267.241 290.552 263.019 295.526 258 296.806C251.647 298.425 245.167 289.94 241 286.285C229.517 276.212 224.16 271.455 209 269.271C194.338 267.158 179.676 265.012 165 263C158.757 262.144 151.285 259.802 145 260.56C136.499 261.586 127.482 268.88 120 272.742C99.2707 283.441 78.8592 294.809 58 305.247C49.97 309.265 32.9769 314.765 27.9884 322.329C25.7394 325.739 25.7597 331.075 25 335C23.0489 345.081 20.2121 355.725 20 366z"/>
<path style="fill:#4bd868; stroke:none;" d="M412 217L413 218L412 217M414 218L415 219L414 218z"/>
<path style="fill:#fdc738; stroke:none;" d="M181 219L182 220L181 219z"/>
<path style="fill:#4bd868; stroke:none;" d="M423 223L424 224L423 223z"/>
<path style="fill:#fdc738; stroke:none;" d="M327 225L328 226L327 225z"/>
<path style="fill:#4bd868; stroke:none;" d="M432 228L433 229L432 228z"/>
<path style="fill:#fdc738; stroke:none;" d="M198 242L199 243L198 242z"/>
<path style="fill:#4bd868; stroke:none;" d="M458 244L459 245L458 244z"/>
<path style="fill:#21a6e7; stroke:none;" d="M369 265C374.929 276.443 386.237 286.209 394.579 296C412.843 317.437 431.417 338.605 449.729 360C465.692 378.651 481.957 404.842 502 419C498.598 376.256 486.88 332.14 478.803 290C476.58 278.399 477.066 253.352 465.985 246.881C458.029 242.235 447.374 247.207 439 249C416.014 253.922 391.244 257.455 369 265z"/>
<path style="fill:#4bd868; stroke:none;" d="M454 245L455 246L454 245z"/>
<path style="fill:#fdc738; stroke:none;" d="M311 246L312 247L311 246z"/>
<path style="fill:#4bd868; stroke:none;" d="M450 246L451 247L450 246z"/>
<path style="fill:#fdc738; stroke:none;" d="M202 247L203 248L202 247z"/>
<path style="fill:#4bd868; stroke:none;" d="M445 247L446 248L445 247M441 248L442 249L441 248M436 249L437 250L436 249M432 250L433 251L432 250M427 251L428 252L427 251M423 252L424 253L423 252M418 253L419 254L418 253M414 254L415 255L414 254M409 255L410 256L409 255M405 256L406 257L405 256M400.667 257.333L401.333 257.667L400.667 257.333M396 258L397 259L396 258M391.667 259.333L392.333 259.667L391.667 259.333M387 260L388 261L387 260M382.667 261.333L383.333 261.667L382.667 261.333M378 262L379 263L378 262M373.667 263.333L374.333 263.667L373.667 263.333M369 264L370 265L369 264M368 265L369 266L368 265M369 266L370 267L369 266M374 272L375 273L374 272M375 273L376 274L375 273M380 279L381 280L380 279M381 280L382 281L381 280M188 306C195.938 322.784 208.005 338.325 217.947 354C234.539 380.161 250.152 405.663 270.424 429C278.078 437.811 286.899 445.57 294.961 454C297.689 456.853 300.788 462.341 305.004 463.007C309.768 463.759 316.741 458.84 321 457C335.083 450.916 348.969 444.343 363 438.14C368.158 435.859 376.53 429.883 382.285 431.509C413.225 440.254 443.456 459.236 473 472C483.015 476.327 497.88 487.194 509 484C502.124 466.246 481.446 448.645 469.247 434C439.854 398.715 410.646 363.279 381.247 328C370.675 315.313 357.929 306.161 345 296C340.256 292.272 333.937 285.156 328 283.694C322.26 282.28 313.167 288.63 308 290.85C291.626 297.883 274.399 308.242 257.17 312.726C250.663 314.419 242.536 311.938 236 311.155C220.211 309.265 203.906 306.044 188 306M386 286L387 287L386 286M387 287L388 288L387 287M388 288L389 289L388 288M393 294L394 295L393 294M394 295L395 296L394 295M399 301L400 302L399 301M400 302L401 303L400 302M140 303L140 308L141 308L140 303z"/>
<path style="fill:#21a6e7; stroke:none;" d="M141 303C138.58 333.663 136.024 364.312 133.91 395C133.31 403.726 128.185 420.68 131.618 428.725C134.539 435.57 155.319 441.116 162 444C182.443 452.825 202.7 462.154 223 471.306C233.43 476.007 244.675 483.05 256 485C255.986 467.292 236.95 447.425 227.333 433C207.623 403.435 188.377 373.565 168.667 344C159.812 330.718 152.042 314.53 141 303z"/>
<path style="fill:#4bd868; stroke:none;" d="M142 304L143 305L142 304M144 307L145 308L144 307M405 308L406 309L405 308M406 309L407 310L406 309M146 310L147 311L146 310M148 313L149 314L148 313M411 315L412 316L411 315M139 316L139 321L140 321L139 316M150 316L151 317L150 316M412 316L413 317L412 316M152 319L153 320L152 319M417 322L418 323L417 322M418 323L419 324L418 323M419 324L420 325L419 324M157 327L158 328L157 327M138 329L138 334L139 334L138 329M159 330L160 331L159 330M424 330L425 331L424 330M425 331L426 332L425 331M161 333L162 334L161 333M163 336L164 337L163 336M430 337L431 338L430 337M431 338L432 339L431 338M165 339L166 340L165 339M137 342L137 347L138 347L137 342M167 342L168 343L167 342M436 344L437 345L436 344M169 345L170 346L169 345M437 345L438 346L437 345M171 348L172 349L171 348M173 351L174 352L173 351M442 351L443 352L442 351M443 352L444 353L443 352M444 353L445 354L444 353M175 354L176 355L175 354M136 355L136 360L137 360L136 355M177 357L178 358L177 357M449 359L450 360L449 359M179 360L180 361L179 360M450 360L451 361L450 360M19 366L19 370L20 370L19 366M455 366L456 367L455 366M456 367L457 368L456 367M135 368L135 373L136 373L135 368M184 368L185 369L184 368M18 371L18 376L19 376L18 371M186 371L187 372L186 371M461 373L462 374L461 373M188 374L189 375L188 374M462 374L463 375L462 374M17 377L17 381L18 381L17 377M190 377L191 378L190 377M134 380L134 386L135 386L134 380M192 380L193 381L192 380M467 380L468 381L467 380M468 381L469 382L468 381M16 382L16 387L17 387L16 382M194 383L195 384L194 383M196 386L197 387L196 386M473 387L474 388L473 387M15 388L15 392L16 392L15 388M474 388L475 389L474 388M198 389L199 390L198 389M475 389L476 390L475 389M200 392L201 393L200 392M14 393L14 398L15 398L14 393M133 393L133 399L134 399L133 393M202 395L203 396L202 395M480 395L481 396L480 395M481 396L482 397L481 396M204 398L205 399L204 398M13 399L13 403L14 403L13 399M206 401L207 402L206 401M486 402L487 403L486 402M487 403L488 404L487 403M12 404L12 409L13 409L12 404M132 406L132 411L133 411L132 406M211 409L212 410L211 409M492 409L493 410L492 409M11 410L11 414L12 414L11 410M493 410L494 411L493 410M213 412L214 413L213 412M10 415L10 420L11 420L10 415M215 415L216 416L215 415M498 416L499 417L498 416M499 417L500 418L499 417M217 418L218 419L217 418M500 418L501 419L500 418M131 419L131 424L132 424L131 419M501 419L502 420L501 419M9 421L9 425L10 425L9 421M219 421L220 422L219 421M221 424L222 425L221 424M8 426L8 431L9 431L8 426M223 427L224 428L223 427M125 432L125 433L131 431L125 432M225 430L226 431L225 430M7 432L7 436L8 436L7 432M116 436L116 437L124 434L116 436M227 433L228 434L227 433M229 436L230 437L229 436M96 445L96 446L115 438L96 445M6 438L6 442L7 442L6 438M231 439L232 440L231 439M5 443L5 447L6 447L5 443M87 449L87 450L95 447L87 449M4 449L4 453L5 453L4 449M76 454L76 455L86 451L76 454M238 450L239 451L238 450M240 453L241 454L240 453M3 454L3 458L4 458L3 454M67 458L67 459L75 456L67 458M242 456L243 457L242 456M58 462L58 463L66 460L58 462M244 459L245 460L244 459M2 460L2 464L3 464L2 460M246 462L247 463L246 462M47 467L47 468L57 464L47 467M1 465L1 469L2 469L1 465M248 465L249 466L248 465M301 465L302 466L301 465M38 471L38 472L46 469L38 471M250 468L251 469L250 468M0 471L0 475L1 475L0 471M252 471L253 472L252 471M18 480L18 481L37 473L18 480M283 473L284 474L283 473M254 474L255 475L254 474M272 478L273 479L272 478M0.333333 479.667L0.666667 480.333L0.333333 479.667M1 481L10 485L10 484L1 481M11 483L11 484L17 482L11 483M263 482L264 483L263 482M258 484L259 485L258 484z"/>
</svg>
