<?xml version="1.0" standalone="yes"?>
<svg xmlns="http://www.w3.org/2000/svg" width="300" height="300">
<path style="fill:#f5f5f6; stroke:none;" d="M0 0L0 300L300 300L300 0L0 0z"/>
<path style="fill:#a4c8ee; stroke:none;" d="M133 46L133 47L138 47L133 46z"/>
<path style="fill:#5b9bf1; stroke:none;" d="M144 209C160.236 197.563 173.952 180.049 188 166C198.063 155.936 206.528 145.055 210.104 131C212.818 120.335 212.754 108.759 210.55 98C208.766 89.2898 204.729 81.1807 199.572 74C157.669 15.6533 64.1334 58.6328 78.6651 128C80.7908 138.147 85.2483 147.838 91.669 156C106.76 175.183 126.743 191.743 144 209z"/>
<path style="fill:#a4c8ee; stroke:none;" d="M151 46L151 47L155 47L151 46M129.667 47.3333L130.333 47.6667L129.667 47.3333M158 47L158 48L161 48L158 47M125.667 48.3333L126.333 48.6667L125.667 48.3333M162 48L162 49L165 49L162 48M122.667 49.3333L123.333 49.6667L122.667 49.3333M166.667 49.3333L167.333 49.6667L166.667 49.3333M120 50L121 51L120 50M169 50L170 51L169 50M117.667 51.3333L118.333 51.6667L117.667 51.3333M171.667 51.3333L172.333 51.6667L171.667 51.3333M115 52L116 53L115 52M173.667 52.3333L174.333 52.6667L173.667 52.3333M113 53L114 54L113 53M175.667 53.3333L176.333 53.6667L175.667 53.3333M111 54L112 55L111 54M177 54L178 55L177 54M110 55L111 56L110 55M179 55L180 56L179 55M108 56L109 57L108 56M106 57L107 58L106 57M182 57L183 58L182 57M105 58L106 59L105 58M104 59L105 60L104 59M185 59L186 60L185 59M102 60L103 61L102 60M186 60L187 61L186 60M101 61L102 62L101 61M188 61L189 62L188 61M100 62L101 63L100 62M189 62L190 63L189 62M99 63L100 64L99 63M190 63L191 64L190 63M98 64L99 65L98 64M191 64L192 65L191 64M192 65L193 66L192 65M193 66L194 67L193 66M95 67L96 68L95 67M194 67L195 68L194 67M94 68L95 69L94 68M195 68L196 69L195 68M93 69L94 70L93 69M196 69L197 70L196 69M92 70L93 71L92 70M91 71L92 72L91 71M197 71L198 72L197 71M198 72L199 73L198 72M90 73L91 74L90 73M199 73L200 74L199 73M89 74L90 75L89 74M88 75L89 76L88 75M200 75L201 76L200 75M201 76L202 77L201 76M87 77L88 78L87 77M140 77L140 78L149 78L140 77M135 78L135 79L138 79L135 78z"/>
<path style="fill:#f5f5f6; stroke:none;" d="M138 78.4645C92.1394 86.7331 106.46 156.279 152 148.674C197.829 141.022 183.561 70.2499 138 78.4645z"/>
<path style="fill:#a4c8ee; stroke:none;" d="M152 78L152 79L155 79L152 78M202 78L203 79L202 78M86 79L87 80L86 79M132.667 79.3333L133.333 79.6667L132.667 79.3333M156.667 79.3333L157.333 79.6667L156.667 79.3333M203 79L204 80L203 79M85 80L86 81L85 80M130 80L131 81L130 80M159 80L160 81L159 80M128 81L129 82L128 81M161 81L162 82L161 81M204 81L205 82L204 81M84 82L85 83L84 82M126 82L127 83L126 82M163 82L164 83L163 82M205 83L206 84L205 83M83 84L84 85L83 84M123 84L124 85L123 84M166 84L167 85L166 84M122 85L123 86L122 85M167 85L168 86L167 85M206 85L207 86L206 85M82 86L83 87L82 86M168 86L169 87L168 86M207.333 87.6667L207.667 88.3333L207.333 87.6667M81.3333 88.6667L81.6667 89.3333L81.3333 88.6667M117 90L118 91L117 90M172 90L173 91L172 90M208 90L209 91L208 90M80.3333 91.6667L80.6667 92.3333L80.3333 91.6667M116 91L117 92L116 91M173 91L174 92L173 91M115 92L116 93L115 92M174 92L175 93L174 92M209.333 92.6667L209.667 93.3333L209.333 92.6667M79.3333 94.6667L79.6667 95.3333L79.3333 94.6667M114 94L115 95L114 94M175 94L176 95L175 94M113 95L114 96L113 95M176.333 95.6667L176.667 96.3333L176.333 95.6667M210.333 96.6667L210.667 97.3333L210.333 96.6667M112 97L113 98L112 97M177 97L178 98L177 97M78.3333 98.6667L78.6667 99.3333L78.3333 98.6667M111.333 99.6667L111.667 100.333L111.333 99.6667M178 100L179 101L178 100M211 101L211 104L212 104L211 101M77 102L77 107L78 107L77 102M110.333 102.667L110.667 103.333L110.333 102.667M179.333 102.667L179.667 103.333L179.333 102.667M109 106L109 109L110 109L109 106M180 106L180 109L181 109L180 106M212 108L212 119L213 119L212 108M180 118L180 121L181 121L180 118M109.333 119.667L109.667 120.333L109.333 119.667M77 120L77 124L78 124L77 120M212 120L213 121L212 120M110.333 123.667L110.667 124.333L110.333 123.667M179.333 123.667L179.667 124.333L179.333 123.667M211 124L211 127L212 127L211 124M111 126L112 127L111 126M178.333 126.667L178.667 127.333L178.333 126.667M78.3333 127.667L78.6667 128.333L78.3333 127.667M112.333 128.667L112.667 129.333L112.333 128.667M177 129L178 130L177 129M210.333 129.667L210.667 130.333L210.333 129.667M79.3333 131.667L79.6667 132.333L79.3333 131.667M113 131L114 132L113 131M176 131L177 132L176 131M114 132L115 133L114 132M175 132L176 133L175 132M209.333 133.667L209.667 134.333L209.333 133.667M115 134L116 135L115 134M174 134L175 135L174 134M80.3333 135.667L80.6667 136.333L80.3333 135.667M116 135L117 136L116 135M173 135L174 136L173 135M117 136L118 137L117 136M172 136L173 137L172 136M208.333 136.667L208.667 137.333L208.333 136.667M81 138L82 139L81 138M118 138L119 139L118 138M207.333 138.667L207.667 139.333L207.333 138.667M82 140L83 141L82 140M122 141L123 142L122 141M167 141L168 142L167 141M206 141L207 142L206 141M83 142L84 143L83 142M123 142L124 143L123 142M166 142L167 143L166 142M124 143L125 144L124 143M165 143L166 144L165 143M205 143L206 144L205 143M84 144L85 145L84 144M126 144L127 145L126 144M163 144L164 145L163 144M128 145L129 146L128 145M161 145L162 146L161 145M204 145L205 146L204 145M85 146L86 147L85 146M130 146L131 147L130 146M159 146L160 147L159 146M132.667 147.333L133.333 147.667L132.667 147.333M156.667 147.333L157.333 147.667L156.667 147.333M203 147L204 148L203 147M86 148L87 149L86 148M135.667 148.333L136.333 148.667L135.667 148.333M153.667 148.333L154.333 148.667L153.667 148.333M202 148L203 149L202 148M140 149L140 150L150 150L140 149M87 150L88 151L87 150M201 150L202 151L201 150M88 151L89 152L88 151M200 151L201 152L200 151M199 153L200 154L199 153M90 154L91 155L90 154M198 154L199 155L198 154M91 155L92 156L91 155M197 156L198 157L197 156M196 157L197 158L196 157M195 158L196 159L195 158M94 159L95 160L94 159M194 159L195 160L194 159M95 160L96 161L95 160M193 160L194 161L193 160M96 161L97 162L96 161M192 161L193 162L192 161M97 162L98 163L97 162M191 162L192 163L191 162M98 163L99 164L98 163M190 163L191 164L190 163M99 164L100 165L99 164M189 164L190 165L189 164M100 165L101 166L100 165M188 165L189 166L188 165M101 166L102 167L101 166M187 166L188 167L187 166M102 167L103 168L102 167M186 167L187 168L186 167M103 168L104 169L103 168M185 168L186 169L185 168M104 169L105 170L104 169M184 169L185 170L184 169M105 170L106 171L105 170M183 170L184 171L183 170M106 171L107 172L106 171M182 171L183 172L182 171M107 172L108 173L107 172M181 172L182 173L181 172M108 173L109 174L108 173M180 173L181 174L180 173M109 174L110 175L109 174M179 174L180 175L179 174M110 175L111 176L110 175M178 175L179 176L178 175M111 176L112 177L111 176M177 176L178 177L177 176M112 177L113 178L112 177M176 177L177 178L176 177M113 178L114 179L113 178M175 178L176 179L175 178M114 179L115 180L114 179M174 179L175 180L174 179M115 180L116 181L115 180M173 180L174 181L173 180M116 181L117 182L116 181M172 181L173 182L172 181M117 182L118 183L117 182M171 182C176.539 188.339 198.581 182.995 207 185L207 184L171 182M118 183L119 184L118 183M83 184L81 190L82 190L83 184z"/>
<path style="fill:#5b9bf1; stroke:none;" d="M80 195L103 200.63L112.411 201.879L117 184C104.013 184 82.943 178.49 80 195z"/>
<path style="fill:#a4c8ee; stroke:none;" d="M117 184L118 185L117 184M119 184L120 185L119 184z"/>
<path style="fill:#4d75b5; stroke:none;" d="M169 184L145 209C151.936 204.114 166.984 192.316 169 184z"/>
<path style="fill:#0e449c; stroke:none;" d="M131 197L130 208C161.848 212.289 195.06 223.285 226 232C222.82 220.375 216.718 209.094 212 198C210.391 194.216 208.869 187.488 205.362 185.028C200.251 181.442 176.827 182.455 171 184.603C163.779 187.266 157.365 196.682 152 201.999C150.023 203.959 147.185 207.787 144 207.369C139.403 206.765 134.752 199.643 131 197z"/>
<path style="fill:#a4c8ee; stroke:none;" d="M120 185L121 186L120 185z"/>
<path style="fill:#4d75b5; stroke:none;" d="M206 185L207 186L206 185z"/>
<path style="fill:#a4c8ee; stroke:none;" d="M121 186L122 187L121 186M207 186L208 187L207 186M116 187L116 190L117 190L116 187M122 187L123 188L122 187z"/>
<path style="fill:#4d75b5; stroke:none;" d="M207 187L208 188L207 187z"/>
<path style="fill:#a4c8ee; stroke:none;" d="M123 188L124 189L123 188M208 188L209 189L208 188M124 189L125 190L124 189z"/>
<path style="fill:#5b9bf1; stroke:none;" d="M208 189L209 190L208 189z"/>
<path style="fill:#a4c8ee; stroke:none;" d="M125 190L126 191L125 190M80 191L81 192L80 191M126 191L127 192L126 191z"/>
<path style="fill:#5b9bf1; stroke:none;" d="M209 191L210 192L209 191z"/>
<path style="fill:#a4c8ee; stroke:none;" d="M115 192L115 196L116 196L115 192M127 192L128 193L127 192z"/>
<path style="fill:#4d75b5; stroke:none;" d="M209 192L210 193L209 192z"/>
<path style="fill:#a4c8ee; stroke:none;" d="M79.3333 193.667L79.6667 194.333L79.3333 193.667M128 193L129 194L128 193M210 193L211 194L210 193M129 194L130 195L129 194z"/>
<path style="fill:#4d75b5; stroke:none;" d="M210 194L211 195L210 194z"/>
<path style="fill:#a4c8ee; stroke:none;" d="M80 195L80 196L83 196L80 195M130 195L130 199L131 199L130 195M211 195L212 196L211 195M84 196L84 197L87 197L84 196z"/>
<path style="fill:#4d75b5; stroke:none;" d="M131 196L132 197L131 196z"/>
<path style="fill:#5b9bf1; stroke:none;" d="M211 196L212 197L211 196z"/>
<path style="fill:#a4c8ee; stroke:none;" d="M88 197L88 198L91 198L88 197M114 197L114 201L115 201L114 197z"/>
<path style="fill:#4d75b5; stroke:none;" d="M132 197L133 198L132 197z"/>
<path style="fill:#a4c8ee; stroke:none;" d="M92 198L92 199L95 199L92 198z"/>
<path style="fill:#4d75b5; stroke:none;" d="M133 198L134 199L133 198z"/>
<path style="fill:#5b9bf1; stroke:none;" d="M212 198L213 199L212 198z"/>
<path style="fill:#a4c8ee; stroke:none;" d="M96 199L96 200L99 200L96 199z"/>
<path style="fill:#5b9bf1; stroke:none;" d="M130.333 199.667L130.667 200.333L130.333 199.667z"/>
<path style="fill:#4d75b5; stroke:none;" d="M134 199L135 200L134 199M212 199L213 200L212 199z"/>
<path style="fill:#a4c8ee; stroke:none;" d="M100 200L100 201L103 201L100 200z"/>
<path style="fill:#4d75b5; stroke:none;" d="M135 200L136 201L135 200z"/>
<path style="fill:#a4c8ee; stroke:none;" d="M213 200L214 201L213 200M104 201L104 202L107 202L104 201z"/>
<path style="fill:#4d75b5; stroke:none;" d="M130 201L130 205L131 205L130 201M136 201L137 202L136 201M213 201L214 202L213 201z"/>
<path style="fill:#a4c8ee; stroke:none;" d="M108.667 202.333L109.333 202.667L108.667 202.333M113 202L112 204L114 204L113 202z"/>
<path style="fill:#4d75b5; stroke:none;" d="M137 202L138 203L137 202z"/>
<path style="fill:#a4c8ee; stroke:none;" d="M214 202L215 203L214 202z"/>
<path style="fill:#4d75b5; stroke:none;" d="M138 203L139 204L138 203z"/>
<path style="fill:#5b9bf1; stroke:none;" d="M214 203L215 204L214 203z"/>
<path style="fill:#4d75b5; stroke:none;" d="M139 204L140 205L139 204z"/>
<path style="fill:#a4c8ee; stroke:none;" d="M74 205L75 206L74 205z"/>
<path style="fill:#4d75b5; stroke:none;" d="M75 205L74 207L75 205z"/>
<path style="fill:#a4c8ee; stroke:none;" d="M76 205L77 206L76 205z"/>
<path style="fill:#4d75b5; stroke:none;" d="M140 205L141 206L140 205z"/>
<path style="fill:#5b9bf1; stroke:none;" d="M215 205L216 206L215 205z"/>
<path style="fill:#0e449c; stroke:none;" d="M59 244L106 244L111 215C102.246 213.193 84.7015 204.15 76.2137 206.777C72.7635 207.845 71.5416 213.07 70.2809 216C66.3842 225.055 61.28 234.401 59 244z"/>
<path style="fill:#4d75b5; stroke:none;" d="M78 206L79 207L78 206z"/>
<path style="fill:#5b9bf1; stroke:none;" d="M79 206L80 207L79 206z"/>
<path style="fill:#a4c8ee; stroke:none;" d="M80 206L81 207L80 206M129.333 206.667L129.667 207.333L129.333 206.667z"/>
<path style="fill:#4d75b5; stroke:none;" d="M141 206L142 207L141 206M215 206L216 207L215 206z"/>
<path style="fill:#a4c8ee; stroke:none;" d="M73 207L74 208L73 207z"/>
<path style="fill:#4d75b5; stroke:none;" d="M82 207L83 208L82 207z"/>
<path style="fill:#5b9bf1; stroke:none;" d="M83 207L84 208L83 207z"/>
<path style="fill:#a4c8ee; stroke:none;" d="M84 207L85 208L84 207z"/>
<path style="fill:#4d75b5; stroke:none;" d="M142 207L143 208L142 207z"/>
<path style="fill:#a4c8ee; stroke:none;" d="M216 207L217 208L216 207z"/>
<path style="fill:#4d75b5; stroke:none;" d="M73 208L74 209L73 208M85.6667 208.333L86.3333 208.667L85.6667 208.333z"/>
<path style="fill:#a4c8ee; stroke:none;" d="M87.6667 208.333L88.3333 208.667L87.6667 208.333M130.667 208.333L131.333 208.667L130.667 208.333z"/>
<path style="fill:#5b9bf1; stroke:none;" d="M132 208L133 209L132 208z"/>
<path style="fill:#4d75b5; stroke:none;" d="M133 208L134 209L133 208M143 208L144 209L143 208M216 208L217 209L216 208z"/>
<path style="fill:#a4c8ee; stroke:none;" d="M72 209L73 210L72 209z"/>
<path style="fill:#4d75b5; stroke:none;" d="M89 209L90 210L89 209z"/>
<path style="fill:#5b9bf1; stroke:none;" d="M90 209L91 210L90 209z"/>
<path style="fill:#a4c8ee; stroke:none;" d="M91 209L92 210L91 209M134.667 209.333L135.333 209.667L134.667 209.333z"/>
<path style="fill:#5b9bf1; stroke:none;" d="M136 209L137 210L136 209z"/>
<path style="fill:#4d75b5; stroke:none;" d="M137 209L138 210L137 209z"/>
<path style="fill:#a4c8ee; stroke:none;" d="M217 209L218 210L217 209z"/>
<path style="fill:#4d75b5; stroke:none;" d="M72 210L73 211L72 210M93 210L94 211L93 210z"/>
<path style="fill:#5b9bf1; stroke:none;" d="M94 210L95 211L94 210z"/>
<path style="fill:#a4c8ee; stroke:none;" d="M95 210L96 211L95 210M138.667 210.333L139.333 210.667L138.667 210.333z"/>
<path style="fill:#5b9bf1; stroke:none;" d="M140 210L141 211L140 210z"/>
<path style="fill:#4d75b5; stroke:none;" d="M141 210L142 211L141 210z"/>
<path style="fill:#5b9bf1; stroke:none;" d="M217 210L218 211L217 210z"/>
<path style="fill:#a4c8ee; stroke:none;" d="M71 211L72 212L71 211z"/>
<path style="fill:#4d75b5; stroke:none;" d="M97 211L98 212L97 211z"/>
<path style="fill:#5b9bf1; stroke:none;" d="M98 211L99 212L98 211z"/>
<path style="fill:#a4c8ee; stroke:none;" d="M99 211L100 212L99 211M142.667 211.333L143.333 211.667L142.667 211.333z"/>
<path style="fill:#5b9bf1; stroke:none;" d="M144 211L145 212L144 211z"/>
<path style="fill:#4d75b5; stroke:none;" d="M145 211L146 212L145 211z"/>
<path style="fill:#5b9bf1; stroke:none;" d="M71 212L72 213L71 212z"/>
<path style="fill:#4d75b5; stroke:none;" d="M100.667 212.333L101.333 212.667L100.667 212.333z"/>
<path style="fill:#a4c8ee; stroke:none;" d="M102.667 212.333L103.333 212.667L102.667 212.333M146.667 212.333L147.333 212.667L146.667 212.333z"/>
<path style="fill:#4d75b5; stroke:none;" d="M148.667 212.333L149.333 212.667L148.667 212.333z"/>
<path style="fill:#5b9bf1; stroke:none;" d="M218 212L219 213L218 212z"/>
<path style="fill:#4d75b5; stroke:none;" d="M71 213L72 214L71 213M104 213L105 214L104 213z"/>
<path style="fill:#5b9bf1; stroke:none;" d="M105 213L106 214L105 213z"/>
<path style="fill:#a4c8ee; stroke:none;" d="M106 213L107 214L106 213M150.667 213.333L151.333 213.667L150.667 213.333z"/>
<path style="fill:#4d75b5; stroke:none;" d="M152.667 213.333L153.333 213.667L152.667 213.333M218 213L219 214L218 213z"/>
<path style="fill:#a4c8ee; stroke:none;" d="M70 214L71 215L70 214z"/>
<path style="fill:#4d75b5; stroke:none;" d="M108 214L109 215L108 214z"/>
<path style="fill:#5b9bf1; stroke:none;" d="M109 214L110 215L109 214z"/>
<path style="fill:#a4c8ee; stroke:none;" d="M110 214L111 215L110 214M154.667 214.333L155.333 214.667L154.667 214.333z"/>
<path style="fill:#4d75b5; stroke:none;" d="M156.667 214.333L157.333 214.667L156.667 214.333z"/>
<path style="fill:#a4c8ee; stroke:none;" d="M219 214L220 215L219 214z"/>
<path style="fill:#4d75b5; stroke:none;" d="M70 215L71 216L70 215z"/>
<path style="fill:#a4c8ee; stroke:none;" d="M111 215L111 218L112 218L111 215M158.667 215.333L159.333 215.667L158.667 215.333z"/>
<path style="fill:#4d75b5; stroke:none;" d="M160.667 215.333L161.333 215.667L160.667 215.333M219 215L220 216L219 215z"/>
<path style="fill:#a4c8ee; stroke:none;" d="M69 216L70 217L69 216M162.667 216.333L163.333 216.667L162.667 216.333z"/>
<path style="fill:#4d75b5; stroke:none;" d="M164.667 216.333L165.333 216.667L164.667 216.333z"/>
<path style="fill:#a4c8ee; stroke:none;" d="M220 216L221 217L220 216z"/>
<path style="fill:#4d75b5; stroke:none;" d="M69 217L70 218L69 217z"/>
<path style="fill:#a4c8ee; stroke:none;" d="M166.667 217.333L167.333 217.667L166.667 217.333z"/>
<path style="fill:#4d75b5; stroke:none;" d="M168.667 217.333L169.333 217.667L168.667 217.333z"/>
<path style="fill:#5b9bf1; stroke:none;" d="M220 217L221 218L220 217z"/>
<path style="fill:#a4c8ee; stroke:none;" d="M68 218L69 219L68 218z"/>
<path style="fill:#4d75b5; stroke:none;" d="M110.333 218.667L110.667 219.333L110.333 218.667z"/>
<path style="fill:#a4c8ee; stroke:none;" d="M170 218L171 219L170 218z"/>
<path style="fill:#5b9bf1; stroke:none;" d="M171 218L172 219L171 218z"/>
<path style="fill:#4d75b5; stroke:none;" d="M172.667 218.333L173.333 218.667L172.667 218.333M220 218L221 219L220 218z"/>
<path style="fill:#a4c8ee; stroke:none;" d="M221.333 218.667L221.667 219.333L221.333 218.667z"/>
<path style="fill:#5b9bf1; stroke:none;" d="M68 219L69 220L68 219z"/>
<path style="fill:#a4c8ee; stroke:none;" d="M174 219L175 220L174 219z"/>
<path style="fill:#5b9bf1; stroke:none;" d="M175 219L176 220L175 219z"/>
<path style="fill:#4d75b5; stroke:none;" d="M176.667 219.333L177.333 219.667L176.667 219.333M68 220L69 221L68 220z"/>
<path style="fill:#5b9bf1; stroke:none;" d="M110 220L111 221L110 220z"/>
<path style="fill:#a4c8ee; stroke:none;" d="M128 220L128 227L129 227L128 220z"/>
<path style="fill:#5b9bf1; stroke:none;" d="M129 220L127 244L216 244L216 243C187.088 239.104 157.084 227.97 129 220z"/>
<path style="fill:#a4c8ee; stroke:none;" d="M130 220L130 221L133 221L130 220M178 220L179 221L178 220z"/>
<path style="fill:#5b9bf1; stroke:none;" d="M179 220L180 221L179 220z"/>
<path style="fill:#4d75b5; stroke:none;" d="M180.667 220.333L181.333 220.667L180.667 220.333M221 220L222 221L221 220z"/>
<path style="fill:#a4c8ee; stroke:none;" d="M67 221L68 222L67 221M110.333 221.667L110.667 222.333L110.333 221.667M134.667 221.333L135.333 221.667L134.667 221.333M182 221L183 222L182 221z"/>
<path style="fill:#5b9bf1; stroke:none;" d="M183 221L184 222L183 221z"/>
<path style="fill:#4d75b5; stroke:none;" d="M184 221L185 222L184 221z"/>
<path style="fill:#a4c8ee; stroke:none;" d="M222 221L223 222L222 221z"/>
<path style="fill:#4d75b5; stroke:none;" d="M67 222L68 223L67 222z"/>
<path style="fill:#a4c8ee; stroke:none;" d="M137 222L137 223L140 223L137 222M186 222L187 223L186 222z"/>
<path style="fill:#5b9bf1; stroke:none;" d="M187 222L188 223L187 222z"/>
<path style="fill:#4d75b5; stroke:none;" d="M188 222L189 223L188 222M222 222L223 223L222 222z"/>
<path style="fill:#a4c8ee; stroke:none;" d="M66 223L67 224L66 223z"/>
<path style="fill:#4d75b5; stroke:none;" d="M109.333 223.667L109.667 224.333L109.333 223.667z"/>
<path style="fill:#a4c8ee; stroke:none;" d="M141 223L141 224L144 224L141 223M190 223L191 224L190 223z"/>
<path style="fill:#5b9bf1; stroke:none;" d="M191 223L192 224L191 223z"/>
<path style="fill:#4d75b5; stroke:none;" d="M192 223L193 224L192 223z"/>
<path style="fill:#a4c8ee; stroke:none;" d="M223 223L224 224L223 223z"/>
<path style="fill:#4d75b5; stroke:none;" d="M66.3333 224.667L66.6667 225.333L66.3333 224.667z"/>
<path style="fill:#a4c8ee; stroke:none;" d="M145 224L145 225L148 225L145 224M194 224L195 225L194 224z"/>
<path style="fill:#5b9bf1; stroke:none;" d="M195 224L196 225L195 224z"/>
<path style="fill:#4d75b5; stroke:none;" d="M196 224L197 225L196 224z"/>
<path style="fill:#5b9bf1; stroke:none;" d="M223 224L224 225L223 224z"/>
<path style="fill:#a4c8ee; stroke:none;" d="M65 225L66 226L65 225z"/>
<path style="fill:#5b9bf1; stroke:none;" d="M109 225L110 226L109 225z"/>
<path style="fill:#a4c8ee; stroke:none;" d="M149.667 225.333L150.333 225.667L149.667 225.333M198 225L199 226L198 225z"/>
<path style="fill:#5b9bf1; stroke:none;" d="M199 225L200 226L199 225z"/>
<path style="fill:#4d75b5; stroke:none;" d="M200 225L201 226L200 225z"/>
<path style="fill:#5b9bf1; stroke:none;" d="M65 226L66 227L65 226z"/>
<path style="fill:#a4c8ee; stroke:none;" d="M109.333 226.667L109.667 227.333L109.333 226.667M152 226L152 227L155 227L152 226M202 226L203 227L202 226z"/>
<path style="fill:#5b9bf1; stroke:none;" d="M203 226L204 227L203 226z"/>
<path style="fill:#4d75b5; stroke:none;" d="M204 226L205 227L204 226z"/>
<path style="fill:#5b9bf1; stroke:none;" d="M224 226L225 227L224 226z"/>
<path style="fill:#4d75b5; stroke:none;" d="M65 227L66 228L65 227z"/>
<path style="fill:#a4c8ee; stroke:none;" d="M156 227L156 228L159 228L156 227M206 227L207 228L206 227z"/>
<path style="fill:#5b9bf1; stroke:none;" d="M207 227L208 228L207 227z"/>
<path style="fill:#4d75b5; stroke:none;" d="M208 227L209 228L208 227M224 227L225 228L224 227z"/>
<path style="fill:#a4c8ee; stroke:none;" d="M64 228L65 229L64 228M160 228L160 229L163 229L160 228M210 228L211 229L210 228z"/>
<path style="fill:#5b9bf1; stroke:none;" d="M211 228L212 229L211 228z"/>
<path style="fill:#4d75b5; stroke:none;" d="M212 228L213 229L212 228z"/>
<path style="fill:#a4c8ee; stroke:none;" d="M225 228L226 229L225 228z"/>
<path style="fill:#4d75b5; stroke:none;" d="M64 229L65 230L64 229M108 229L109 230L108 229z"/>
<path style="fill:#a4c8ee; stroke:none;" d="M164.667 229.333L165.333 229.667L164.667 229.333M214 229L215 230L214 229z"/>
<path style="fill:#5b9bf1; stroke:none;" d="M215 229L216 230L215 229z"/>
<path style="fill:#4d75b5; stroke:none;" d="M216 229L217 230L216 229M225 229L226 230L225 229z"/>
<path style="fill:#a4c8ee; stroke:none;" d="M63 230L64 231L63 230z"/>
<path style="fill:#5b9bf1; stroke:none;" d="M108 230L109 231L108 230z"/>
<path style="fill:#a4c8ee; stroke:none;" d="M127 230L127 238L128 238L127 230M167 230L167 231L170 231L167 230M218 230L219 231L218 230z"/>
<path style="fill:#5b9bf1; stroke:none;" d="M219 230L220 231L219 230z"/>
<path style="fill:#4d75b5; stroke:none;" d="M220 230L221 231L220 230z"/>
<path style="fill:#a4c8ee; stroke:none;" d="M226 230L227 231L226 230z"/>
<path style="fill:#4d75b5; stroke:none;" d="M63 231L64 232L63 231z"/>
<path style="fill:#a4c8ee; stroke:none;" d="M108.333 231.667L108.667 232.333L108.333 231.667M171 231L171 232L174 232L171 231M222 231L223 232L222 231z"/>
<path style="fill:#5b9bf1; stroke:none;" d="M223 231L224 232L223 231z"/>
<path style="fill:#4d75b5; stroke:none;" d="M224 231L225 232L224 231z"/>
<path style="fill:#5b9bf1; stroke:none;" d="M226 231L227 232L226 231z"/>
<path style="fill:#a4c8ee; stroke:none;" d="M62 232L63 233L62 232M175 232L175 233L178 233L175 232M226 232L227 233L226 232z"/>
<path style="fill:#5b9bf1; stroke:none;" d="M62 233L63 234L62 233z"/>
<path style="fill:#a4c8ee; stroke:none;" d="M179.667 233.333L180.333 233.667L179.667 233.333z"/>
<path style="fill:#4d75b5; stroke:none;" d="M62 234L63 235L62 234M107 234L108 235L107 234z"/>
<path style="fill:#a4c8ee; stroke:none;" d="M182 234L182 235L185 235L182 234M61 235L62 236L61 235z"/>
<path style="fill:#5b9bf1; stroke:none;" d="M107.333 235.667L107.667 236.333L107.333 235.667z"/>
<path style="fill:#a4c8ee; stroke:none;" d="M186 235L186 236L189 236L186 235z"/>
<path style="fill:#4d75b5; stroke:none;" d="M61 236L62 237L61 236z"/>
<path style="fill:#a4c8ee; stroke:none;" d="M190.667 236.333L191.333 236.667L190.667 236.333M60 237L61 238L60 237M107 237L108 238L107 237M193 237L193 238L196 238L193 237z"/>
<path style="fill:#4d75b5; stroke:none;" d="M60 238L61 239L60 238z"/>
<path style="fill:#a4c8ee; stroke:none;" d="M197 238L197 239L200 239L197 238M59 239L60 240L59 239z"/>
<path style="fill:#4d75b5; stroke:none;" d="M106.333 239.667L106.667 240.333L106.333 239.667z"/>
<path style="fill:#a4c8ee; stroke:none;" d="M201 239L201 240L204 240L201 239z"/>
<path style="fill:#5b9bf1; stroke:none;" d="M59 240L60 241L59 240z"/>
<path style="fill:#a4c8ee; stroke:none;" d="M205.667 240.333L206.333 240.667L205.667 240.333z"/>
<path style="fill:#4d75b5; stroke:none;" d="M59 241L60 242L59 241z"/>
<path style="fill:#5b9bf1; stroke:none;" d="M106 241L107 242L106 241z"/>
<path style="fill:#a4c8ee; stroke:none;" d="M126 241L126 245L221 245L221 244C199.934 239.889 173.638 244 152 244C144.407 244 131.837 246.572 126 241M208 241L208 242L211 242L208 241M58 242L59 243L58 242M106.333 242.667L106.667 243.333L106.333 242.667M212 242L212 243L215 243L212 242z"/>
<path style="fill:#4d75b5; stroke:none;" d="M58 243L59 244L58 243z"/>
<path style="fill:#5b9bf1; stroke:none;" d="M58 244L58 245L106 245C93.5857 239.791 71.5264 244 58 244z"/>
</svg>
